<?xml version="1.0" standalone="no"?>
<!DOCTYPE svg PUBLIC "-//W3C//DTD SVG 1.1//EN" "http://www.w3.org/Graphics/SVG/1.1/DTD/svg11.dtd">
<svg xmlns="http://www.w3.org/2000/svg"><metadata>This SVG WebFont was generated by YouWorkForThem.
</metadata><defs><font horiz-adv-x="1206" id="ywftsvg"><font-face ascent="1638" bbox="-388.796 -562.333 2662.7 2283" cap-height="1550" descent="-410" font-family="" font-stretch="normal" font-weight="400" panose-1="0 0 5 0 0 0 0 0 0 0" underline-position="0" underline-thickness="0" unicode-range="U+0020-1F603" units-per-em="2048" x-height="1120"/><missing-glyph d="M444 1550h961q29 0 27 -30l-236 -1489q-6 -31 -37 -31h-958q-29 0 -27 31l236 1489q3 30 34 30zM862 1288q-150 0 -250 -18q-29 -6 -30 -31l-15 -92q-2 -20 17 -21h252q49 0 75.5 -3t51 -12t33 -30.5t1.5 -56.5l-8 -49q-8 -49 -28.5 -75t-63.5 -46l-178 -80 q-66 -35 -86.5 -61.5t-22.5 -77.5l-4 -76q0 -12 12 -12h117q16 0 17 14l6 27q6 27 22.5 40t61.5 34l147 65q90 39 129 89t56 155l12 76q12 78 -7.5 128t-70.5 73.5t-106.5 31.5t-139.5 8zM662 446q-104 0 -121 -98q-16 -96 88 -96q102 0 119 96q16 98 -86 98z" horiz-adv-x="903"/><glyph d="M1405 1561q90 0 178 -19q29 -6 23 -33l-15 -90q-6 -31 -37 -30h-112q-96 0 -136 -19.5t-53 -91.5l-26 -160h264q33 0 20 -33l-32 -98q-8 -27 -37 -26h-240l-147 -930q-2 -31 -35 -31h-135q-29 0 -27 31l148 930h-541l-148 -930q-2 -31 -34 -31h-136q-29 0 -26 31l147 930 h-143q-31 0 -29 30l17 96q2 31 37 31h143l33 203q10 66 39.5 113t62.5 70.5t81 36.5t81 16.5t78 3.5q90 0 178 -19q29 -6 22 -33l-14 -90q-6 -31 -37 -30h-112q-96 0 -136.5 -19.5t-52.5 -91.5l-27 -160h541l33 203q10 66 40 113t62.5 70.5t80.5 36.5t81 16.5t78 3.5z" glyph-name="uniFB00" horiz-adv-x="1470" unicode="ff"/><glyph d="M1137 1567q121 0 102 -119q-18 -121 -139 -121q-125 0 -103 121q17 119 140 119zM668 1561q70 0 157 -19q29 -6 23 -33l-14 -90q-6 -31 -37 -30h-92q-96 0 -136.5 -19.5t-52.5 -91.5l-27 -160h644q31 0 26 -31l-168 -1056q-4 -31 -35 -31h-135q-31 0 -26 31l147 930h-477 l-148 -930q-2 -31 -34 -31h-136q-29 0 -26 31l147 930h-143q-31 0 -29 30l17 96q2 31 37 31h143l33 203q10 66 39.5 113t62.5 70.5t81 36.5t81 16.5t78 3.5z" glyph-name="uniFB01" horiz-adv-x="1230" unicode="fi"/><glyph d="M752 1561q121 0 424 -23q33 -4 26 -31l-233 -1476q-2 -31 -35 -31h-135q-29 0 -27 31l215 1353l-248 5q-106 0 -159.5 -20.5t-63.5 -90.5l-27 -160h263q33 0 20 -33l-33 -98q-8 -27 -37 -26h-237l-148 -930q-2 -31 -34 -31h-136q-29 0 -26 31l147 930h-143q-31 0 -29 30 l17 96q2 31 37 31h143l33 203q39 240 426 240z" glyph-name="uniFB02" horiz-adv-x="1208" unicode="fl"/><glyph d="M1874 1567q121 0 102 -119q-18 -121 -139 -121q-125 0 -102 121q16 119 139 119zM1405 1561q74 0 162 -19q29 -6 22 -33l-14 -90q-6 -31 -37 -30h-96q-96 0 -136 -19.5t-53 -91.5l-26 -160h643q31 0 26 -31l-167 -1056q-4 -31 -35 -31h-135q-31 0 -27 31l147 930h-477 l-147 -930q-2 -31 -35 -31h-135q-29 0 -27 31l148 930h-541l-148 -930q-2 -31 -34 -31h-136q-29 0 -26 31l147 930h-143q-31 0 -29 30l17 96q2 31 37 31h143l33 203q10 66 39.5 113t62.5 70.5t81 36.5t81 16.5t78 3.5q84 0 176 -19q27 -6 20 -33l-12 -90q-6 -31 -39 -30 h-108q-96 0 -136.5 -19.5t-52.5 -91.5l-27 -160h541l33 203q10 66 40 113t62.5 70.5t80.5 36.5t81 16.5t78 3.5z" glyph-name="uniFB03" horiz-adv-x="1968" unicode="ffi"/><glyph d="M1489 1561q121 0 424 -23q33 -4 26 -31l-233 -1476q-2 -31 -35 -31h-135q-29 0 -27 31l215 1353l-247 5q-106 0 -159.5 -20.5t-64.5 -90.5l-26 -160h258q33 0 20 -33l-30 -98q-8 -27 -37 -26h-236l-147 -930q-2 -31 -35 -31h-135q-29 0 -27 31l148 930h-541l-148 -930 q-2 -31 -34 -31h-136q-29 0 -26 31l147 930h-143q-31 0 -29 30l17 96q2 31 37 31h143l33 203q10 66 39.5 113t62.5 70.5t81 36.5t81 16.5t78 3.5q127 0 215 -19q29 -6 22 -33l-14 -90q-6 -31 -37 -30h-149q-96 0 -136.5 -19.5t-52.5 -91.5l-27 -160h541l33 203 q39 240 426 240z" glyph-name="uniFB04" horiz-adv-x="1945" unicode="ffl"/><glyph d="M752 1561q117 0 424 -23q33 -4 26 -31l-61 -391q106 14 274 14q287 0 359.5 -114.5t17.5 -458.5t-164.5 -455.5t-404.5 -111.5q-207 0 -418 35q-31 2 -29 32l211 1327l-250 5q-104 0 -158.5 -20.5t-64.5 -90.5l-25 -160h261q33 0 20 -33l-33 -98q-8 -27 -37 -26h-235 l-148 -930q-6 -31 -36 -31h-134q-29 0 -26 31l147 930h-145q-29 0 -27 30l17 96q2 31 34 31h146l31 203q41 240 428 240zM1374 958h-260l-123 -780q131 -16 260 -16q96 0 153.5 16.5t95.5 66.5t56.5 118.5t38.5 195.5q43 242 3 320.5t-224 78.5z" glyph-name="f_b.liga" horiz-adv-x="1912" unicode="fb"/><glyph d="M1495 1561q119 0 424 -23q33 -4 27 -31l-62 -391q111 14 275 14q287 0 359.5 -113.5t16.5 -459.5q-29 -178 -63.5 -281.5t-99 -171t-157.5 -91t-247 -23.5q-207 0 -420 35q-31 2 -28 32l211 1327l-248 5q-106 0 -159.5 -20.5t-63.5 -90.5l-27 -160h262q33 0 21 -33 l-33 -98q-8 -27 -37 -26h-238l-147 -930q-4 -31 -35 -31h-135q-31 0 -27 31l148 930h-547l-150 -930q-4 -31 -34 -31h-134q-29 0 -26 31l147 930h-145q-29 0 -27 30l17 96q2 31 34 31h146l31 203q10 66 39.5 113t63.5 70.5t82 36.5t81 16.5t78 3.5q86 0 178 -19 q27 -6 20 -33l-12 -90q-6 -31 -37 -30h-112q-98 0 -138.5 -19.5t-52.5 -91.5l-25 -160h547l33 203q39 240 426 240zM2120 958h-260l-125 -780q131 -16 260 -16q184 0 244.5 75.5t99.5 321.5q43 242 4 320.5t-223 78.5z" glyph-name="f_f_b.liga" horiz-adv-x="2658" unicode="ffb"/><glyph d="M1829 1567q121 0 102 -119q-18 -121 -139 -121q-125 0 -102 121q16 119 139 119zM1405 1561q63 0 151 -19q27 -6 21 -33l-12 -90q-6 -31 -39 -30h-84q-96 0 -136 -19.5t-53 -91.5l-26 -160h598q31 0 26 -31l-211 -1329q-10 -57 -34.5 -95t-63.5 -53.5t-71.5 -19.5 t-81.5 -4q-78 0 -111 8q-27 6 -25 33l17 103q2 29 39 28h45q63 0 78.5 14.5t25.5 73.5l176 1115h-432l-147 -930q-2 -31 -35 -31h-135q-29 0 -27 31l148 930h-541l-148 -930q-2 -31 -34 -31h-136q-29 0 -26 31l147 930h-143q-31 0 -29 30l17 96q2 31 37 31h143l33 203 q10 66 39.5 113t62.5 70.5t81 36.5t81 16.5t78 3.5q94 0 178 -19q29 -6 22 -33l-14 -90q-6 -31 -37 -30h-112q-96 0 -136.5 -19.5t-52.5 -91.5l-27 -160h541l33 203q10 66 40 113t62.5 70.5t80.5 36.5t81 16.5t78 3.5z" glyph-name="f_f_j.liga" horiz-adv-x="1923" unicode="ffj"/><glyph d="M1485 1561q117 0 424 -23q33 -4 26 -31l-125 -784l396 377q20 20 47 20h170q18 0 25.5 -5t3 -14t-16.5 -20l-428 -401l385 -625q29 -55 -43 -55h-145q-27 0 -41 23l-367 610l-96 -602q-4 -31 -35 -31h-135q-31 0 -25 31l215 1353l-250 5q-104 0 -157 -20.5t-66 -90.5 l-24 -160h260q33 0 20 -33l-30 -98q-12 -27 -39 -26h-236l-147 -930q-2 -31 -35 -31h-135q-29 0 -27 31l147 930h-536l-150 -930q-4 -31 -34 -31h-134q-29 0 -26 31l147 930h-145q-29 0 -27 30l17 96q2 31 34 31h146l31 203q10 66 39.5 113t63.5 70.5t82 36.5t81 16.5 t78 3.5q86 0 178 -19q27 -6 20 -33l-12 -90q-6 -31 -37 -30h-112q-98 0 -138.5 -19.5t-52.5 -91.5l-25 -160h537l31 203q41 240 428 240z" glyph-name="f_f_k.liga" horiz-adv-x="2490" unicode="ffk"/><glyph d="M1092 1567q121 0 102 -119q-18 -121 -139 -121q-125 0 -103 121q17 119 140 119zM668 1561q72 0 155 -19q29 -6 23 -33l-12 -90q-6 -31 -39 -30h-90q-96 0 -136.5 -19.5t-52.5 -91.5l-27 -160h598q31 0 27 -31l-211 -1329q-10 -57 -34.5 -95t-63.5 -53.5t-72 -19.5 t-82 -4q-78 0 -110 8q-27 6 -25 33l16 103q2 29 39 28h45q63 0 79 14.5t26 73.5l176 1115h-432l-148 -930q-2 -31 -34 -31h-136q-29 0 -26 31l147 930h-143q-31 0 -29 30l17 96q2 31 37 31h143l33 203q10 66 39.5 113t62.5 70.5t81 36.5t81 16.5t78 3.5z" glyph-name="f_j.liga" horiz-adv-x="1185" unicode="fj"/><glyph d="M752 1561q121 0 424 -23q33 -4 26 -31l-125 -784l398 377q20 20 45 20h172q27 0 28.5 -11t-16.5 -28l-428 -401l383 -625q14 -18 5 -36.5t-48 -18.5h-143q-27 0 -41 23l-367 610l-96 -602q-2 -31 -35 -31h-135q-29 0 -27 31l215 1353l-248 5q-106 0 -159.5 -20.5 t-63.5 -90.5l-27 -160h263q33 0 20 -33l-33 -98q-8 -27 -37 -26h-237l-148 -930q-2 -31 -34 -31h-136q-29 0 -26 31l147 930h-143q-31 0 -29 30l17 96q2 31 37 31h143l33 203q39 240 426 240z" glyph-name="f_k.liga" horiz-adv-x="1757" unicode="fk"/><glyph d="M444 1550h961q29 0 27 -30l-236 -1489q-6 -31 -37 -31h-958q-29 0 -27 31l236 1489q3 30 34 30zM862 1288q-150 0 -250 -18q-29 -6 -30 -31l-15 -92q-2 -20 17 -21h252q49 0 75.5 -3t51 -12t33 -30.5t1.5 -56.5l-8 -49q-8 -49 -28.5 -75t-63.5 -46l-178 -80 q-66 -35 -86.5 -61.5t-22.5 -77.5l-4 -76q0 -12 12 -12h117q16 0 17 14l6 27q6 27 22.5 40t61.5 34l147 65q90 39 129 89t56 155l12 76q12 78 -7.5 128t-70.5 73.5t-106.5 31.5t-139.5 8zM662 446q-104 0 -121 -98q-16 -96 88 -96q102 0 119 96q16 98 -86 98z" glyph-name=".notdef" horiz-adv-x="903"/><glyph glyph-name="glyph1" horiz-adv-x="0"/><glyph glyph-name="glyph2" horiz-adv-x="681"/><glyph glyph-name="space" horiz-adv-x="462" unicode=" "/><glyph d="M340 1550h137q29 0 27 -32l-117 -730l-8 -43l-82 -303q-6 -31 -35 -30h-67q-27 0 -27 30l16 303q0 18 4 43l117 730q2 32 35 32zM201 227q121 0 102 -116q-18 -121 -139 -121q-125 0 -103 121q17 116 140 116z" glyph-name="exclam" horiz-adv-x="532" unicode="!"/><glyph d="M287 1550h137q29 0 27 -32l-33 -197q-4 -31 -8 -43l-80 -303q-10 -31 -37 -31h-68q-29 0 -24 31l14 303q2 37 4 43l33 197q2 32 35 32zM682 1550h137q29 0 27 -32l-31 -197q0 -6 -10 -43l-80 -303q-8 -31 -37 -31h-67q-27 0 -25 31l16 303q0 31 2 43l33 197q2 32 35 32z " glyph-name="quotedbl" horiz-adv-x="825" unicode="&quot;"/><glyph d="M1114 1182h219q31 0 25 -31l-19 -111q-4 -31 -34 -30h-220l-73 -471h217q33 0 26 -31l-16 -111q-6 -31 -35 -30h-221l-53 -336q-4 -31 -35 -31h-127q-31 0 -27 31l54 336h-328l-53 -336q-4 -31 -35 -31h-127q-31 0 -27 31l54 336h-195q-33 0 -27 30l19 111q2 31 35 31 h196l74 471h-197q-29 0 -26 30l18 111q6 31 37 31h197l53 338q4 31 35 30h127q31 0 26 -30l-53 -338h326l53 338q2 31 35 30h129q31 0 26 -30zM823 539l74 471h-326l-75 -471h327z" glyph-name="numbersign" horiz-adv-x="1374" unicode="#"/><glyph d="M1192 1462q14 0 12 -14l-20 -129q-2 -12 -19 -12h-497q-125 0 -187.5 -33t-77.5 -117l-6 -33q-10 -72 14.5 -111.5t110.5 -74.5l418 -166q127 -51 165 -128t19 -195l-10 -62q-14 -94 -59 -158.5t-120 -98.5t-155 -48t-186 -19l-25 -153q-6 -31 -37 -31h-77q-31 0 -25 31 l25 153q-227 4 -435 27q-14 2 -12 16l19 127q2 14 20 15h608q117 0 179.5 32.5t74.5 112.5l6 39q10 74 -15.5 119t-108.5 78l-459 178q-104 39 -132 118t-10 197l7 45q14 90 56 152.5t109.5 96.5t141.5 50.5t174 20.5l27 158q4 31 34 30h78q31 0 27 -30l-27 -156 q144 -2 375 -27z" glyph-name="dollar" horiz-adv-x="1243" unicode="$"/><glyph d="M575 1559q211 0 274.5 -88.5t27.5 -327.5q-39 -240 -130.5 -328t-302.5 -88q-213 0 -276.5 88t-24.5 328q37 240 128 328t304 88zM1442 1550h90q29 0 8 -30l-1018 -1489q-18 -31 -51 -31h-90q-29 0 -10 31l1018 1489q20 30 53 30zM549 1395q-102 0 -150.5 -54.5 t-70.5 -197.5q-23 -145 8 -199.5t133 -54.5q104 0 151.5 54t70 199.5t-7.5 199t-134 53.5zM1487 821q211 0 275.5 -88t25.5 -327.5t-130 -327.5t-304 -88q-211 0 -274.5 88t-24.5 327.5t130 327.5t302 88zM1460.5 659q-104.5 0 -150.5 -54t-71 -199q-23 -143 8 -198.5 t133 -55.5q104 0 151.5 54t70.5 200q25 143 -6 198t-135.5 55z" glyph-name="percent" horiz-adv-x="1890" unicode="%"/><glyph d="M786 1561q125 0 238 -19q29 -4 27 -26l-19 -115q-2 -23 -33 -23h-239q-178 0 -252 -42t-96 -181l-4 -33q-23 -147 19 -203.5t200 -56.5h598q31 0 24 -31l-12 -79q-2 -25 -35 -31l-147 -29l-66 -422q-10 -68 11.5 -89t103.5 -21h70q31 0 28 -29l-14 -96q-6 -27 -35 -33 q-47 -12 -127 -12q-51 0 -77.5 2t-63.5 16.5t-62 42.5q-147 -61 -313 -61q-266 0 -363.5 87t-58.5 331l4 34q45 274 227 334q-166 55 -120 336l6 41q39 242 168.5 325t412.5 83zM864 688h-270q-156 0 -214 -55t-81 -201l-4 -22q-20 -129 43 -183.5t211 -54.5q121 0 239 43z " glyph-name="ampersand" horiz-adv-x="1333" unicode="&amp;"/><glyph d="M287 1550h137q29 0 27 -32l-33 -197q-4 -31 -8 -43l-82 -303q-8 -31 -37 -31h-66q-29 0 -24 31l14 303q2 37 4 43l33 197q2 32 35 32z" glyph-name="quotesingle" horiz-adv-x="430" unicode="'"/><glyph d="M639 1671h149q12 0 9 -10l-4 -23q0 -8 -7 -14q-104 -117 -170.5 -196.5t-118 -161.5t-77 -128t-49 -132t-32.5 -138.5t-30 -179.5q-57 -281 -30.5 -446.5t213.5 -489.5q2 -4 2 -14l-5 -23q0 -10 -12 -10h-149q-14 0 -27 12q-193 309 -220.5 487.5t34.5 483.5 q20 133 31.5 193.5t36 150.5t52 141.5t80 133.5t121 160.5t172.5 191.5q15 12 31 12z" glyph-name="parenleft" horiz-adv-x="673" unicode="("/><glyph d="M211 1671h149q16 0 25 -12q193 -309 220.5 -487.5t-34.5 -483.5q-20 -133 -31.5 -193.5t-36 -150.5t-52 -141t-80 -133t-121 -161t-172.5 -192q-12 -12 -29 -12h-149q-10 0 -11 10l5 23q0 2 6 14q104 117 170.5 197t118 162t77 128t49 132t32.5 138t30 179 q57 281 30.5 446.5t-212.5 489.5q0 2 -1 6t-1 8l4 23q4 10 14 10z" glyph-name="parenright" horiz-adv-x="671" unicode=")"/><glyph d="M539 1591h75q33 0 25 -30l-51 -261l254 93q31 10 35 -19l14 -69q4 -31 -27 -37l-258 -74l133 -199q14 -25 -12 -43l-65 -43q-25 -18 -41 6l-113 213l-182 -213q-20 -25 -45 -6l-50 41q-25 18 0 43l195 201l-236 72q-31 6 -14 37l33 69q14 31 45 19l221 -91l31 261 q2 30 33 30z" glyph-name="asterisk" horiz-adv-x="862" unicode="*"/><glyph d="M567 1106h123q31 0 27 -31l-58 -360h363q31 0 27 -31l-21 -121q-4 -31 -35 -31h-362l-58 -360q-4 -31 -34 -31h-123q-31 0 -27 31l57 360h-362q-31 0 -27 31l19 121q6 31 35 31h364l57 360q4 31 35 31z" glyph-name="plus" horiz-adv-x="1112" unicode="+"/><glyph d="M131 244h184q23 0 17 -21l-4 -28q-2 -6 -15 -27l-352 -469q-16 -18 -31 -10l-45 24q-14 8 -2 29l217 483q11 19 31 19z" glyph-name="comma" horiz-adv-x="497" unicode=","/><glyph d="M166 653h561q31 0 27 -30l-21 -121q-6 -31 -37 -31h-559q-33 0 -26 31l20 121q4 30 35 30z" glyph-name="hyphen" horiz-adv-x="890" unicode="-"/><glyph d="M170 227q119 0 102 -116q-18 -121 -141 -121q-121 0 -102 121q18 116 141 116z" glyph-name="period" horiz-adv-x="448" unicode="."/><glyph d="M969 1620h80q33 0 10 -35l-961 -1620q-23 -35 -53 -35h-84q-31 0 -8 35l965 1620q22 35 51 35z" glyph-name="slash" horiz-adv-x="970" unicode="/"/><glyph d="M827 1561q338 0 426 -164t15 -625q-72 -461 -211 -621.5t-479 -160.5q-231 0 -338 68.5t-132.5 241.5t29.5 472q25 158 52.5 269.5t67.5 203.5t90 149.5t120 96.5t156.5 54.5t203.5 15.5zM799 1378q-215 0 -307.5 -126t-147.5 -480q-57 -348 -4 -474t268 -126 q213 0 304.5 123t146.5 477q41 229 29.5 364.5t-78 188.5t-211.5 53z" glyph-name="zero" horiz-adv-x="1363" unicode="0"/><glyph d="M522 182h250q31 0 25 -30l-19 -121q-4 -31 -37 -31h-716q-33 0 -29 31l20 121q6 31 37 30h264l172 1086q10 68 -21.5 90t-135.5 22h-115q-16 -2 -24.5 5.5t-4.5 23.5l15 94q2 25 33 35q68 23 172 23q47 0 80.5 -2.5t83 -15.5t79 -36.5t46 -72t5.5 -113.5z" glyph-name="one" horiz-adv-x="903" unicode="1"/><glyph d="M711 1561q96 0 164.5 -6.5t140 -28t112.5 -58t60.5 -102.5t5.5 -156l-23 -145q-20 -125 -68 -207t-169 -139l-510 -256q-92 -45 -131 -90t-49 -119l-13 -72h793q10 0 12 -2t2 -10l-26 -158q-2 -12 -15 -12h-970q-51 0 -45 57l30 183q20 129 88 209.5t230 162.5l530 269 q49 25 70.5 70.5t34.5 121.5l18 125q18 109 -61.5 144.5t-243.5 35.5h-385q-14 0 -14 15l20 116q2 16 18 23q255 29 394 29z" glyph-name="two" horiz-adv-x="1218" unicode="2"/><glyph d="M575 1561q381 0 498 -79t78 -329l-8 -41q-41 -279 -225 -336q162 -61 120 -334l-6 -34q-39 -252 -181 -335t-523 -83q-137 0 -297 16q-31 8 -31 17l20 131q2 18 35 18h314q260 0 347 49t109 199l4 10q20 145 -20.5 201.5t-200.5 56.5h-395q-25 0 -23 23l21 127 q6 25 31 24h391q162 0 221 55.5t84 204.5l4 27q23 145 -55 187t-344 42h-295q-16 0 -23.5 4t-5.5 15l21 125q0 16 34 20q158 19 301 19z" glyph-name="three" horiz-adv-x="1196" unicode="3"/><glyph d="M532 1550h148q33 0 16 -37l-424 -940h498l66 416q4 29 26 37l160 57q16 6 25.5 2t7.5 -22l-78 -490h260q33 0 29 -28l-19 -123q-6 -31 -39 -31h-260l-57 -360q-2 -31 -35 -31h-147q-29 0 -27 31l57 360h-692q-31 0 -24 33l12 68q2 16 24 69l435 969q9 20 38 20z" glyph-name="four" horiz-adv-x="1320" unicode="4"/><glyph d="M334 1550h903q29 0 27 -30l-21 -121q-2 -31 -35 -31h-733l-102 -438q98 8 192 8q127 0 216 -8t160 -28.5t108.5 -54.5t62.5 -84t24 -119t-12 -159l-6 -47q-45 -268 -190.5 -358t-519.5 -90q-207 0 -357 12q-29 2 -28 25l20 125q2 20 35 20h383q244 0 334 56.5t116 220.5 l4 18q23 168 -49.5 228.5t-314.5 60.5h-377q-18 0 -25.5 5t-5.5 17l21 127l135 615q4 30 35 30z" glyph-name="five" horiz-adv-x="1253" unicode="5"/><glyph d="M717 1550h164q18 0 21 -11t-7 -26l-391 -600q70 23 182 23q281 0 390.5 -106.5t70.5 -344.5l-6 -43q-39 -242 -183.5 -347t-429 -105t-397.5 105.5t-74 348.5l4 41q25 145 89 252l528 793q14 20 39 20zM649 756q-180 0 -268 -66.5t-113 -222.5l-2 -6q-25 -156 43 -222.5 t248 -66.5t268 66.5t111 220.5l2 8q25 156 -42 222.5t-247 66.5z" glyph-name="six" horiz-adv-x="1236" unicode="6"/><glyph d="M209 1550h1014q33 0 26 -30l-14 -90q-2 -20 -21 -48l-907 -1362q-18 -20 -41 -20h-168q-18 0 -21 10t7 27l885 1331h-789q-33 0 -28 29l20 123q6 30 37 30z" glyph-name="seven" horiz-adv-x="1153" unicode="7"/><glyph d="M774 1561h33q248 0 350.5 -104.5t67.5 -319.5q-20 -135 -81 -223.5t-171 -147.5q111 -55 152.5 -138t21.5 -218q-66 -420 -592 -420h-35q-270 0 -380.5 104.5t-76.5 325.5q16 106 95.5 206.5t201.5 168.5q-178 104 -141 335q35 219 170 325t385 106zM776 1378h-28 q-279 0 -318 -227q-16 -102 29 -158.5t141 -95.5l191 -63q197 102 225 294q39 250 -240 250zM762 635l-230 80q-236 -113 -260 -295q-20 -125 49.5 -186.5t229.5 -61.5h33q317 0 354 234q14 104 -33 151t-143 78z" glyph-name="eight" horiz-adv-x="1290" unicode="8"/><glyph d="M749.5 1561q284.5 0 397.5 -105.5t74 -349.5l-7 -41q-20 -147 -86 -252l-526 -793q-18 -20 -41 -20h-166q-18 0 -21 10t7 27l393 598q-74 -20 -180 -21q-281 0 -391.5 105.5t-71.5 345.5l6 43q39 242 183.5 347.5t429 105.5zM721 1378q-178 0 -266 -67.5t-113 -220.5v-7 q-25 -156 41 -222t246 -66t268 66.5t113 219.5l2 6q25 158 -43 224.5t-248 66.5z" glyph-name="nine" horiz-adv-x="1236" unicode="9"/><glyph d="M332 1130q121 0 102.5 -118.5t-139.5 -118.5q-125 0 -102 119q16 118 139 118zM188 227q121 0 103 -116q-18 -121 -139 -121q-125 0 -103 121q16 116 139 116z" glyph-name="colon" horiz-adv-x="509" unicode=":"/><glyph d="M373 1130q119 0 102 -118q-23 -119 -141 -119q-121 0 -102.5 118.5t141.5 118.5zM145 244h185q18 0 16 -21l-4 -28q-2 -6 -14 -27l-355 -469q-16 -18 -30 -10l-45 24q-12 8 0 29l217 483q7 19 30 19z" glyph-name="semicolon" horiz-adv-x="561" unicode=";"/><glyph d="M1018 1251h20q12 0 13 -12l-25 -145q-6 -23 -31 -35l-686 -293l594 -295q23 -12 19 -35l-23 -143q-2 -12 -14 -12h-19q-10 0 -14 2l-762 381q-25 14 -18 34l20 133q6 23 31 35l881 383q4 2 14 2z" glyph-name="less" horiz-adv-x="1075" unicode="&lt;"/><glyph d="M221 985h1000q29 0 26 -31l-18 -120q-6 -31 -35 -31h-999q-33 0 -27 31l18 120q2 31 35 31zM145 494h1000q31 0 24 -31l-18 -121q-6 -31 -37 -31h-999q-31 0 -25 31l19 121q5 31 36 31z" glyph-name="equal" horiz-adv-x="1339" unicode="="/><glyph d="M225 1251h21q10 0 14 -2l762 -383q20 -12 16 -35l-18 -133q-6 -25 -31 -34l-880 -381q-6 -2 -15 -2h-20q-12 0 -13 12l25 143q2 23 31 35l688 295l-596 293q-23 12 -19 35l23 145q0 12 12 12z" glyph-name="greater" horiz-adv-x="1075" unicode=">"/><glyph d="M598 1561q98 0 164.5 -5.5t137.5 -27t109 -59t56 -105.5t4 -164l-18 -119q-25 -162 -85.5 -239.5t-199.5 -134.5l-225 -101q-74 -33 -94.5 -54.5t-34.5 -72.5l-13 -51q0 -16 -18 -16h-139q-16 0 -17 16l13 125q4 59 28.5 93t100.5 73l323 145q72 33 104.5 77t47.5 142 l16 109q8 53 -3 90t-30.5 55.5t-67.5 27.5t-83 11t-105 2h-366q-33 0 -27 31l17 96q6 33 36 35q150 21 369 21zM279 227q119 0 102 -116q-23 -121 -141 -121q-121 0 -103 121q19 116 142 116z" glyph-name="question" horiz-adv-x="1062" unicode="?"/><glyph d="M1239 1548q467 0 671 -194.5t134 -624.5q-55 -342 -230.5 -482.5t-482.5 -140.5l-401 3q-180 2 -247 55t-40 209l2 24q23 139 107 195.5t237 56.5h277l18 115q12 82 -33 119t-166 37h-256q-16 0 -20 5t-2 19l12 72q4 25 27 26q123 23 246 23q215 0 299 -63.5t61 -206.5 l-90 -586q115 0 201 22.5t164.5 76.5t130 158.5t75.5 256.5q59 375 -125 551t-589 176q-451 0 -701 -218t-323 -675q-20 -129 -20.5 -237.5t15 -189.5t49 -147.5t72.5 -111.5t94.5 -80t105.5 -55.5t115.5 -34.5t115 -19.5t112.5 -9.5q29 0 23 -30l-5 -39q-6 -29 -34 -29 q-465 0 -648.5 246t-103.5 743q82 510 359.5 747.5t793.5 237.5zM1243 516h-266q-100 0 -129 -23.5t-41 -105.5l-2 -12q-12 -82 24.5 -103.5t137.5 -21.5h235z" glyph-name="at" horiz-adv-x="2136" unicode="@"/><glyph d="M831 1561q156 0 199 -40t62 -200l145 -1288q2 -20 -3 -26.5t-26 -6.5h-159q-14 0 -17.5 6t-5.5 27l-55 452h-617l-200 -452q-8 -20 -13.5 -26.5t-19.5 -6.5h-160q-18 0 -22.5 6t4.5 27l567 1288q70 158 124 199t197 41zM803 1380q-43 0 -58.5 -17t-48.5 -91l-262 -606 h518l-65 606q-10 76 -21.5 92t-62.5 16z" glyph-name="A" horiz-adv-x="1382" unicode="A"/><glyph d="M864 1561q276 0 391 -94.5t76 -336.5q-47 -303 -233 -346l-2 -6q215 -39 161 -368q-37 -244 -176 -332t-401 -88q-385 0 -588 14q-18 2 -22 7t-2 24l233 1481q4 29 35 30q206 15 528 15zM819 1378h-332l-84 -522h252q109 0 166.5 3t118.5 16.5t91 40t53.5 73.5t35.5 121 q25 162 -45 215t-256 53zM801 690h-422l-82 -518h418q160 0 236.5 50t99.5 196q25 162 -37.5 217t-212.5 55z" glyph-name="B" horiz-adv-x="1398" unicode="B"/><glyph d="M885 1561q236 0 379 -21q31 -4 24 -35l-14 -96q-6 -31 -35 -31h-383q-135 0 -219 -26.5t-141.5 -101t-89 -182t-60.5 -294.5q-63 -350 -1.5 -476t321.5 -126h381q31 0 24 -31l-14 -96q-2 -31 -39 -37q-131 -18 -383 -18q-254 0 -373 68.5t-149.5 242.5t24.5 473 q72 461 223.5 624t524.5 163z" glyph-name="C" horiz-adv-x="1222" unicode="C"/><glyph d="M905 1561q344 0 461 -183.5t51 -601.5q-66 -420 -242 -603t-520 -183q-358 0 -561 14q-18 2 -22 7t-2 22l233 1483q4 29 35 30q207 15 567 15zM848 1378h-359l-190 -1206h387q231 0 351 141.5t171 462.5q55 348 -24.5 475t-335.5 127z" glyph-name="D" horiz-adv-x="1505" unicode="D"/><glyph d="M340 1550h956q31 0 29 -30l-20 -121q-2 -31 -35 -31h-783l-81 -526h710q31 0 27 -31l-21 -119q-4 -31 -37 -30h-710l-74 -480h780q33 0 27 -30l-21 -121q-2 -31 -34 -31h-959q-29 0 -26 31l237 1489q2 30 35 30z" glyph-name="E" horiz-adv-x="1284" unicode="E"/><glyph d="M340 1550h950q29 0 27 -30l-19 -121q-4 -31 -34 -31h-777l-81 -526h704q29 0 27 -31l-21 -119q-6 -31 -37 -30h-704l-99 -631q-6 -31 -36 -31h-146q-29 0 -26 31l237 1489q2 30 35 30z" glyph-name="F" horiz-adv-x="1222" unicode="F"/><glyph d="M885 1561q248 0 391 -21q31 -4 24 -35l-14 -96q-6 -31 -35 -31h-395q-135 0 -219 -26.5t-141.5 -102t-89 -183.5t-62.5 -294q-57 -360 2.5 -480t319.5 -120h311l90 561q4 33 35 33h133q31 0 27 -33l-97 -610q-4 -25 -14 -41q-25 -43 -126 -64.5t-180 -24.5t-210 -3 q-193 0 -302.5 36.5t-170 127t-59.5 241t32 377.5q37 238 86 382t137 239.5t211 131.5t316 36z" glyph-name="G" horiz-adv-x="1353" unicode="G"/><glyph d="M1378 1550h148q29 0 26 -32l-237 -1487q-4 -31 -35 -31h-145q-29 0 -27 31l104 665h-831l-105 -665q-6 -31 -36 -31h-146q-29 0 -26 31l237 1487q2 33 35 32h145q29 0 27 -32l-102 -639h833l100 639q2 32 35 32z" glyph-name="H" horiz-adv-x="1581" unicode="H"/><glyph d="M340 1550h147q29 0 27 -32l-238 -1487q-2 -31 -34 -31h-146q-31 0 -26 31l235 1487q2 32 35 32z" glyph-name="I" horiz-adv-x="542" unicode="I"/><glyph d="M440 1550h686q29 0 27 -30l-117 -748q-37 -233 -88 -377.5t-141 -239t-217 -130t-324 -35.5q-174 0 -305 18q-27 6 -24 37l14 96q6 31 37 31h309q270 0 372.5 121t157.5 479l95 596h-510q-31 0 -27 31l18 121q2 30 37 30z" glyph-name="J" horiz-adv-x="1167" unicode="J"/><glyph d="M1161 1550h166q27 0 29 -11t-17 -28l-716 -680l530 -776q14 -18 5 -36.5t-48 -18.5h-160q-27 0 -41 23l-512 761l-121 -753q-2 -31 -34 -31h-148q-29 0 -26 31l237 1489q2 31 35 30h145q31 0 27 -30l-102 -643l706 653q20 20 45 20z" glyph-name="K" horiz-adv-x="1263" unicode="K"/><glyph d="M340 1550h145q31 0 27 -30l-211 -1338h743q31 0 25 -30l-20 -121q-4 -31 -35 -31h-920q-29 0 -26 31l237 1489q2 30 35 30z" glyph-name="L" horiz-adv-x="1169" unicode="L"/><glyph d="M1640 1550h160q27 0 27 -30l-105 -1489q0 -31 -34 -31h-148q-27 0 -27 31l93 1163l-621 -1118q-12 -25 -41 -25h-145q-29 0 -35 25l-264 1118l-281 -1163q-6 -31 -35 -31h-145q-33 0 -27 31l369 1487q6 33 33 32h159q37 0 49.5 -16t22.5 -64l266 -1163l633 1163 q27 49 43 64.5t53 15.5z" glyph-name="M" horiz-adv-x="1931" unicode="M"/><glyph d="M1376 1550h146q29 0 26 -32l-235 -1487q-6 -31 -37 -31h-125q-45 0 -66 37l-614 1218l-195 -1224q-6 -31 -36 -31h-146q-29 0 -26 31l237 1487q2 33 35 32h139q53 -2 71.5 -12t37.5 -47l569 -1129l184 1156q2 32 35 32z" glyph-name="N" horiz-adv-x="1576" unicode="N"/><glyph d="M885 1561q371 0 472 -165t27 -624q-37 -236 -87 -379t-137 -237.5t-210 -130t-315 -35.5q-254 0 -373 68.5t-150.5 242.5t23.5 471q37 236 87 380t137 239.5t211.5 132.5t314.5 37zM856 1378q-135 0 -219 -26.5t-142.5 -102t-90 -183.5t-62.5 -294q-55 -360 4.5 -480 t319.5 -120q135 0 219 26.5t141 100.5t89 180.5t61 292.5q63 352 1.5 479t-321.5 127z" glyph-name="O" horiz-adv-x="1480" unicode="O"/><glyph d="M780 1561q102 0 177 -6.5t140.5 -19.5t107.5 -37.5t72 -61.5t42 -91.5t11 -123t-15 -160.5q-27 -162 -70 -256t-131 -145.5t-194.5 -65.5t-294.5 -14h-260l-86 -549q-4 -18 -11.5 -24.5t-25.5 -6.5h-146q-18 0 -23 6t-3 25l235 1485q4 29 35 30q207 15 440 15zM733 1378 h-241l-99 -622h242q96 0 149.5 2t110.5 12t85 28.5t56.5 53.5t43 83t26.5 122q33 207 -39 264t-334 57z" glyph-name="P" horiz-adv-x="1323" unicode="P"/><glyph d="M885 1561q371 0 472 -165t27 -624q-66 -420 -195.5 -588t-424.5 -190l33 -250q2 -16 -8.5 -24.5t-26.5 -8.5h-137q-35 0 -39 33l-33 248q-315 14 -400 181t-18 599q37 236 87 380t137 239.5t211.5 132.5t314.5 37zM1176 772q63 352 1.5 479t-321.5 127q-135 0 -218 -26.5 t-141.5 -102t-90 -183.5t-62.5 -294q-57 -360 2.5 -480t319.5 -120q135 0 219 26.5t141 100.5t89 180.5t61 292.5z" glyph-name="Q" horiz-adv-x="1480" unicode="Q"/><glyph d="M780 1561q102 0 177 -6.5t140.5 -19.5t107.5 -37.5t72 -61.5t42 -91.5t11 -123t-15 -160.5q-39 -244 -129 -344.5t-281 -124.5l258 -551q10 -16 1 -28.5t-31 -12.5h-132q-33 0 -47 10t-28 35l-254 535h-307l-86 -549q-4 -18 -11.5 -24.5t-25.5 -6.5h-146q-18 0 -23 6 t-3 25l235 1485q4 29 35 30q207 15 440 15zM733 1378h-241l-99 -622h242q96 0 149.5 2t110.5 12t85 28.5t56.5 53.5t43 83t26.5 122q33 207 -39 264t-334 57z" glyph-name="R" horiz-adv-x="1351" unicode="R"/><glyph d="M795 1561q150 0 395 -31q25 -2 20 -25l-18 -102q-4 -25 -31 -25h-456q-268 0 -297 -182l-7 -35q-12 -82 11.5 -127t109.5 -82l416 -184q125 -55 163 -141t15 -215l-10 -66q-16 -113 -69.5 -186.5t-139.5 -109.5t-175 -48t-212 -12q-258 0 -496 28q-23 6 -20 31l18 92 q6 31 37 31h557q135 0 207 43t86 137l8 39q12 84 -12.5 134t-108.5 87l-454 197q-104 43 -131 129t-8 219l8 49q14 90 54 155.5t91 103.5t128 59.5t150 29t171 7.5z" glyph-name="S" horiz-adv-x="1232" unicode="S"/><glyph d="M197 1550h1134q29 0 27 -30l-19 -121q-4 -31 -34 -31h-465l-213 -1337q-4 -31 -35 -31h-146q-29 0 -26 31l213 1337h-465q-29 0 -27 31l21 121q2 30 35 30z" glyph-name="T" horiz-adv-x="1245" unicode="T"/><glyph d="M1337 1550h148q33 0 26 -30l-118 -748q-39 -244 -88.5 -388t-135.5 -236.5t-204.5 -125t-307.5 -32.5q-152 0 -248 22.5t-160.5 71.5t-89 143.5t-21.5 222.5t34 322l119 748q6 31 35 30h147q33 0 27 -30l-121 -748q-25 -180 -29 -297t35 -184.5t108.5 -93t194.5 -25.5 q242 0 340 120t156 480l119 748q5 30 34 30z" glyph-name="U" horiz-adv-x="1525" unicode="U"/><glyph d="M1260 1550h159q35 0 21 -32l-545 -1289q-49 -117 -80 -159.5t-82 -61t-162 -18.5q-141 0 -178 40t-53 199l-154 1289q-2 18 4.5 25t24.5 7h160q12 0 16 -6t8 -26l144 -1239q8 -72 17 -91.5t40 -19.5q41 0 58.5 19.5t48.5 91.5l522 1239q8 20 13.5 26t17.5 6z" glyph-name="V" horiz-adv-x="1359" unicode="V"/><glyph d="M2118 1550h161q18 0 22.5 -7t-1.5 -25l-481 -1289q-59 -158 -111.5 -198.5t-194.5 -40.5q-156 0 -193.5 39t-49.5 200l-76 928l-367 -928q-49 -117 -79.5 -159.5t-82 -61t-161.5 -18.5q-141 0 -180 41t-48 198l-73 1289q0 33 28 32h164q20 0 23 -32l65 -1229 q2 -70 13.5 -89.5t44.5 -19.5q41 0 59 18.5t47 90.5l477 1165q12 33 39 33h164q31 0 33 -33l106 -1165q8 -72 20.5 -90.5t51.5 -18.5q33 0 50.5 19.5t43.5 89.5l455 1229q8 20 13.5 26t17.5 6z" glyph-name="W" horiz-adv-x="2226" unicode="W"/><glyph d="M1208 1550h158q51 0 16 -45l-579 -698l389 -762q23 -45 -31 -45h-157q-35 0 -50 33l-301 596l-487 -596q-31 -33 -62 -33h-159q-53 0 -17 45l631 762l-358 698q-23 45 28 45h158q35 0 51 -32l273 -535l438 535q22 32 59 32z" glyph-name="X" horiz-adv-x="1312" unicode="X"/><glyph d="M1294 1550h158q47 0 16 -45l-718 -1034l-70 -440q-4 -31 -35 -31h-147q-31 0 -27 31l72 440l-391 1034q-20 45 28 45h158q37 0 51 -32l293 -820l553 820q20 32 59 32z" glyph-name="Y" horiz-adv-x="1347" unicode="Y"/><glyph d="M258 1550h1106q33 0 27 -30l-17 -103q-6 -20 -20 -39l-1096 -1196h907q33 0 27 -30l-21 -121q-4 -31 -36 -31h-1145q-31 0 -27 31l17 100q4 20 20 39l1096 1198h-865q-33 0 -28 29l18 123q6 30 37 30z" glyph-name="Z" horiz-adv-x="1331" unicode="Z"/><glyph d="M365 1671h509q31 0 27 -31l-18 -104q-2 -31 -35 -31h-346l-260 -1638h346q31 0 26 -31l-16 -104q-6 -31 -37 -31h-508q-31 0 -24 31l301 1908q2 31 35 31z" glyph-name="bracketleft" horiz-adv-x="798" unicode="["/><glyph d="M215 1620h80q35 0 41 -35l455 -1620q8 -35 -23 -35h-84q-31 0 -39 35l-450 1620q-7 35 20 35z" glyph-name="backslash" horiz-adv-x="948" unicode="\"/><glyph d="M250 1671h510q31 0 26 -31l-303 -1908q-6 -31 -37 -31h-507q-31 0 -25 31l16 104q4 31 35 31h346l258 1638h-346q-31 0 -26 31l18 104q2 31 35 31z" glyph-name="bracketright" horiz-adv-x="802" unicode="]"/><glyph d="M590 1505h119q27 0 32 -22l234 -682q8 -16 -1 -26.5t-28 -10.5h-145q-25 0 -33 22l-158 486l-309 -486q-14 -23 -41 -22h-141q-39 0 -19 37l449 682q16 22 41 22z" glyph-name="asciicircum" horiz-adv-x="1024" unicode="^"/><glyph d="M-86 -94h1065q31 0 25 -31l-9 -68q-6 -31 -37 -30h-1064q-29 0 -27 30l10 68q6 31 37 31z" glyph-name="underscore" horiz-adv-x="1128" unicode="_"/><glyph d="M512 1554h182q18 0 23 -12l110 -248q6 -16 -12 -28l-45 -27q-18 -14 -29 0l-243 252q-8 8 -9 29v14q0 20 23 20z" glyph-name="grave" horiz-adv-x="872" unicode="`"/><glyph d="M573 1130q242 0 341.5 -76.5t72.5 -244.5l-115 -717q-4 -43 -47 -57q-129 -45 -463 -45q-215 0 -294.5 66.5t-49.5 262.5q29 176 129.5 246t284.5 70l330 2l22 137q14 96 -40 140t-197 44h-307q-18 0 -23.5 6.5t-3.5 24.5l16 84q4 27 33 33q147 24 311 24zM737 477h-325 q-88 0 -135.5 -34.5t-61.5 -118.5q-16 -98 31 -132t178 -34q168 0 266 24z" glyph-name="a" horiz-adv-x="1093" unicode="a"/><glyph d="M313 1548h136q31 0 26 -30l-63 -402q106 14 274 14q287 0 359.5 -114.5t17.5 -458.5q-29 -178 -63.5 -281.5t-100 -171t-159 -91t-246.5 -23.5q-207 0 -418 35q-31 2 -29 32l232 1461q3 30 34 30zM647 958h-262l-123 -780q131 -16 260 -16q96 0 153.5 16.5t95.5 66.5 t56.5 118.5t38.5 195.5q43 242 4 320.5t-223 78.5z" glyph-name="b" horiz-adv-x="1183" unicode="b"/><glyph d="M659 1130q176 0 308 -18q33 -4 22 -35l-14 -88q-4 -31 -35 -31h-309q-180 0 -241.5 -75.5t-100.5 -323.5q-43 -238 -4 -317.5t221 -79.5h307q31 0 29 -31l-15 -88q-6 -33 -36 -35q-135 -18 -314 -18q-295 0 -367.5 111.5t-17.5 457.5q29 180 62.5 283.5t99 172t158.5 92 t247 23.5z" glyph-name="c" horiz-adv-x="991" unicode="c"/><glyph d="M1018 1548h135q31 0 27 -30l-232 -1461q-2 -29 -37 -32q-223 -35 -432 -35q-295 0 -368.5 111.5t-18.5 455.5q29 178 62.5 282.5t98 173t157 93t239.5 24.5q162 0 271 -14l63 402q6 30 35 30zM895 958h-262q-184 0 -244.5 -74.5t-99.5 -324.5q-45 -236 -5 -316.5 t222 -80.5q133 0 264 16z" glyph-name="d" horiz-adv-x="1183" unicode="d"/><glyph d="M649 1130q274 0 347 -107.5t26 -432.5l-10 -60q-4 -33 -20.5 -45t-61.5 -12h-654q-25 -188 18.5 -249.5t207.5 -61.5h336q31 0 26 -31l-16 -90q-4 -29 -35 -33q-135 -18 -344 -18q-197 0 -285 46t-111.5 173t19.5 350q55 346 163.5 458.5t393.5 112.5zM623 958 q-164 0 -225.5 -64.5t-96.5 -260.5h528q29 197 -9.5 261t-196.5 64z" glyph-name="e" horiz-adv-x="1114" unicode="e"/><glyph d="M668 1561q90 0 178 -19q29 -6 22 -33l-14 -90q-6 -31 -37 -30h-112q-96 0 -136.5 -19.5t-52.5 -91.5l-27 -160h265q33 0 20 -33l-33 -98q-8 -27 -36 -26h-240l-148 -930q-2 -31 -34 -31h-136q-29 0 -26 31l147 930h-143q-31 0 -29 30l17 96q2 31 37 31h143l33 203 q10 66 39.5 113t62.5 70.5t81 36.5t81 16.5t78 3.5z" glyph-name="f" horiz-adv-x="733" unicode="f"/><glyph d="M664 1130q260 0 415 -34q35 -4 29 -35l-152 -959q-35 -211 -88 -316t-160.5 -153.5t-306.5 -48.5q-160 0 -295 19q-27 4 -20 32l14 89q2 31 33 30h291q170 0 233.5 49.5t85.5 190.5v12q-102 -16 -272 -16q-287 0 -359.5 112.5t-17.5 460.5q53 342 165 454.5t405 112.5z M895 958h-262q-182 0 -243.5 -74.5t-100.5 -322.5q-43 -240 -3 -319.5t224 -79.5q145 0 260 14z" glyph-name="g" horiz-adv-x="1181" unicode="g"/><glyph d="M315 1548h136q29 0 26 -30l-63 -398q102 10 262 10q100 0 162.5 -5t119 -22.5t83 -49t43 -86t13.5 -130t-22 -186.5l-98 -620q-2 -31 -35 -31h-135q-29 0 -27 31l97 604q14 94 14 153.5t-8.5 95.5t-42 52t-67.5 20.5t-103 4.5h-281l-147 -930q-4 -31 -35 -31h-135 q-31 0 -27 31l236 1487q1 30 34 30z" glyph-name="h" horiz-adv-x="1208" unicode="h"/><glyph d="M387 1567q121 0 102 -119q-18 -121 -139 -121t-102 121q16 119 139 119zM248 1120h135q31 0 27 -30l-168 -1059q-4 -31 -35 -31h-135q-31 0 -27 31l168 1059q4 30 35 30z" glyph-name="i" horiz-adv-x="481" unicode="i"/><glyph d="M393 1567q121 0 103 -119q-18 -121 -140 -121q-125 0 -102 121q16 119 139 119zM254 1120h135q29 0 27 -30l-211 -1332q-10 -57 -35 -95t-63.5 -53.5t-71.5 -19.5t-82 -4q-78 0 -111 8q-27 6 -24 33l16 103q2 29 39 28h45q63 0 78.5 14.5t26.5 73.5l196 1244q2 30 35 30z " glyph-name="j" horiz-adv-x="487" unicode="j"/><glyph d="M315 1548h136q31 0 26 -32l-127 -793l398 377q20 20 45 20h172q27 0 28.5 -11t-16.5 -28l-428 -401l383 -625q14 -18 5 -36.5t-48 -18.5h-144q-27 0 -40 23l-367 610l-94 -600q-6 -33 -37 -33h-135q-31 0 -25 33l234 1483q3 32 34 32z" glyph-name="k" horiz-adv-x="1030" unicode="k"/><glyph d="M315 1550h136q29 0 26 -30l-235 -1489q-4 -31 -35 -31h-135q-31 0 -27 31l236 1489q1 30 34 30z" glyph-name="l" horiz-adv-x="481" unicode="l"/><glyph d="M1262 1133q96 0 156.5 -5.5t115.5 -24t81.5 -49t43 -83.5t13.5 -129t-19 -183l-105 -628q-4 -31 -35 -31h-131q-31 0 -26 31l96 604q14 94 14 153.5t-8 95.5t-41 52t-66.5 20.5t-101.5 4.5q-137 0 -241 -19q18 -100 -13 -291l-102 -620q-4 -31 -33 -31h-135q-31 0 -25 31 l99 616q14 92 13 148.5t-10 91.5t-43 49t-67 18t-100 4h-205l-147 -927q-2 -31 -35 -31h-135q-29 0 -27 31l166 1034q4 27 33 33q180 33 348 32q207 0 330 -61q190 64 342 64z" glyph-name="m" horiz-adv-x="1783" unicode="m"/><glyph d="M674 1130q100 0 162.5 -5t119 -22.5t83 -49t43 -86t13.5 -130t-22 -186.5l-98 -620q-4 -31 -39 -31h-131q-31 0 -27 31l96 604q14 94 14.5 153.5t-8 95.5t-42 51t-67.5 19t-103 4h-281l-147 -927q-2 -31 -35 -31h-135q-29 0 -27 31l164 1034q2 12 7 19.5t10 9.5t18 4 q178 32 432 32z" glyph-name="n" unicode="n"/><glyph d="M659 1130q123 0 200 -16t127 -52t68.5 -105.5t15.5 -162t-26 -235.5q-29 -180 -62.5 -283.5t-99 -171t-157.5 -91t-246 -23.5q-293 0 -367.5 111.5t-19.5 457.5q29 180 63.5 283.5t99 172t157.5 92t247 23.5zM633 958q-182 0 -243.5 -75.5t-100.5 -323.5 q-43 -238 -4 -317.5t221 -79.5q96 0 152.5 15.5t94.5 65.5t56 118.5t39 197.5q45 240 5 319.5t-220 79.5z" glyph-name="o" horiz-adv-x="1167" unicode="o"/><glyph d="M674 1130q295 0 369.5 -112.5t19.5 -456.5q-53 -346 -161.5 -458.5t-397.5 -112.5q-166 0 -268 12l-60 -377q-4 -31 -35 -31h-135q-31 0 -26 31l227 1436q6 29 39 35q223 34 428 34zM649 958h-262l-125 -780q131 -16 258 -16q184 0 245.5 74.5t100.5 322.5 q45 238 5 318.5t-222 80.5z" glyph-name="p" horiz-adv-x="1183" unicode="p"/><glyph d="M664 1130q207 0 415 -34q35 -6 29 -35l-227 -1436q-4 -31 -35 -31h-135q-31 0 -27 31l59 375q-90 -10 -272 -10q-197 0 -285 47t-111.5 174t19.5 352q29 178 64 281.5t100.5 171t158.5 91t247 23.5zM895 958h-262q-96 0 -152.5 -15t-94.5 -65.5t-56.5 -118t-38.5 -198.5 q-43 -240 -3 -319.5t222 -79.5q145 0 262 14z" glyph-name="q" horiz-adv-x="1181" unicode="q"/><glyph d="M541 1130q164 0 225 -22q27 -8 25 -35l-15 -86q-4 -33 -37 -29h-178q-104 0 -144 -22.5t-50 -91.5l-129 -813q-6 -31 -37 -31h-133q-31 0 -27 31l135 860q14 82 54 134t100.5 72.5t105 26.5t105.5 6z" glyph-name="r" horiz-adv-x="751" unicode="r"/><glyph d="M600 1130q162 0 309 -18q29 -4 23 -33l-14 -88q-4 -31 -35 -30h-379q-152 0 -170 -107l-4 -27q-14 -96 104 -143l258 -109q84 -33 124 -81t41 -98t-5 -109l-4 -23q-27 -164 -131.5 -219t-327.5 -55t-371 18q-31 2 -26 31l14 90q2 31 37 31h377q127 0 175 20.5t58 85.5 l4 25q6 47 -14 77.5t-84 59.5l-272 111q-182 76 -152 292l8 43q12 82 53.5 135.5t108 78t134 33.5t161.5 9z" glyph-name="s" horiz-adv-x="991" unicode="s"/><glyph d="M342 1397l139 33q37 10 31 -27l-47 -285h217q31 0 27 -31l-17 -96q-4 -31 -35 -30h-217l-108 -689q-10 -68 11.5 -89t102.5 -21h99q31 0 28 -29l-14 -98q-6 -27 -37 -33q-51 -12 -116 -12q-74 0 -114 5t-91 24.5t-68.5 70.5t-3.5 133l115 738h-115q-31 0 -27 30l17 96 q4 31 35 31h116l37 246q6 27 35 33z" glyph-name="t" horiz-adv-x="694" unicode="t"/><glyph d="M975 1120h135q31 0 25 -30l-164 -1037q-4 -25 -35 -30q-178 -33 -432 -33q-100 0 -162.5 5t-119 23.5t-83 49t-43 86t-13.5 131t21 186.5l99 619q6 31 39 30h131q29 0 26 -30l-96 -605q-12 -78 -16 -132t5 -90t21.5 -56.5t45 -30.5t63.5 -12t88 -2h281l147 928 q6 30 37 30z" glyph-name="u" unicode="u"/><glyph d="M952 1120h152q16 0 21 -6t-1 -27l-366 -858q-41 -96 -57.5 -129.5t-52.5 -66.5t-77 -38t-125 -5q-139 0 -170.5 38t-50.5 201l-102 858q0 20 5 26.5t24 6.5h149q18 0 23 -33l92 -813q10 -72 19 -90t40 -18q41 0 57.5 18.5t47.5 89.5l342 813q8 20 13 26.5t17 6.5z" glyph-name="v" horiz-adv-x="1112" unicode="v"/><glyph d="M1546 1120h148q18 0 22 -6t-2 -27l-315 -866q-57 -152 -105.5 -191.5t-173.5 -39.5q-131 0 -160.5 35.5t-39.5 195.5l-41 574l-224 -574q-63 -160 -104 -195.5t-172 -35.5q-123 0 -159 40t-44 191l-41 866q0 20 5 26.5t24 6.5h147q20 0 23 -33l33 -841q2 -51 12 -64.5 t33 -13.5q25 0 34 11t31 67l328 809q14 33 33 32h174q18 0 20 -32l72 -809q2 -53 9 -65.5t34 -12.5q23 0 35 13.5t30 64.5l304 841q8 20 13 26.5t17 6.5z" glyph-name="w" horiz-adv-x="1710" unicode="w"/><glyph d="M903 1120h168q16 0 19.5 -11t-11.5 -26l-428 -489l310 -557q14 -37 -23 -37h-168q-20 0 -29 18l-229 420l-367 -420q-12 -18 -32 -18h-166q-41 0 -13 37l486 557l-275 489q-8 14 -1.5 25.5t22.5 11.5h168q23 0 31 -18l196 -352l307 352q17 18 35 18z" glyph-name="x" horiz-adv-x="1085" unicode="x"/><glyph d="M977 1120h135q31 0 27 -30l-156 -988q-35 -211 -88 -316t-160.5 -153.5t-306.5 -48.5q-176 0 -307 19q-29 4 -23 32l15 89q2 31 34 30h304q170 0 233.5 49.5t85.5 190.5v12q-102 -16 -272 -16q-287 0 -361 111.5t-20 447.5l86 541q2 31 35 30h135q29 0 26 -30l-84 -529 q-43 -240 -3 -319.5t225 -79.5q145 0 260 14l145 914q4 30 35 30z" glyph-name="y" horiz-adv-x="1210" unicode="y"/><glyph d="M197 1120h811q33 0 28 -30l-8 -50q-6 -23 -18 -36l-738 -832h605q35 0 28 -31l-18 -110q-2 -31 -37 -31h-856q-31 0 -29 31l10 57q4 23 19 37l729 823h-553q-33 0 -27 31l17 111q4 30 37 30z" glyph-name="z" horiz-adv-x="1050" unicode="z"/><glyph d="M649 1690q39 0 96 -9q29 -2 27 -32l-18 -107q-4 -31 -35 -31h-80q-111 0 -113 -92l-28 -532q-2 -49 -18.5 -71.5t-55.5 -49.5l-145 -74l-3 -8l123 -74q31 -27 38 -45t-3 -76l-141 -532q-14 -49 6 -70.5t78 -21.5h82q31 0 24 -31l-16 -106q-6 -31 -37 -33q-57 -8 -98 -8 q-162 0 -221.5 58t-22.5 196l143 544q6 23 -14 37l-143 96q-16 10 -11 37l11 66q4 27 22 37l174 96q25 14 25 37l29 545q6 137 84.5 195.5t240.5 58.5z" glyph-name="braceleft" horiz-adv-x="681" unicode="{"/><glyph d="M362 1645h136q31 0 24 -31l-278 -1761q-6 -31 -35 -31h-135q-33 0 -27 31l279 1761q5 31 36 31z" glyph-name="bar" horiz-adv-x="542" unicode="|"/><glyph d="M365 1690q162 0 222 -58.5t23 -195.5l-143 -545q-6 -23 12 -37l146 -96q14 -8 10 -37l-10 -66q-6 -29 -23 -37l-176 -96q-23 -14 -23 -37l-28 -544q-8 -137 -87 -195.5t-241 -58.5q-39 0 -96 8q-31 4 -25 33l17 106q6 31 37 31h81q55 0 82 20.5t31 71.5l27 532 q0 35 11 57.5t22.5 34t37.5 29.5l148 74l2 8l-125 74q-31 29 -37 45t4 76l142 532q12 49 -8.5 70.5t-75.5 21.5h-82q-31 0 -27 31l18 107q2 29 35 32q58 9 99 9z" glyph-name="braceright" horiz-adv-x="681" unicode="}"/><glyph d="M434 899q63 0 125 -29.5t102.5 -64.5t94 -64.5t100.5 -29.5q115 0 178 98q18 29 41 12l72 -53q14 -10 6 -37q-45 -92 -130 -151.5t-192 -59.5q-80 0 -152.5 47t-139 94.5t-129.5 47.5q-113 0 -177 -99q-18 -29 -40 -12l-72 53q-16 12 -4 37q43 90 127 150.5t190 60.5z " glyph-name="asciitilde" horiz-adv-x="1249" unicode="~"/><glyph d="M334 1130q123 0 100 -120q-16 -117 -137 -117q-123 0 -104 117q18 120 141 120zM236 733h67q27 0 27 -31l-17 -305q0 -16 -4 -41l-116 -731q-4 -31 -35 -31h-138q-29 0 -26 31l117 731q2 8 10 41l80 305q6 31 35 31z" glyph-name="exclamdown" horiz-adv-x="512" unicode="¡"/><glyph d="M971 1112q33 -4 22 -35l-14 -88q-4 -31 -35 -31h-309q-180 0 -241.5 -75.5t-100.5 -323.5q-43 -238 -4 -317.5t221 -79.5h307q31 0 29 -31l-15 -88q-6 -33 -36 -35q-135 -18 -314 -18h-57l-45 -135q-10 -31 -39 -31h-78q-33 0 -22 31l49 149q-162 31 -201 155t8 400 q53 336 155.5 450.5t369.5 120.5l45 136q8 31 41 30h77q31 0 23 -30l-45 -138q127 -4 209 -16z" glyph-name="cent" horiz-adv-x="1026" unicode="¢"/><glyph d="M1044 1550q94 0 222 -10q33 -6 26 -27l-20 -124q-2 -20 -33 -21h-246q-244 0 -335 -56.5t-117 -219.5l-60 -383h506q31 0 25 -31l-15 -96q-6 -31 -36 -31h-506l-58 -369h705q33 0 26 -30l-20 -121q-2 -31 -35 -31h-1083q-31 0 -23 31l41 121q10 31 41 30h141l58 369h-111 q-31 0 -26 31l16 96q6 31 37 31h108l62 393q43 268 188 358t522 90z" glyph-name="sterling" horiz-adv-x="1273" unicode="£"/><glyph d="M295 1094l86 -101q106 53 242 54q137 0 227 -54l117 101q25 20 45 0l45 -56q18 -18 -6 -43l-115 -98q43 -90 22.5 -231.5t-96.5 -231.5l86 -98q14 -25 -10 -43l-64 -55q-27 -20 -45 0l-84 100q-106 -53 -243 -53t-226 53l-118 -100q-25 -20 -45 0l-45 55q-20 20 6 43 l114 98q-41 90 -22 232q20 135 96 231l-84 98q-16 23 8 43l64 56q27 20 45 0zM596 881q-96 0 -159.5 -55.5t-80.5 -159.5q-14 -104 31 -159.5t141.5 -55.5t160 55t77.5 160q16 104 -29 159.5t-141 55.5z" glyph-name="currency" horiz-adv-x="1118" unicode="¤"/><glyph d="M1333 1550h158q47 0 16 -45l-655 -895h276q31 0 25 -30l-10 -72q-6 -31 -37 -31h-318l-24 -162h317q31 0 25 -30l-10 -72q-6 -31 -35 -31h-318l-24 -151q-2 -31 -35 -31h-147q-29 0 -27 31l25 151h-314q-35 0 -28 31l12 72q6 31 37 30h313l27 162h-316q-29 0 -26 31 l12 72q6 31 37 30h272l-371 895q-20 45 29 45h158q37 0 51 -32l301 -762l545 762q20 32 59 32z" glyph-name="yen" horiz-adv-x="1435" unicode="¥"/><glyph d="M360 1645h136q31 0 24 -31l-114 -729q-4 -31 -35 -31h-138q-29 0 -22 31l113 729q5 31 36 31zM197 614h137q27 0 24 -30l-116 -731q-6 -31 -35 -31h-133q-33 0 -27 31l117 731q4 30 33 30z" glyph-name="brokenbar" horiz-adv-x="540" unicode="¦"/><glyph d="M664 1571q84 0 161 -17q29 -6 23 -30l-12 -88q-6 -29 -35 -29h-236q-150 0 -168 -111l-24 -159l299 -125q182 -74 151 -291l-94 -578q-12 -82 -51 -135t-105.5 -77.5t-132 -33t-159.5 -8.5q-84 0 -162 19q-29 6 -23 31l15 86q2 29 32 28h236q152 0 170 111l22 153 l-299 125q-186 76 -149 291l92 584q12 82 52 135t106.5 77.5t131.5 33t159 8.5zM342 952l-35 -223q-16 -100 105 -149l188 -80l37 223q16 96 -105 149z" glyph-name="section" horiz-adv-x="919" unicode="§"/><glyph d="M612 1513q127 0 105 -120q-18 -125 -144 -125q-61 0 -88.5 31.5t-17.5 93.5q18 120 145 120zM995 1513q127 0 105 -120q-18 -125 -143.5 -125t-106.5 125q18 120 145 120z" glyph-name="dieresis" horiz-adv-x="1126" unicode="¨"/><glyph d="M1026 1552q401 0 559 -190.5t94.5 -593.5t-281.5 -593.5t-619.5 -190.5t-560.5 190.5t-95 593.5q66 403 284 593.5t619 190.5zM1008 1436q-342 0 -528.5 -162t-240 -506t82 -506t475.5 -162q342 0 528 162t238 506q55 344 -79 506t-476 162zM969 1159q145 0 198 -16 q25 -8 21 -29l-12 -86q-2 -14 -17 -14h-211q-98 0 -139 -53.5t-66 -204.5q-25 -145 -1 -200.5t122 -55.5h213q14 0 10 -15l-12 -88q-6 -23 -28 -28q-82 -16 -205 -17q-195 0 -248 84t-19 320q37 236 118 319.5t276 83.5z" glyph-name="copyright" horiz-adv-x="1763" unicode="©"/><glyph d="M530 1561q158 0 215.5 -51.5t40.5 -159.5l-67 -426q-6 -27 -33 -35q-104 -23 -266 -23q-150 0 -204 39t-36 158q18 123 83 169t190 46h176l8 49q10 57 -24.5 81t-102.5 24h-203q-10 0 -8 14l12 84q4 12 17 14q91 17 202 17zM610 1159h-159q-63 0 -89 -19.5t-32 -64.5 q-8 -51 14.5 -69.5t91.5 -18.5q96 0 148 10zM184 748h455q33 0 27 -31l-11 -60q-4 -31 -34 -30h-455q-31 0 -27 30l11 60q5 31 34 31z" glyph-name="ordfeminine" horiz-adv-x="813" unicode="ª"/><glyph d="M403 954h134q29 0 26 -30l-2 -15q-2 -18 -20 -37l-301 -313l200 -311q12 -20 9 -37l-3 -14q-4 -31 -34 -31h-133q-23 0 -35 18l-181 297q-12 16 -8 39l15 78q2 18 18 41l277 297q18 18 38 18zM811 954h133q33 0 27 -30l-2 -15q-2 -18 -21 -37l-301 -313l203 -311 q12 -20 8 -37l-2 -14q-4 -31 -35 -31h-133q-23 0 -35 18l-180 297q-12 16 -8 39l12 78q4 18 21 41l274 297q19 18 39 18z" glyph-name="guillemotleft" horiz-adv-x="1036" unicode="«"/><glyph d="M170 950h944q31 0 25 -30l-76 -488q-6 -31 -35 -31h-125q-33 0 -26 31l53 334h-791q-31 0 -24 31l18 123q6 30 37 30z" glyph-name="logicalnot" horiz-adv-x="1239" unicode="¬"/><glyph d="M1026 1552q401 0 559 -190.5t94.5 -593.5t-281.5 -593.5t-619.5 -190.5t-560.5 190.5t-95 593.5q66 403 284 593.5t619 190.5zM1008 1436q-342 0 -528.5 -162t-240 -506t82 -506t475.5 -162q342 0 528 162t238 506q55 344 -79 506t-476 162zM559 379l121 764q4 12 14 12 q121 10 285 10q170 0 226.5 -56t31.5 -208q-18 -115 -62.5 -169t-134.5 -70l134 -281q4 -6 0.5 -11t-13.5 -5h-145q-20 0 -31 18l-129 268h-86l-43 -272q-2 -14 -14 -14h-142q-14 0 -12 14zM938 1020h-109l-38 -244h108q86 0 120 23.5t46 95.5q10 74 -15.5 99.5t-111.5 25.5 z" glyph-name="registered" horiz-adv-x="1763" unicode="®"/><glyph d="M506 1446h528q31 0 25 -31l-15 -84q-4 -31 -34 -31h-529q-31 0 -26 31l14 84q6 31 37 31z" glyph-name="macron" horiz-adv-x="1081" unicode="¯"/><glyph d="M508 1561q274 0 233 -265q-43 -262 -315 -262q-274 0 -233 262q43 265 315 265zM489 1434q-139 0 -159 -138q-23 -137 114.5 -137t159.5 137q20 138 -115 138z" glyph-name="degree" horiz-adv-x="731" unicode="°"/><glyph d="M655 1305h123q31 0 25 -31l-45 -291h362q31 0 25 -31l-19 -112q-4 -31 -34 -31h-363l-45 -291q-6 -31 -35 -31h-123q-33 0 -26 31l47 291h-365q-31 0 -26 31l18 112q6 31 37 31h364l46 291q1 31 34 31zM111 367h911q33 0 27 -31l-17 -107q-6 -31 -37 -30h-911 q-31 0 -25 30l17 107q6 31 35 31z" glyph-name="plusminus" horiz-adv-x="1222" unicode="±"/><glyph d="M512 1872q68 0 117 -8.5t91 -28.5t59.5 -61t6.5 -103l-14 -92q-8 -66 -35.5 -109t-109.5 -96l-205 -121q-88 -53 -92 -75l-2 -11h387q8 0 8 -8l-18 -123q-4 -6 -13 -6h-542q-29 0 -23 31l14 90q10 61 41 95t113 85l248 156q68 41 80 121l2 20q10 61 -25 84t-127 23h-199 q-14 0 -12 14l14 82q2 18 25 24q86 17 211 17z" glyph-name="uni00B2" horiz-adv-x="710" unicode="²"/><glyph d="M528 1872q135 0 210 -43t57 -160l-9 -61q-25 -135 -163 -160q135 -23 110 -162l-8 -61q-18 -117 -106.5 -159t-223.5 -42q-127 0 -237 16q-20 2 -19 27l15 80q2 12 12 12h221q90 0 134 19.5t54 81.5l5 24q10 59 -29 80.5t-131 21.5h-164q-12 0 -10 15l14 94q2 12 16 12 h164q90 0 135.5 21.5t55.5 81.5l4 26q8 59 -30 79t-128 20h-219q-12 0 -10 12l14 82q2 20 25 24q87 19 241 19z" glyph-name="uni00B3" horiz-adv-x="714" unicode="³"/><glyph d="M670 1554h182q18 0 18 -20v-10q0 -14 -16 -29l-334 -256q-14 -12 -28 0l-35 27q-12 12 -2 28l188 248q9 12 27 12z" glyph-name="acute" horiz-adv-x="872" unicode="´"/><glyph d="M985 1120h135q27 0 25 -30l-164 -1037q-4 -25 -35 -30q-178 -33 -432 -33q-195 0 -274 30l-41 -262q-6 -31 -37 -30h-135q-31 0 -25 30l211 1332q4 31 39 30h131q31 0 27 -30l-97 -605q-12 -78 -16 -132t5 -90t21.5 -56.5t45 -30.5t63.5 -12t88 -2h281l147 928 q6 30 37 30z" glyph-name="uni00B5" horiz-adv-x="1214" unicode="µ"/><glyph d="M782 1561q190 0 301 -38t169.5 -128t57.5 -242t-32 -379l-123 -774h-178l125 788q51 303 6 438.5t-217 162.5l-121 -781h-135q-328 -6 -434.5 87t-65.5 362l6 47q45 270 178 363.5t463 93.5z" glyph-name="paragraph" horiz-adv-x="1419" unicode="¶"/><glyph d="M248 680q119 0 100.5 -119t-139.5 -119t-105 119q19 119 144 119z" glyph-name="periodcentered" horiz-adv-x="481" unicode="·"/><glyph d="M459 31h61q29 0 31 -27q12 -125 2 -188q-14 -88 -64.5 -122t-148.5 -34q-82 0 -121 16q-23 8 -18 37l10 70q6 31 35 31h73q57 0 78 11t29 52q6 31 2 119q-6 35 31 35z" glyph-name="cedilla" horiz-adv-x="827" unicode="¸"/><glyph d="M451 1167h131q12 0 12 -14l-19 -111q0 -12 -16 -12h-414q-12 0 -10 14l19 109q0 14 14 14h135l82 519q6 37 -11.5 48t-49.5 11h-74q-16 0 -12 12l12 86q2 14 16 19q72 10 113 10q86 0 130 -30t30 -118z" glyph-name="uni00B9" horiz-adv-x="548" unicode="¹"/><glyph d="M565 1561q180 0 229.5 -70t14.5 -277q-33 -209 -102.5 -278.5t-250 -69.5t-229.5 70t-16 278q35 207 105.5 277t248.5 70zM545 1432q-92 0 -128 -43t-59 -175q-20 -131 2.5 -175t114.5 -44q94 0 130 43t57 176q23 131 -1 174.5t-116 43.5zM209 748h455q33 0 26 -31 l-10 -60q-4 -31 -35 -30h-455q-31 0 -26 30l10 60q6 31 35 31z" glyph-name="ordmasculine" horiz-adv-x="843" unicode="º"/><glyph d="M190 954h134q23 0 34 -18l183 -297q8 -20 6 -41l-15 -78q-2 -18 -16 -39l-278 -297q-18 -18 -39 -18h-131q-31 0 -27 31l2 14q2 18 20 37l302 311l-203 313q-10 16 -8 37l2 15q5 30 34 30zM600 954h133q23 0 35 -18l180 -297q10 -18 8 -41l-14 -78q-2 -20 -18 -39 l-277 -297q-18 -18 -39 -18h-133q-29 0 -26 31l2 14q6 23 20 37l301 311l-201 313q-10 16 -8 37l2 15q6 30 35 30z" glyph-name="guillemotright" horiz-adv-x="1040" unicode="»"/><glyph d="M1300 1620h62q29 0 10 -35l-960 -1620q-23 -35 -54 -35h-67q-31 0 -8 35l966 1620q22 35 51 35zM528 715h-413q-12 0 -11 14l17 109q4 14 16 14h135l82 518q6 37 -11 48.5t-50 11.5h-76q-10 0 -10 12l14 86q2 16 15 18q72 10 112 10q86 0 130 -29.5t28 -117.5l-88 -557 h133q14 0 10 -14l-16 -111q-5 -12 -17 -12zM1520 348h122q12 0 11 -12l-17 -111q-2 -12 -16 -12h-121l-31 -199q-2 -14 -16 -14h-131q-10 0 -8 14l30 199h-366q-10 0 -8 12l10 82q4 16 14 35l217 483q6 10 17 11h129q18 0 8 -15l-211 -473h213l29 187q2 10 12 14l137 43 q14 2 15 -12z" glyph-name="onequarter" horiz-adv-x="1755" unicode="¼"/><glyph d="M1300 1620h62q29 0 10 -35l-960 -1620q-23 -35 -54 -35h-67q-31 0 -8 35l966 1620q22 35 51 35zM518 715h-414q-14 0 -12 14l17 109q4 14 16 14h135l82 518q6 37 -11.5 48.5t-49.5 11.5h-74q-12 0 -12 12l14 86q2 16 16 18q72 10 111 10q86 0 130 -29.5t30 -117.5 l-88 -557h131q16 0 12 -14l-16 -111q-3 -12 -17 -12zM1360 842q143 0 219 -42t55 -159l-14 -92q-10 -68 -37 -111t-108 -94l-205 -121q-86 -55 -90 -76l-2 -10h385q8 0 8 -8l-21 -123q0 -6 -8 -6h-543q-29 0 -24 31l14 90q10 59 41 93t113 87l248 156q41 25 56 50t23 71 l3 20q10 61 -25 84t-125 23h-201q-12 0 -10 14l12 82q2 18 27 24q82 17 209 17z" glyph-name="onehalf" horiz-adv-x="1716" unicode="½"/><glyph d="M1411 1620h64q29 0 10 -35l-963 -1620q-23 -35 -53 -35h-66q-31 0 -8 35l965 1620q22 35 51 35zM494 1556q135 0 210.5 -43t57.5 -159l-12 -62q-20 -135 -162 -159q133 -20 112 -162l-10 -62q-33 -201 -332 -200q-123 0 -233 16q-25 4 -19 27l13 79q0 12 14 13h219 q90 0 134 19.5t53 80.5l4 25q12 59 -27 80.5t-129 21.5h-164q-12 0 -12 14l16 95q0 12 15 12h164q90 0 135 21.5t55 80.5l4 27q8 59 -30 78.5t-128 19.5h-219q-10 0 -10 13l14 81q2 20 25 25q90 18 242 18zM1325 836h129q16 0 8 -15l-211 -473h211l31 187q2 10 12 14l137 43 q14 4 15 -12l-39 -232h121q14 0 12 -12l-16 -111q-2 -12 -17 -12h-121l-32 -199q-2 -14 -15 -14h-131q-12 0 -10 14l33 199h-367q-14 0 -10 12l12 82q4 16 15 35l217 483q6 11 16 11z" glyph-name="threequarters" horiz-adv-x="1853" unicode="¾"/><glyph d="M788 1130q119 0 101 -120q-18 -117 -139 -117q-119 0 -105 117q22 120 143 120zM649 733h139q20 0 17 -16l-12 -125q-4 -61 -28 -93t-101 -73l-324 -145q-72 -33 -104.5 -77t-47.5 -143l-14 -75q-10 -66 14.5 -111t81 -67.5t121 -31.5t154.5 -9h282q31 0 25 -31l-14 -96 q-6 -31 -37 -37q-158 -18 -287 -19q-133 0 -230.5 16.5t-181.5 56.5t-119.5 121t-17.5 199l15 86q25 162 85 240t199 135l223 101q74 31 95.5 53t35.5 74l13 51q4 16 18 16z" glyph-name="questiondown" horiz-adv-x="1048" unicode="¿"/><glyph d="M666 1964h182q18 0 22 -12l109 -248q10 -16 -10 -29l-45 -26q-18 -14 -29 0l-244 252q-8 8 -8 28v15q0 20 23 20zM831 1561q156 0 199 -40t62 -200l145 -1288q2 -20 -3 -26.5t-26 -6.5h-159q-14 0 -17.5 6t-5.5 27l-55 452h-617l-200 -452q-8 -20 -13.5 -26.5t-19.5 -6.5 h-160q-18 0 -22.5 6t4.5 27l567 1288q70 158 124 199t197 41zM803 1380q-43 0 -58.5 -17t-48.5 -91l-262 -606h518l-65 606q-10 76 -21.5 92t-62.5 16z" glyph-name="Agrave" horiz-adv-x="1382" unicode="À"/><glyph d="M997 1964h183q18 0 18 -20v-11q0 -14 -16 -28l-334 -256q-14 -12 -29 0l-35 26q-12 12 -2 29l189 248q8 12 26 12zM831 1561q156 0 199 -40t62 -200l145 -1288q2 -20 -3 -26.5t-26 -6.5h-159q-14 0 -17.5 6t-5.5 27l-55 452h-617l-200 -452q-8 -20 -13.5 -26.5 t-19.5 -6.5h-160q-18 0 -22.5 6t4.5 27l567 1288q70 158 124 199t197 41zM803 1380q-43 0 -58.5 -17t-48.5 -91l-262 -606h518l-65 606q-10 76 -21.5 92t-62.5 16z" glyph-name="Aacute" horiz-adv-x="1382" unicode="Á"/><glyph d="M852 1964h88q23 0 31 -14l141 -248q12 -14 -10 -29l-41 -24q-14 -12 -29 0l-162 149l-213 -149q-14 -12 -28 0l-33 24q-14 14 -2 29l221 248q14 14 37 14zM831 1561q156 0 199 -40t62 -200l145 -1288q2 -20 -3 -26.5t-26 -6.5h-159q-14 0 -17.5 6t-5.5 27l-55 452h-617 l-200 -452q-8 -20 -13.5 -26.5t-19.5 -6.5h-160q-18 0 -22.5 6t4.5 27l567 1288q70 158 124 199t197 41zM803 1380q-43 0 -58.5 -17t-48.5 -91l-262 -606h518l-65 606q-10 76 -21.5 92t-62.5 16z" glyph-name="Acircumflex" horiz-adv-x="1382" unicode="Â"/><glyph d="M995 1679q-49 0 -141 41t-125 41q-37 0 -58.5 -14t-43.5 -55q-18 -29 -43 -21l-45 12q-29 12 -15 46q53 119 98.5 157.5t122.5 38.5q49 0 140.5 -41t124.5 -41q37 0 58.5 14.5t45.5 55.5q18 31 43 22l45 -12q29 -12 15 -47q-55 -117 -100.5 -157t-121.5 -40zM831 1561 q156 0 199 -40t62 -200l145 -1288q2 -20 -3 -26.5t-26 -6.5h-159q-14 0 -17.5 6t-5.5 27l-55 452h-617l-200 -452q-8 -20 -13.5 -26.5t-19.5 -6.5h-160q-18 0 -22.5 6t4.5 27l567 1288q70 158 124 199t197 41zM803 1380q-43 0 -58.5 -17t-48.5 -91l-262 -606h518l-65 606 q-10 76 -21.5 92t-62.5 16z" glyph-name="Atilde" horiz-adv-x="1382" unicode="Ã"/><glyph d="M700 1923q123 0 105 -121q-23 -125 -143 -125q-127 0 -109 125q18 121 147 121zM1081 1923q125 0 107 -121q-23 -125 -146 -125q-125 0 -106 125q18 121 145 121zM831 1561q156 0 199 -40t62 -200l145 -1288q2 -20 -3 -26.5t-26 -6.5h-159q-14 0 -17.5 6t-5.5 27l-55 452 h-617l-200 -452q-8 -20 -13.5 -26.5t-19.5 -6.5h-160q-18 0 -22.5 6t4.5 27l567 1288q70 158 124 199t197 41zM803 1380q-43 0 -58.5 -17t-48.5 -91l-262 -606h518l-65 606q-10 76 -21.5 92t-62.5 16z" glyph-name="Adieresis" horiz-adv-x="1382" unicode="Ä"/><glyph d="M915 2062q213 0 182.5 -208.5t-249.5 -208.5q-217 0 -186 208q34 209 253 209zM901 1980q-129 0 -147.5 -127t106.5 -127q129 0 147.5 127t-106.5 127zM831 1561q156 0 199 -40t62 -200l145 -1288q2 -20 -3 -26.5t-26 -6.5h-159q-14 0 -17.5 6t-5.5 27l-55 452h-617 l-200 -452q-8 -20 -13.5 -26.5t-19.5 -6.5h-160q-18 0 -22.5 6t4.5 27l567 1288q70 158 124 199t197 41zM803 1380q-43 0 -58.5 -17t-48.5 -91l-262 -606h518l-65 606q-10 76 -21.5 92t-62.5 16z" glyph-name="Aring" horiz-adv-x="1382" unicode="Å"/><glyph d="M831 1561l455 -11h705q29 0 26 -30l-20 -121q-2 -31 -35 -31h-672l-84 -526h602q31 0 27 -31l-18 -119q-6 -31 -37 -30h-602l-76 -480h674q31 0 24 -30l-20 -121q-2 -31 -35 -31h-850q-31 0 -25 31l72 454h-588l-198 -452q-14 -33 -33 -33h-160q-18 0 -22 6t2 27 l567 1288q72 158 125 199t196 41zM1085 1380h-276q-45 0 -63.5 -19.5t-51.5 -94.5l-260 -600h537z" glyph-name="AE" horiz-adv-x="1976" unicode="Æ"/><glyph d="M1264 1540q31 -4 24 -35l-14 -96q-6 -31 -35 -31h-383q-135 0 -219 -26.5t-141.5 -101t-89 -182t-60.5 -294.5q-63 -350 -1.5 -476t321.5 -126h381q31 0 24 -31l-14 -96q-2 -31 -39 -37q-123 -18 -354 -18q8 -117 -2 -174q-12 -88 -62.5 -122t-148.5 -34q-82 0 -121 16 q-23 8 -19 37l11 70q6 31 34 31h74q57 0 77.5 11t29.5 52q6 31 2 115q-307 18 -389 185t-13 597q72 461 223.5 624t524.5 163q236 -1 379 -21z" glyph-name="Ccedilla" horiz-adv-x="1222" unicode="Ç"/><glyph d="M643 1964h182q18 0 23 -12l110 -248q10 -16 -10 -29l-45 -26q-18 -12 -29 0l-245 252q-8 8 -8 28v15q-1 20 22 20zM340 1550h956q31 0 29 -30l-20 -121q-2 -31 -35 -31h-783l-81 -526h710q31 0 27 -31l-21 -119q-4 -31 -37 -30h-710l-74 -480h780q33 0 27 -30l-21 -121 q-2 -31 -34 -31h-959q-29 0 -26 31l237 1489q2 30 35 30z" glyph-name="Egrave" horiz-adv-x="1284" unicode="È"/><glyph d="M899 1964h182q16 0 17 -20v-11q0 -14 -17 -28l-331 -256q-14 -12 -29 0l-37 26q-12 12 0 29l188 248q9 12 27 12zM340 1550h956q31 0 29 -30l-20 -121q-2 -31 -35 -31h-783l-81 -526h710q31 0 27 -31l-21 -119q-4 -31 -37 -30h-710l-74 -480h780q33 0 27 -30l-21 -121 q-2 -31 -34 -31h-959q-29 0 -26 31l237 1489q2 30 35 30z" glyph-name="Eacute" horiz-adv-x="1284" unicode="É"/><glyph d="M829 1964h89q23 0 32 -14l142 -248q12 -14 -13 -29l-39 -24q-16 -10 -30 0l-162 149l-211 -149q-16 -10 -31 0l-31 24q-16 14 -2 29l220 248q18 14 36 14zM340 1550h956q31 0 29 -30l-20 -121q-2 -31 -35 -31h-783l-81 -526h710q31 0 27 -31l-21 -119q-4 -31 -37 -30 h-710l-74 -480h780q33 0 27 -30l-21 -121q-2 -31 -34 -31h-959q-29 0 -26 31l237 1489q2 30 35 30z" glyph-name="Ecircumflex" horiz-adv-x="1284" unicode="Ê"/><glyph d="M678 1923q123 0 104 -121q-18 -125 -143 -125q-127 0 -109 125q21 121 148 121zM1059 1923q125 0 106 -121q-18 -125 -145 -125q-125 0 -107 125q21 121 146 121zM340 1550h956q31 0 29 -30l-20 -121q-2 -31 -35 -31h-783l-81 -526h710q31 0 27 -31l-21 -119 q-4 -31 -37 -30h-710l-74 -480h780q33 0 27 -30l-21 -121q-2 -31 -34 -31h-959q-29 0 -26 31l237 1489q2 30 35 30z" glyph-name="Edieresis" horiz-adv-x="1284" unicode="Ë"/><glyph d="M190 1964h183q18 0 22 -12l109 -248q10 -16 -10 -29l-45 -26q-18 -14 -29 0l-244 252q-8 8 -8 28v15q-1 20 22 20zM340 1550h147q29 0 27 -32l-238 -1487q-2 -31 -34 -31h-146q-31 0 -26 31l235 1487q2 32 35 32z" glyph-name="Igrave" horiz-adv-x="542" unicode="Ì"/><glyph d="M551 1964h182q18 0 19 -20v-11q0 -14 -17 -28l-334 -256q-14 -12 -28 0l-35 26q-12 12 -2 29l188 248q11 12 27 12zM340 1550h147q29 0 27 -32l-238 -1487q-2 -31 -34 -31h-146q-31 0 -26 31l235 1487q2 32 35 32z" glyph-name="Iacute" horiz-adv-x="542" unicode="Í"/><glyph d="M432 1964h88q25 0 33 -14l141 -248q12 -14 -10 -29l-41 -24q-16 -10 -31 0l-161 149l-211 -149q-14 -12 -31 0l-31 24q-16 14 -2 29l221 248q15 14 35 14zM340 1550h147q29 0 27 -32l-238 -1487q-2 -31 -34 -31h-146q-31 0 -26 31l235 1487q2 32 35 32z" glyph-name="Icircumflex" horiz-adv-x="542" unicode="Î"/><glyph d="M281 1923q123 0 104 -121q-18 -125 -143 -125q-127 0 -109 125q21 121 148 121zM661.5 1923q124.5 0 106.5 -121q-18 -125 -145 -125t-105 125q19 121 143.5 121zM340 1550h147q29 0 27 -32l-238 -1487q-2 -31 -34 -31h-146q-31 0 -26 31l235 1487q2 32 35 32z" glyph-name="Idieresis" horiz-adv-x="542" unicode="Ï"/><glyph d="M926 1561q344 0 461.5 -183.5t52.5 -601.5q-66 -420 -242 -603t-520 -183q-360 0 -561 14q-18 2 -22.5 7t-2.5 22l105 667h-150q-31 0 -24 31l12 84q2 31 35 31h151l105 670q4 29 34 30q208 15 566 15zM1231 776q25 178 22.5 294t-50.5 184.5t-126 96t-209 27.5h-356 l-84 -532h324q31 0 26 -31l-14 -84q-6 -31 -37 -31h-321l-84 -528h385q233 0 353 140t171 464z" glyph-name="Eth" horiz-adv-x="1527" unicode="Ð"/><glyph d="M1096 1679q-49 0 -140.5 41t-124.5 41q-39 0 -59 -14t-45 -55q-18 -29 -43 -21l-45 12q-27 12 -14 46q55 119 99 157.5t122 38.5q49 0 141 -41t125 -41q37 0 58.5 14.5t46.5 55.5q16 31 43 22l45 -12q27 -12 14 -47q-55 -117 -100 -157t-123 -40zM1376 1550h146 q29 0 26 -32l-235 -1487q-6 -31 -37 -31h-125q-45 0 -66 37l-614 1218l-195 -1224q-6 -31 -36 -31h-146q-29 0 -26 31l237 1487q2 33 35 32h139q53 -2 71.5 -12t37.5 -47l569 -1129l184 1156q2 32 35 32z" glyph-name="Ntilde" horiz-adv-x="1576" unicode="Ñ"/><glyph d="M719 1964h182q18 0 23 -12l110 -248q6 -16 -12 -29l-45 -26q-18 -14 -29 0l-243 252q-8 8 -9 28v15q0 20 23 20zM885 1561q371 0 472 -165t27 -624q-37 -236 -87 -379t-137 -237.5t-210 -130t-315 -35.5q-254 0 -373 68.5t-150.5 242.5t23.5 471q37 236 87 380t137 239.5 t211.5 132.5t314.5 37zM856 1378q-135 0 -219 -26.5t-142.5 -102t-90 -183.5t-62.5 -294q-55 -360 4.5 -480t319.5 -120q135 0 219 26.5t141 100.5t89 180.5t61 292.5q63 352 1.5 479t-321.5 127z" glyph-name="Ograve" horiz-adv-x="1480" unicode="Ò"/><glyph d="M1059 1964h182q18 0 19 -20v-11q0 -14 -17 -28l-332 -256q-14 -12 -28 0l-37 26q-12 12 -2 29l188 248q9 12 27 12zM885 1561q371 0 472 -165t27 -624q-37 -236 -87 -379t-137 -237.5t-210 -130t-315 -35.5q-254 0 -373 68.5t-150.5 242.5t23.5 471q37 236 87 380 t137 239.5t211.5 132.5t314.5 37zM856 1378q-135 0 -219 -26.5t-142.5 -102t-90 -183.5t-62.5 -294q-55 -360 4.5 -480t319.5 -120q135 0 219 26.5t141 100.5t89 180.5t61 292.5q63 352 1.5 479t-321.5 127z" glyph-name="Oacute" horiz-adv-x="1480" unicode="Ó"/><glyph d="M905 1964h88q23 0 31 -14l141 -248q14 -14 -10 -29l-41 -24q-14 -12 -29 0l-161 149l-211 -149q-16 -10 -31 0l-33 24q-14 14 -2 29l221 248q14 14 37 14zM885 1561q371 0 472 -165t27 -624q-37 -236 -87 -379t-137 -237.5t-210 -130t-315 -35.5q-254 0 -373 68.5 t-150.5 242.5t23.5 471q37 236 87 380t137 239.5t211.5 132.5t314.5 37zM856 1378q-135 0 -219 -26.5t-142.5 -102t-90 -183.5t-62.5 -294q-55 -360 4.5 -480t319.5 -120q135 0 219 26.5t141 100.5t89 180.5t61 292.5q63 352 1.5 479t-321.5 127z" glyph-name="Ocircumflex" horiz-adv-x="1480" unicode="Ô"/><glyph d="M1049 1679q-49 0 -141.5 41t-125.5 41q-37 0 -57 -14t-45 -55q-18 -29 -43 -21l-45 12q-29 12 -14 46q53 119 98 157.5t123 38.5q49 0 140 -41t124 -41q37 0 58.5 14.5t45.5 55.5q18 31 43 22l45 -12q29 -12 15 -47q-53 -117 -98 -157t-123 -40zM885 1561q371 0 472 -165 t27 -624q-37 -236 -87 -379t-137 -237.5t-210 -130t-315 -35.5q-254 0 -373 68.5t-150.5 242.5t23.5 471q37 236 87 380t137 239.5t211.5 132.5t314.5 37zM856 1378q-135 0 -219 -26.5t-142.5 -102t-90 -183.5t-62.5 -294q-55 -360 4.5 -480t319.5 -120q135 0 219 26.5 t141 100.5t89 180.5t61 292.5q63 352 1.5 479t-321.5 127z" glyph-name="Otilde" horiz-adv-x="1480" unicode="Õ"/><glyph d="M754 1923q123 0 104 -121q-23 -125 -143 -125q-127 0 -109 125q19 121 148 121zM1135 1923q125 0 106 -121q-18 -125 -145 -125q-125 0 -107 125q19 121 146 121zM885 1561q371 0 472 -165t27 -624q-37 -236 -87 -379t-137 -237.5t-210 -130t-315 -35.5q-254 0 -373 68.5 t-150.5 242.5t23.5 471q37 236 87 380t137 239.5t211.5 132.5t314.5 37zM856 1378q-135 0 -219 -26.5t-142.5 -102t-90 -183.5t-62.5 -294q-55 -360 4.5 -480t319.5 -120q135 0 219 26.5t141 100.5t89 180.5t61 292.5q63 352 1.5 479t-321.5 127z" glyph-name="Odieresis" horiz-adv-x="1480" unicode="Ö"/><glyph d="M903 1038l76 -84q18 -23 -8 -45l-320 -274l234 -275q20 -23 -8 -45l-103 -88q-27 -23 -45 0l-231 275l-316 -275q-27 -23 -45 0l-71 84q-16 23 6 45l319 275l-231 274q-18 20 6 45l102 86q27 23 45 0l230 -272l317 274q27 23 43 0z" glyph-name="multiply" horiz-adv-x="1050" unicode="×"/><glyph d="M635 -10q-270 0 -389 78l-74 -84q-20 -23 -43 -7l-61 48q-20 14 -2 41l88 100q-88 168 -19 606q37 236 87 380t137 239.5t211 132.5t315 37q274 0 395 -84l63 73q23 27 46 9l61 -48q20 -16 0 -43l-82 -94q86 -162 16 -602q-37 -236 -87 -379t-137 -237.5t-209.5 -130 t-315.5 -35.5zM856 1378q-135 0 -219 -26.5t-142.5 -102t-90 -183.5t-62.5 -294q-45 -287 -20 -410l813 945q-78 71 -279 71zM1198 1176l-807 -938q78 -66 275 -66q135 0 218 26.5t141 100.5t90 180.5t61 292.5q45 289 22 404z" glyph-name="Oslash" horiz-adv-x="1480" unicode="Ø"/><glyph d="M741 1964h183q18 0 22 -12l111 -248q10 -16 -10 -29l-48 -26q-18 -14 -28 0l-244 252q-8 8 -8 28v15q-1 20 22 20zM1337 1550h148q33 0 26 -30l-118 -748q-39 -244 -88.5 -388t-135.5 -236.5t-204.5 -125t-307.5 -32.5q-152 0 -248 22.5t-160.5 71.5t-89 143.5 t-21.5 222.5t34 322l119 748q6 31 35 30h147q33 0 27 -30l-121 -748q-25 -180 -29 -297t35 -184.5t108.5 -93t194.5 -25.5q242 0 340 120t156 480l119 748q5 30 34 30z" glyph-name="Ugrave" horiz-adv-x="1525" unicode="Ù"/><glyph d="M997 1964h181q18 0 18 -20v-11q0 -14 -16 -28l-332 -256q-14 -12 -29 0l-37 26q-12 12 -2 29l191 248q8 12 26 12zM1337 1550h148q33 0 26 -30l-118 -748q-39 -244 -88.5 -388t-135.5 -236.5t-204.5 -125t-307.5 -32.5q-152 0 -248 22.5t-160.5 71.5t-89 143.5 t-21.5 222.5t34 322l119 748q6 31 35 30h147q33 0 27 -30l-121 -748q-25 -180 -29 -297t35 -184.5t108.5 -93t194.5 -25.5q242 0 340 120t156 480l119 748q5 30 34 30z" glyph-name="Uacute" horiz-adv-x="1525" unicode="Ú"/><glyph d="M928 1964h88q25 0 31 -14l143 -248q12 -14 -12 -29l-41 -24q-14 -12 -29 0l-162 149l-211 -149q-16 -10 -30 0l-33 24q-14 14 -2 29l221 248q14 14 37 14zM1337 1550h148q33 0 26 -30l-118 -748q-39 -244 -88.5 -388t-135.5 -236.5t-204.5 -125t-307.5 -32.5 q-152 0 -248 22.5t-160.5 71.5t-89 143.5t-21.5 222.5t34 322l119 748q6 31 35 30h147q33 0 27 -30l-121 -748q-25 -180 -29 -297t35 -184.5t108.5 -93t194.5 -25.5q242 0 340 120t156 480l119 748q5 30 34 30z" glyph-name="Ucircumflex" horiz-adv-x="1525" unicode="Û"/><glyph d="M776 1923q123 0 105 -121q-18 -125 -144 -125q-127 0 -108 125q20 121 147 121zM1157 1923q125 0 107 -121q-18 -125 -146 -125q-125 0 -106 125q20 121 145 121zM1337 1550h148q33 0 26 -30l-118 -748q-39 -244 -88.5 -388t-135.5 -236.5t-204.5 -125t-307.5 -32.5 q-152 0 -248 22.5t-160.5 71.5t-89 143.5t-21.5 222.5t34 322l119 748q6 31 35 30h147q33 0 27 -30l-121 -748q-25 -180 -29 -297t35 -184.5t108.5 -93t194.5 -25.5q242 0 340 120t156 480l119 748q5 30 34 30z" glyph-name="Udieresis" horiz-adv-x="1525" unicode="Ü"/><glyph d="M975 1964h180q18 0 19 -20v-11q0 -14 -17 -28l-332 -256q-14 -12 -28 0l-37 26q-12 12 -2 29l190 248q7 12 27 12zM1294 1550h158q47 0 16 -45l-718 -1034l-70 -440q-4 -31 -35 -31h-147q-31 0 -27 31l72 440l-391 1034q-20 45 28 45h158q37 0 51 -32l293 -820l553 820 q20 32 59 32z" glyph-name="Yacute" horiz-adv-x="1347" unicode="Ý"/><glyph d="M340 1550h147q29 0 27 -30l-39 -248q180 4 242 4q121 0 204 -8t153.5 -28.5t107.5 -56.5t63.5 -91.5t22.5 -134t-15 -183.5q-20 -129 -55 -215t-85 -143.5t-132 -87t-179 -42t-243 -12.5q-66 0 -242 5l-41 -248q-2 -31 -34 -31h-146q-31 0 -26 31l235 1489q2 30 35 30z M670 1094h-224l-100 -639h225q260 0 350.5 57t122.5 262q10 61 10.5 106.5t-6 80t-28 57t-48 38t-73.5 23.5t-99 11.5t-130 3.5z" glyph-name="Thorn" horiz-adv-x="1308" unicode="Þ"/><glyph d="M737 1561q262 0 361.5 -93.5t60.5 -337.5q-27 -154 -80 -238.5t-149 -107.5l-2 -6q213 -39 155 -368q-37 -246 -173 -333t-398 -87q-53 0 -152 8q-35 4 -20 35l49 112q12 27 37 27h123q162 0 238.5 50t99.5 196q27 162 -39 217t-215 55h-141q-33 0 -27 31l18 104 q4 31 37 31h137q125 0 200 50t99 204q25 162 -30.5 215t-216.5 53q-143 0 -206 -57t-91 -238l-168 -1052q-2 -31 -35 -31h-137q-31 0 -27 31l166 1036q45 287 156.5 390.5t369.5 103.5z" glyph-name="germandbls" horiz-adv-x="1218" unicode="ß"/><glyph d="M408 1554h180q18 0 22 -12l111 -248q10 -16 -10 -28l-45 -27q-18 -14 -29 0l-244 252q-8 8 -8 29v14q0 20 23 20zM573 1130q242 0 341.5 -76.5t72.5 -244.5l-115 -717q-4 -43 -47 -57q-129 -45 -463 -45q-215 0 -294.5 66.5t-49.5 262.5q29 176 129.5 246t284.5 70l330 2 l22 137q14 96 -40 140t-197 44h-307q-18 0 -23.5 6.5t-3.5 24.5l16 84q4 27 33 33q147 24 311 24zM737 477h-325q-88 0 -135.5 -34.5t-61.5 -118.5q-16 -98 31 -132t178 -34q168 0 266 24z" glyph-name="agrave" horiz-adv-x="1093" unicode="à"/><glyph d="M739 1554h183q18 0 18 -20v-10q0 -14 -16 -29l-334 -256q-14 -12 -29 0l-35 27q-12 12 -2 28l189 248q8 12 26 12zM573 1130q242 0 341.5 -76.5t72.5 -244.5l-115 -717q-4 -43 -47 -57q-129 -45 -463 -45q-215 0 -294.5 66.5t-49.5 262.5q29 176 129.5 246t284.5 70 l330 2l22 137q14 96 -40 140t-197 44h-307q-18 0 -23.5 6.5t-3.5 24.5l16 84q4 27 33 33q147 24 311 24zM737 477h-325q-88 0 -135.5 -34.5t-61.5 -118.5q-16 -98 31 -132t178 -34q168 0 266 24z" glyph-name="aacute" horiz-adv-x="1093" unicode="á"/><glyph d="M618 1554h89q23 0 32 -14l142 -248q12 -14 -11 -28l-41 -25q-16 -10 -30 0l-162 150l-211 -150q-16 -12 -31 0l-30 25q-16 14 -3 28l220 248q18 14 36 14zM573 1130q242 0 341.5 -76.5t72.5 -244.5l-115 -717q-4 -43 -47 -57q-129 -45 -463 -45q-215 0 -294.5 66.5 t-49.5 262.5q29 176 129.5 246t284.5 70l330 2l22 137q14 96 -40 140t-197 44h-307q-18 0 -23.5 6.5t-3.5 24.5l16 84q4 27 33 33q147 24 311 24zM737 477h-325q-88 0 -135.5 -34.5t-61.5 -118.5q-16 -98 31 -132t178 -34q168 0 266 24z" glyph-name="acircumflex" horiz-adv-x="1093" unicode="â"/><glyph d="M793 1270q-49 0 -141.5 41t-125.5 41q-37 0 -58.5 -14.5t-45.5 -55.5q-16 -29 -41 -20l-45 12q-29 12 -14 45q53 119 98 158t123 39q49 0 140 -41t124 -41q37 0 58.5 14t45.5 55q18 31 43 23l45 -13q29 -12 15 -47q-55 -117 -100 -156.5t-121 -39.5zM573 1130 q242 0 341.5 -76.5t72.5 -244.5l-115 -717q-4 -43 -47 -57q-129 -45 -463 -45q-215 0 -294.5 66.5t-49.5 262.5q29 176 129.5 246t284.5 70l330 2l22 137q14 96 -40 140t-197 44h-307q-18 0 -23.5 6.5t-3.5 24.5l16 84q4 27 33 33q147 24 311 24zM737 477h-325 q-88 0 -135.5 -34.5t-61.5 -118.5q-16 -98 31 -132t178 -34q168 0 266 24z" glyph-name="atilde" horiz-adv-x="1093" unicode="ã"/><glyph d="M494 1513q123 0 104 -120q-23 -125 -143 -125q-127 0 -109 125q19 120 148 120zM874 1513q125 0 107 -120q-18 -125 -145 -125q-125 0 -107 125q18 120 145 120zM573 1130q242 0 341.5 -76.5t72.5 -244.5l-115 -717q-4 -43 -47 -57q-129 -45 -463 -45q-215 0 -294.5 66.5 t-49.5 262.5q29 176 129.5 246t284.5 70l330 2l22 137q14 96 -40 140t-197 44h-307q-18 0 -23.5 6.5t-3.5 24.5l16 84q4 27 33 33q147 24 311 24zM737 477h-325q-88 0 -135.5 -34.5t-61.5 -118.5q-16 -98 31 -132t178 -34q168 0 266 24z" glyph-name="adieresis" horiz-adv-x="1093" unicode="ä"/><glyph d="M670 1657q213 0 182 -209t-250 -209q-217 0 -186 209q35 209 254 209zM655 1575q-129 0 -147.5 -127t106.5 -127q129 0 147.5 127t-106.5 127zM573 1130q242 0 341.5 -76.5t72.5 -244.5l-115 -717q-4 -43 -47 -57q-129 -45 -463 -45q-215 0 -294.5 66.5t-49.5 262.5 q29 176 129.5 246t284.5 70l330 2l22 137q14 96 -40 140t-197 44h-307q-18 0 -23.5 6.5t-3.5 24.5l16 84q4 27 33 33q147 24 311 24zM737 477h-325q-88 0 -135.5 -34.5t-61.5 -118.5q-16 -98 31 -132t178 -34q168 0 266 24z" glyph-name="aring" horiz-adv-x="1093" unicode="å"/><glyph d="M1307 1130q274 0 346.5 -107.5t23.5 -432.5l-10 -60q-4 -33 -19.5 -45t-62.5 -12h-651q-25 -188 17 -249.5t206 -61.5h336q31 0 27 -31l-15 -90q-4 -29 -35 -33q-135 -18 -346 -18q-96 0 -192 23.5t-139 60.5q-170 -84 -431 -84q-215 0 -294.5 64.5t-51.5 252.5l2 27 q29 166 128.5 233.5t283.5 67.5l330 2l22 137q16 96 -39 140t-198 44h-305q-18 0 -23.5 6.5t-3.5 24.5l14 84q4 27 33 33q150 25 313 24q266 0 359 -100q111 100 375 100zM1280 958q-166 0 -226.5 -63.5t-97.5 -261.5h531q29 197 -10 261t-197 64zM737 477h-319 q-119 0 -154 -29.5t-51 -125.5l-2 -13q-14 -98 30 -123.5t162 -25.5q221 0 334 49q-27 92 0 268z" glyph-name="ae" horiz-adv-x="1771" unicode="æ"/><glyph d="M659 1130q176 0 308 -18q33 -4 22 -35l-14 -88q-4 -31 -35 -31h-309q-180 0 -241.5 -75.5t-100.5 -323.5q-43 -238 -4 -317.5t221 -79.5h307q31 0 29 -31l-15 -88q-6 -33 -36 -35q-119 -14 -254 -18q8 -117 -2 -174q-14 -88 -64.5 -122t-148.5 -34q-82 0 -121 16 q-20 8 -19 37l13 70q2 31 34 31h74q57 0 77.5 11t29.5 52q4 39 2 115q-250 8 -310.5 122.5t-9.5 444.5q29 180 62.5 283.5t99 172t158.5 92t247 23.5z" glyph-name="ccedilla" horiz-adv-x="991" unicode="ç"/><glyph d="M422 1554h182q18 0 23 -12l110 -248q10 -16 -10 -28l-45 -27q-18 -12 -29 0l-245 252q-8 8 -9 29v14q0 20 23 20zM649 1130q274 0 347 -107.5t26 -432.5l-10 -60q-4 -33 -20.5 -45t-61.5 -12h-654q-25 -188 18.5 -249.5t207.5 -61.5h336q31 0 26 -31l-16 -90 q-4 -29 -35 -33q-135 -18 -344 -18q-197 0 -285 46t-111.5 173t19.5 350q55 346 163.5 458.5t393.5 112.5zM623 958q-164 0 -225.5 -64.5t-96.5 -260.5h528q29 197 -9.5 261t-196.5 64z" glyph-name="egrave" horiz-adv-x="1114" unicode="è"/><glyph d="M811 1554h180q18 0 19 -20v-10q0 -14 -17 -29l-331 -256q-14 -12 -29 0l-37 27q-12 12 -2 28l190 248q11 12 27 12zM649 1130q274 0 347 -107.5t26 -432.5l-10 -60q-4 -33 -20.5 -45t-61.5 -12h-654q-25 -188 18.5 -249.5t207.5 -61.5h336q31 0 26 -31l-16 -90 q-4 -29 -35 -33q-135 -18 -344 -18q-197 0 -285 46t-111.5 173t19.5 350q55 346 163.5 458.5t393.5 112.5zM623 958q-164 0 -225.5 -64.5t-96.5 -260.5h528q29 197 -9.5 261t-196.5 64z" glyph-name="eacute" horiz-adv-x="1114" unicode="é"/><glyph d="M670 1554h88q25 0 30 -14l144 -248q12 -14 -12 -28l-41 -25q-14 -12 -29 0l-162 150l-211 -150q-16 -10 -31 0l-32 25q-14 14 -2 28l221 248q14 14 37 14zM649 1130q274 0 347 -107.5t26 -432.5l-10 -60q-4 -33 -20.5 -45t-61.5 -12h-654q-25 -188 18.5 -249.5 t207.5 -61.5h336q31 0 26 -31l-16 -90q-4 -29 -35 -33q-135 -18 -344 -18q-197 0 -285 46t-111.5 173t19.5 350q55 346 163.5 458.5t393.5 112.5zM623 958q-164 0 -225.5 -64.5t-96.5 -260.5h528q29 197 -9.5 261t-196.5 64z" glyph-name="ecircumflex" horiz-adv-x="1114" unicode="ê"/><glyph d="M518 1513q123 0 105 -120q-18 -125 -144 -125q-127 0 -108 125q18 120 147 120zM899 1513q125 0 107 -120q-18 -125 -146 -125q-125 0 -106 125q20 120 145 120zM649 1130q274 0 347 -107.5t26 -432.5l-10 -60q-4 -33 -20.5 -45t-61.5 -12h-654q-25 -188 18.5 -249.5 t207.5 -61.5h336q31 0 26 -31l-16 -90q-4 -29 -35 -33q-135 -18 -344 -18q-197 0 -285 46t-111.5 173t19.5 350q55 346 163.5 458.5t393.5 112.5zM623 958q-164 0 -225.5 -64.5t-96.5 -260.5h528q29 197 -9.5 261t-196.5 64z" glyph-name="edieresis" horiz-adv-x="1114" unicode="ë"/><glyph d="M119 1554h182q18 0 23 -12l108 -248q10 -16 -10 -28l-45 -27q-18 -14 -29 0l-244 252q-8 8 -8 29v14q0 20 23 20zM248 1120h135q31 0 27 -30l-168 -1059q-4 -31 -35 -31h-135q-31 0 -27 31l168 1059q4 30 35 30z" glyph-name="igrave" horiz-adv-x="481" unicode="ì"/><glyph d="M465 1554h182q16 0 17 -20v-10q0 -14 -17 -29l-332 -256q-14 -12 -28 0l-37 27q-12 12 0 28l188 248q9 12 27 12zM248 1120h135q31 0 27 -30l-168 -1059q-4 -31 -35 -31h-135q-31 0 -27 31l168 1059q4 30 35 30z" glyph-name="iacute" horiz-adv-x="481" unicode="í"/><glyph d="M338 1554h88q25 0 31 -14l143 -248q12 -14 -12 -28l-41 -25q-14 -12 -29 0l-162 150l-211 -150q-16 -10 -30 0l-33 25q-14 14 -2 28l221 248q14 14 37 14zM248 1120h135q31 0 27 -30l-168 -1059q-4 -31 -35 -31h-135q-31 0 -27 31l168 1059q4 30 35 30z" glyph-name="icircumflex" horiz-adv-x="481" unicode="î"/><glyph d="M186 1513q123 0 105 -120q-18 -125 -144 -125q-127 0 -108 125q20 120 147 120zM567 1513q125 0 107 -120q-18 -125 -146 -125q-125 0 -106 125q20 120 145 120zM248 1120h135q31 0 27 -30l-168 -1059q-4 -31 -35 -31h-135q-31 0 -27 31l168 1059q4 30 35 30z" glyph-name="idieresis" horiz-adv-x="481" unicode="ï"/><glyph d="M565 1548h148q27 0 35 -20l40 -103l191 66q31 12 35 -18l12 -54q6 -29 -25 -39l-165 -57l198 -463q41 -86 0 -354q-49 -309 -158.5 -412.5t-400.5 -103.5q-289 0 -364.5 103.5t-28.5 412.5q49 307 157.5 410.5t391.5 103.5q74 0 127 -6l-109 246l-188 -64q-31 -12 -35 18 l-12 54q-6 29 24 39l166 57l-65 147q-15 37 26 37zM612.5 850q-178.5 0 -239 -66.5t-94.5 -277.5q-33 -209 7 -276.5t218 -67.5t239.5 67.5t94 276.5t-7 276.5t-218 67.5z" glyph-name="eth" horiz-adv-x="1159" unicode="ð"/><glyph d="M850 1270q-49 0 -140.5 41t-123.5 41q-39 0 -59.5 -14.5t-45.5 -55.5q-18 -29 -43 -20l-45 12q-29 12 -14 45q53 117 98 157t123 40q49 0 141.5 -41t124.5 -41q37 0 57.5 14t45.5 55q18 31 43 23l45 -13q29 -12 14 -47q-53 -117 -98 -156.5t-123 -39.5zM674 1130 q100 0 162.5 -5t119 -22.5t83 -49t43 -86t13.5 -130t-22 -186.5l-98 -620q-4 -31 -39 -31h-131q-31 0 -27 31l96 604q14 94 14.5 153.5t-8 95.5t-42 51t-67.5 19t-103 4h-281l-147 -927q-2 -31 -35 -31h-135q-29 0 -27 31l164 1034q2 12 7 19.5t10 9.5t18 4q178 32 432 32z " glyph-name="ntilde" unicode="ñ"/><glyph d="M426 1554h182q18 0 23 -12l110 -248q6 -16 -12 -28l-45 -27q-18 -14 -29 0l-243 252q-8 8 -9 29v14q0 20 23 20zM659 1130q123 0 200 -16t127 -52t68.5 -105.5t15.5 -162t-26 -235.5q-29 -180 -62.5 -283.5t-99 -171t-157.5 -91t-246 -23.5q-293 0 -367.5 111.5 t-19.5 457.5q29 180 63.5 283.5t99 172t157.5 92t247 23.5zM633 958q-182 0 -243.5 -75.5t-100.5 -323.5q-43 -238 -4 -317.5t221 -79.5q96 0 152.5 15.5t94.5 65.5t56 118.5t39 197.5q45 240 5 319.5t-220 79.5z" glyph-name="ograve" horiz-adv-x="1167" unicode="ò"/><glyph d="M825 1554h181q18 0 18 -20v-10q0 -14 -16 -29l-332 -256q-14 -12 -29 0l-37 27q-12 12 -2 28l191 248q8 12 26 12zM659 1130q123 0 200 -16t127 -52t68.5 -105.5t15.5 -162t-26 -235.5q-29 -180 -62.5 -283.5t-99 -171t-157.5 -91t-246 -23.5q-293 0 -367.5 111.5 t-19.5 457.5q29 180 63.5 283.5t99 172t157.5 92t247 23.5zM633 958q-182 0 -243.5 -75.5t-100.5 -323.5q-43 -238 -4 -317.5t221 -79.5q96 0 152.5 15.5t94.5 65.5t56 118.5t39 197.5q45 240 5 319.5t-220 79.5z" glyph-name="oacute" horiz-adv-x="1167" unicode="ó"/><glyph d="M682 1554h88q25 0 33 -14l141 -248q12 -14 -10 -28l-41 -25q-16 -10 -31 0l-162 150l-211 -150q-14 -12 -30 0l-31 25q-16 14 -2 28l221 248q15 14 35 14zM659 1130q123 0 200 -16t127 -52t68.5 -105.5t15.5 -162t-26 -235.5q-29 -180 -62.5 -283.5t-99 -171t-157.5 -91 t-246 -23.5q-293 0 -367.5 111.5t-19.5 457.5q29 180 63.5 283.5t99 172t157.5 92t247 23.5zM633 958q-182 0 -243.5 -75.5t-100.5 -323.5q-43 -238 -4 -317.5t221 -79.5q96 0 152.5 15.5t94.5 65.5t56 118.5t39 197.5q45 240 5 319.5t-220 79.5z" glyph-name="ocircumflex" horiz-adv-x="1167" unicode="ô"/><glyph d="M825 1270q-49 0 -140 41t-124 41q-39 0 -59.5 -14.5t-44.5 -55.5q-18 -29 -43 -20l-45 12q-29 12 -15 45q55 119 99.5 158t121.5 39q49 0 141.5 -41t125.5 -41q37 0 58.5 14t45.5 55q16 31 41 23l45 -13q29 -12 15 -47q-53 -117 -98.5 -156.5t-123.5 -39.5zM659 1130 q123 0 200 -16t127 -52t68.5 -105.5t15.5 -162t-26 -235.5q-29 -180 -62.5 -283.5t-99 -171t-157.5 -91t-246 -23.5q-293 0 -367.5 111.5t-19.5 457.5q29 180 63.5 283.5t99 172t157.5 92t247 23.5zM633 958q-182 0 -243.5 -75.5t-100.5 -323.5q-43 -238 -4 -317.5 t221 -79.5q96 0 152.5 15.5t94.5 65.5t56 118.5t39 197.5q45 240 5 319.5t-220 79.5z" glyph-name="otilde" horiz-adv-x="1167" unicode="õ"/><glyph d="M530 1513q123 0 105 -120q-18 -125 -143 -125q-127 0 -109 125q20 120 147 120zM911 1513q125 0 107 -120q-18 -125 -145.5 -125t-104.5 125q18 120 143 120zM659 1130q123 0 200 -16t127 -52t68.5 -105.5t15.5 -162t-26 -235.5q-29 -180 -62.5 -283.5t-99 -171 t-157.5 -91t-246 -23.5q-293 0 -367.5 111.5t-19.5 457.5q29 180 63.5 283.5t99 172t157.5 92t247 23.5zM633 958q-182 0 -243.5 -75.5t-100.5 -323.5q-43 -238 -4 -317.5t221 -79.5q96 0 152.5 15.5t94.5 65.5t56 118.5t39 197.5q45 240 5 319.5t-220 79.5z" glyph-name="odieresis" horiz-adv-x="1167" unicode="ö"/><glyph d="M651 1077q121 0 103 -116q-18 -121 -140 -121q-125 0 -102 121q16 116 139 116zM137 721h910q33 0 26 -31l-18 -123q-2 -31 -35 -30h-911q-31 0 -27 30l20 123q6 31 35 31zM547 416q117 0 102 -117q-23 -121 -141 -121q-121 0 -102 121q18 117 141 117z" glyph-name="divide" horiz-adv-x="1161" unicode="÷"/><glyph d="M1044 559q-29 -180 -62.5 -283.5t-99 -171t-157.5 -91t-246 -23.5q-199 0 -286 43l-48 -53q-25 -29 -43 -7l-61 47q-23 16 -2 41l59 68q-55 115 -6 430q29 180 63.5 283.5t99 172t158 92t246.5 23.5q176 0 269 -34l37 45q27 27 45 8l61 -47q25 -16 0 -43l-39 -47 q67 -115 12 -453zM633 958q-182 0 -243.5 -75.5t-100.5 -323.5q-25 -170 -21 -231l523 608q-52 22 -158 22zM868 821l-540 -626q53 -33 178 -33q96 0 152.5 15.5t94.5 65.5t56 118.5t39 197.5q32 188 20 262z" glyph-name="oslash" horiz-adv-x="1167" unicode="ø"/><glyph d="M510 1554h182q18 0 23 -12l110 -248q10 -16 -10 -28l-45 -27q-18 -12 -29 0l-245 252q-8 8 -9 29v14q0 20 23 20zM975 1120h135q31 0 25 -30l-164 -1037q-4 -25 -35 -30q-178 -33 -432 -33q-100 0 -162.5 5t-119 23.5t-83 49t-43 86t-13.5 131t21 186.5l99 619 q6 31 39 30h131q29 0 26 -30l-96 -605q-12 -78 -16 -132t5 -90t21.5 -56.5t45 -30.5t63.5 -12t88 -2h281l147 928q6 30 37 30z" glyph-name="ugrave" unicode="ù"/><glyph d="M807 1554h180q18 0 19 -20v-10q0 -14 -17 -29l-332 -256q-14 -12 -28 0l-37 27q-12 12 -2 28l190 248q11 12 27 12zM975 1120h135q31 0 25 -30l-164 -1037q-4 -25 -35 -30q-178 -33 -432 -33q-100 0 -162.5 5t-119 23.5t-83 49t-43 86t-13.5 131t21 186.5l99 619 q6 31 39 30h131q29 0 26 -30l-96 -605q-12 -78 -16 -132t5 -90t21.5 -56.5t45 -30.5t63.5 -12t88 -2h281l147 928q6 30 37 30z" glyph-name="uacute" unicode="ú"/><glyph d="M696 1554h88q23 0 31 -14l143 -248q12 -14 -12 -28l-39 -25q-16 -10 -30 0l-162 150l-211 -150q-16 -10 -31 0l-33 25q-14 14 -2 28l221 248q14 14 37 14zM975 1120h135q31 0 25 -30l-164 -1037q-4 -25 -35 -30q-178 -33 -432 -33q-100 0 -162.5 5t-119 23.5t-83 49 t-43 86t-13.5 131t21 186.5l99 619q6 31 39 30h131q29 0 26 -30l-96 -605q-12 -78 -16 -132t5 -90t21.5 -56.5t45 -30.5t63.5 -12t88 -2h281l147 928q6 30 37 30z" glyph-name="ucircumflex" unicode="û"/><glyph d="M545 1513q123 0 104 -120q-18 -125 -143 -125q-127 0 -109 125q21 120 148 120zM926 1513q125 0 106 -120q-18 -125 -145 -125q-125 0 -107 125q21 120 146 120zM975 1120h135q31 0 25 -30l-164 -1037q-4 -25 -35 -30q-178 -33 -432 -33q-100 0 -162.5 5t-119 23.5 t-83 49t-43 86t-13.5 131t21 186.5l99 619q6 31 39 30h131q29 0 26 -30l-96 -605q-12 -78 -16 -132t5 -90t21.5 -56.5t45 -30.5t63.5 -12t88 -2h281l147 928q6 30 37 30z" glyph-name="udieresis" unicode="ü"/><glyph d="M793 1554h182q16 0 16 -20v-10q0 -14 -16 -29l-332 -256q-14 -12 -29 0l-36 27q-12 12 0 28l188 248q9 12 27 12zM977 1120h135q31 0 27 -30l-156 -988q-35 -211 -88 -316t-160.5 -153.5t-306.5 -48.5q-176 0 -307 19q-29 4 -23 32l15 89q2 31 34 30h304 q170 0 233.5 49.5t85.5 190.5v12q-102 -16 -272 -16q-287 0 -361 111.5t-20 447.5l86 541q2 31 35 30h135q29 0 26 -30l-84 -529q-43 -240 -3 -319.5t225 -79.5q145 0 260 14l145 914q4 30 35 30z" glyph-name="yacute" horiz-adv-x="1210" unicode="ý"/><glyph d="M317 1548h136q31 0 26 -30l-63 -402q106 14 274 14q287 0 359.5 -114.5t17.5 -458.5q-29 -178 -63.5 -281.5t-100 -171t-159 -91t-246.5 -23.5q-152 0 -260 12l-60 -377q-2 -31 -35 -31h-135q-29 0 -26 31l301 1893q3 30 34 30zM651 958h-262l-123 -780q131 -16 260 -16 q96 0 153.5 16.5t95.5 66.5t56.5 118.5t38.5 195.5q43 242 4 320.5t-223 78.5z" glyph-name="thorn" horiz-adv-x="1189" unicode="þ"/><glyph d="M567 1513q123 0 105 -120q-23 -125 -144 -125q-127 0 -108 125q18 120 147 120zM948 1513q125 0 107 -120q-23 -125 -146 -125q-125 0 -106 125q18 120 145 120zM977 1120h135q31 0 27 -30l-156 -988q-35 -211 -88 -316t-160.5 -153.5t-306.5 -48.5q-176 0 -307 19 q-29 4 -23 32l15 89q2 31 34 30h304q170 0 233.5 49.5t85.5 190.5v12q-102 -16 -272 -16q-287 0 -361 111.5t-20 447.5l86 541q2 31 35 30h135q29 0 26 -30l-84 -529q-43 -240 -3 -319.5t225 -79.5q145 0 260 14l145 914q4 30 35 30z" glyph-name="ydieresis" horiz-adv-x="1210" unicode="ÿ"/><glyph d="M614 1855h527q31 0 26 -30l-14 -84q-2 -31 -35 -31h-528q-29 0 -27 31l15 84q5 30 36 30zM831 1561q156 0 199 -40t62 -200l145 -1288q2 -20 -3 -26.5t-26 -6.5h-159q-14 0 -17.5 6t-5.5 27l-55 452h-617l-200 -452q-8 -20 -13.5 -26.5t-19.5 -6.5h-160q-18 0 -22.5 6 t4.5 27l567 1288q70 158 124 199t197 41zM803 1380q-43 0 -58.5 -17t-48.5 -91l-262 -606h518l-65 606q-10 76 -21.5 92t-62.5 16z" glyph-name="Amacron" horiz-adv-x="1382" unicode="Ā"/><glyph d="M412 1446h526q31 0 25 -31l-13 -84q-4 -31 -35 -31h-528q-31 0 -27 31l15 84q6 31 37 31zM573 1130q242 0 341.5 -76.5t72.5 -244.5l-115 -717q-4 -43 -47 -57q-129 -45 -463 -45q-215 0 -294.5 66.5t-49.5 262.5q29 176 129.5 246t284.5 70l330 2l22 137q14 96 -40 140 t-197 44h-307q-18 0 -23.5 6.5t-3.5 24.5l16 84q4 27 33 33q147 24 311 24zM737 477h-325q-88 0 -135.5 -34.5t-61.5 -118.5q-16 -98 31 -132t178 -34q168 0 266 24z" glyph-name="amacron" horiz-adv-x="1093" unicode="ā"/><glyph d="M1106 1946h68q33 0 22 -33q-45 -141 -117.5 -193.5t-228.5 -52.5t-213 52.5t-59 193.5q0 33 34 33h68q25 0 31 -25q14 -66 49 -90.5t110.5 -24.5t117.5 24.5t79 90.5q10 25 39 25zM831 1561q156 0 199 -40t62 -200l145 -1288q2 -20 -3 -26.5t-26 -6.5h-159q-14 0 -17.5 6 t-5.5 27l-55 452h-617l-200 -452q-8 -20 -13.5 -26.5t-19.5 -6.5h-160q-18 0 -22.5 6t4.5 27l567 1288q70 158 124 199t197 41zM803 1380q-43 0 -58.5 -17t-48.5 -91l-262 -606h518l-65 606q-10 76 -21.5 92t-62.5 16z" glyph-name="Abreve" horiz-adv-x="1382" unicode="Ă"/><glyph d="M897 1536h66q20 0 24 -7t-2 -26q-45 -141 -117.5 -193.5t-228.5 -52.5t-212 52.5t-58 193.5q0 33 34 33h66q25 0 31 -25q16 -66 50 -90t109.5 -24t117.5 24.5t81 89.5q10 25 39 25zM573 1130q242 0 341.5 -76.5t72.5 -244.5l-115 -717q-4 -43 -47 -57q-129 -45 -463 -45 q-215 0 -294.5 66.5t-49.5 262.5q29 176 129.5 246t284.5 70l330 2l22 137q14 96 -40 140t-197 44h-307q-18 0 -23.5 6.5t-3.5 24.5l16 84q4 27 33 33q147 24 311 24zM737 477h-325q-88 0 -135.5 -34.5t-61.5 -118.5q-16 -98 31 -132t178 -34q168 0 266 24z" glyph-name="abreve" horiz-adv-x="1093" unicode="ă"/><glyph d="M831 1561q156 0 199 -40t62 -200l145 -1288q-2 -20 -7 -26.5t-24 -6.5h-69q-33 -82 -39 -123q-8 -43 9 -53t75 -10h73q31 0 27 -31l-12 -70q-4 -29 -31 -37q-39 -16 -125 -16q-98 0 -137 34t-25 122q16 106 74 207l-55 462h-617l-200 -452q-8 -20 -13.5 -26.5t-19.5 -6.5 h-160q-18 0 -22.5 6t4.5 27l567 1288q70 158 124 199t197 41zM803 1380q-43 0 -58.5 -17t-48.5 -91l-262 -606h518l-65 606q-10 76 -21.5 92t-62.5 16z" glyph-name="Aogonek" horiz-adv-x="1382" unicode="Ą"/><glyph d="M573 1130q242 0 341.5 -76.5t72.5 -244.5l-115 -717q-4 -43 -47 -57q-51 -16 -147 -29q-33 -94 -39 -129q-8 -41 10.5 -52t75.5 -11h74q33 0 26 -31l-12 -70q-6 -29 -31 -37q-39 -16 -125 -16q-98 0 -138 34t-25 122q14 82 57 180q-86 -6 -189 -6q-215 0 -294.5 66.5 t-49.5 262.5q29 176 129.5 246t284.5 70l330 2l22 137q14 96 -40 140t-197 44h-307q-18 0 -23.5 6.5t-3.5 24.5l16 84q4 27 33 33q147 24 311 24zM737 477h-325q-88 0 -135.5 -34.5t-61.5 -118.5q-16 -98 31 -132t178 -34q168 0 266 24z" glyph-name="aogonek" horiz-adv-x="1093" unicode="ą"/><glyph d="M1016 1964h182q18 0 19 -20v-11q0 -14 -17 -28l-334 -256q-14 -12 -28 0l-35 26q-12 12 -2 29l188 248q11 12 27 12zM885 1561q236 0 379 -21q31 -4 24 -35l-14 -96q-6 -31 -35 -31h-383q-135 0 -219 -26.5t-141.5 -101t-89 -182t-60.5 -294.5q-63 -350 -1.5 -476 t321.5 -126h381q31 0 24 -31l-14 -96q-2 -31 -39 -37q-131 -18 -383 -18q-254 0 -373 68.5t-149.5 242.5t24.5 473q72 461 223.5 624t524.5 163z" glyph-name="Cacute" horiz-adv-x="1222" unicode="Ć"/><glyph d="M805 1554h180q18 0 19 -20v-10q0 -14 -17 -29l-332 -256q-14 -12 -28 0l-37 27q-12 12 -2 28l190 248q9 12 27 12zM659 1130q176 0 308 -18q33 -4 22 -35l-14 -88q-4 -31 -35 -31h-309q-180 0 -241.5 -75.5t-100.5 -323.5q-43 -238 -4 -317.5t221 -79.5h307q31 0 29 -31 l-15 -88q-6 -33 -36 -35q-135 -18 -314 -18q-295 0 -367.5 111.5t-17.5 457.5q29 180 62.5 283.5t99 172t158.5 92t247 23.5z" glyph-name="cacute" horiz-adv-x="991" unicode="ć"/><glyph d="M891 1964h86q27 0 33 -14l141 -248q12 -14 -10 -29l-41 -24q-14 -12 -29 0l-164 149l-211 -149q-14 -12 -28 0l-33 24q-14 14 -2 29l221 248q14 14 37 14zM885 1561q236 0 379 -21q31 -4 24 -35l-14 -96q-6 -31 -35 -31h-383q-135 0 -219 -26.5t-141.5 -101t-89 -182 t-60.5 -294.5q-63 -350 -1.5 -476t321.5 -126h381q31 0 24 -31l-14 -96q-2 -31 -39 -37q-131 -18 -383 -18q-254 0 -373 68.5t-149.5 242.5t24.5 473q72 461 223.5 624t524.5 163z" glyph-name="Ccircumflex" horiz-adv-x="1222" unicode="Ĉ"/><glyph d="M651 1554h88q27 0 33 -14l141 -248q12 -14 -10 -28l-41 -25q-16 -10 -31 0l-161 150l-211 -150q-16 -12 -31 0l-31 25q-16 14 -2 28l221 248q15 14 35 14zM659 1130q176 0 308 -18q33 -4 22 -35l-14 -88q-4 -31 -35 -31h-309q-180 0 -241.5 -75.5t-100.5 -323.5 q-43 -238 -4 -317.5t221 -79.5h307q31 0 29 -31l-15 -88q-6 -33 -36 -35q-135 -18 -314 -18q-295 0 -367.5 111.5t-17.5 457.5q29 180 62.5 283.5t99 172t158.5 92t247 23.5z" glyph-name="ccircumflex" horiz-adv-x="991" unicode="ĉ"/><glyph d="M934 1925q125 0 106 -123q-20 -125 -145 -125q-127 0 -109 125q21 123 148 123zM885 1561q236 0 379 -21q31 -4 24 -35l-14 -96q-6 -31 -35 -31h-383q-135 0 -219 -26.5t-141.5 -101t-89 -182t-60.5 -294.5q-63 -350 -1.5 -476t321.5 -126h381q31 0 24 -31l-14 -96 q-2 -31 -39 -37q-131 -18 -383 -18q-254 0 -373 68.5t-149.5 242.5t24.5 473q72 461 223.5 624t524.5 163z" glyph-name="Cdotaccent" horiz-adv-x="1222" unicode="Ċ"/><glyph d="M643 1516q125 0 107 -123q-18 -125 -145.5 -125t-108.5 125q20 123 147 123zM659 1130q176 0 308 -18q33 -4 22 -35l-14 -88q-4 -31 -35 -31h-309q-180 0 -241.5 -75.5t-100.5 -323.5q-43 -238 -4 -317.5t221 -79.5h307q31 0 29 -31l-15 -88q-6 -33 -36 -35 q-135 -18 -314 -18q-295 0 -367.5 111.5t-17.5 457.5q29 180 62.5 283.5t99 172t158.5 92t247 23.5z" glyph-name="cdotaccent" horiz-adv-x="991" unicode="ċ"/><glyph d="M1147 1958l31 -25q16 -14 2 -28l-222 -248q-14 -14 -34 -15h-88q-25 0 -33 15l-141 248q-12 14 10 28l41 25q16 10 30 0l162 -150l211 150q15 12 31 0zM885 1561q236 0 379 -21q31 -4 24 -35l-14 -96q-6 -31 -35 -31h-383q-135 0 -219 -26.5t-141.5 -101t-89 -182 t-60.5 -294.5q-63 -350 -1.5 -476t321.5 -126h381q31 0 24 -31l-14 -96q-2 -31 -39 -37q-131 -18 -383 -18q-254 0 -373 68.5t-149.5 242.5t24.5 473q72 461 223.5 624t524.5 163z" glyph-name="Ccaron" horiz-adv-x="1222" unicode="Č"/><glyph d="M928 1548l33 -24q14 -14 2 -29l-222 -248q-14 -14 -36 -14h-89q-23 0 -30 14l-144 248q-12 14 13 29l39 24q16 10 30 0l162 -149l211 149q17 10 31 0zM659 1130q176 0 308 -18q33 -4 22 -35l-14 -88q-4 -31 -35 -31h-309q-180 0 -241.5 -75.5t-100.5 -323.5 q-43 -238 -4 -317.5t221 -79.5h307q31 0 29 -31l-15 -88q-6 -33 -36 -35q-135 -18 -314 -18q-295 0 -367.5 111.5t-17.5 457.5q29 180 62.5 283.5t99 172t158.5 92t247 23.5z" glyph-name="ccaron" horiz-adv-x="991" unicode="č"/><glyph d="M1116 1958l33 -25q14 -14 2 -30l-221 -246q-16 -16 -37 -17h-86q-25 0 -33 17l-141 246q-10 16 10 30l41 25q14 10 31 0l162 -152l210 152q15 12 29 0zM905 1561q344 0 461 -183.5t51 -601.5q-66 -420 -242 -603t-520 -183q-358 0 -561 14q-18 2 -22 7t-2 22l233 1483 q4 29 35 30q207 15 567 15zM848 1378h-359l-190 -1206h387q231 0 351 141.5t171 462.5q55 348 -24.5 475t-335.5 127z" glyph-name="Dcaron" horiz-adv-x="1505" unicode="Ď"/><glyph d="M1018 1548h135q31 0 27 -30l-232 -1461q-2 -29 -37 -32q-223 -35 -432 -35q-295 0 -368.5 111.5t-18.5 455.5q29 178 62.5 282.5t98 173t157 93t239.5 24.5q162 0 271 -14l63 402q6 30 35 30zM1397 1548h164q20 0 18 -20l-2 -15q-2 -12 -14 -24l-244 -256q-10 -14 -29 0 l-30 27q-10 10 -3 28l111 248q6 12 29 12zM895 958h-262q-184 0 -244.5 -74.5t-99.5 -324.5q-45 -236 -5 -316.5t222 -80.5q133 0 264 16z" glyph-name="dcaron" horiz-adv-x="1243" unicode="ď"/><glyph d="M926 1561q344 0 461.5 -183.5t52.5 -601.5q-66 -420 -242 -603t-520 -183q-360 0 -561 14q-18 2 -22.5 7t-2.5 22l105 667h-150q-31 0 -24 31l12 84q2 31 35 31h151l105 670q4 29 34 30q208 15 566 15zM1231 776q25 178 22.5 294t-50.5 184.5t-126 96t-209 27.5h-356 l-84 -532h324q31 0 26 -31l-14 -84q-6 -31 -37 -31h-321l-84 -528h385q233 0 353 140t171 464z" glyph-name="Dcroat" horiz-adv-x="1527" unicode="Đ"/><glyph d="M1159 1395h129q31 0 27 -31l-10 -57q-2 -31 -35 -31h-129l-193 -1219q-2 -29 -37 -32q-223 -35 -432 -35q-295 0 -368.5 111.5t-18.5 455.5q29 178 62.5 282.5t98 173t157 93t239.5 24.5q162 0 271 -14l24 160h-293q-29 0 -26 31l10 57q4 31 35 31h295l18 123q6 31 35 30 h135q31 0 27 -30zM770 178l125 780h-262q-184 0 -244.5 -74.5t-99.5 -324.5q-45 -236 -5 -316.5t222 -80.5q133 0 264 16z" glyph-name="dcroat" horiz-adv-x="1181" unicode="đ"/><glyph d="M592 1855h528q31 0 25 -30l-15 -84q-4 -31 -34 -31h-527q-29 0 -26 31l12 84q6 30 37 30zM340 1550h956q31 0 29 -30l-20 -121q-2 -31 -35 -31h-783l-81 -526h710q31 0 27 -31l-21 -119q-4 -31 -37 -30h-710l-74 -480h780q33 0 27 -30l-21 -121q-2 -31 -34 -31h-959 q-29 0 -26 31l237 1489q2 30 35 30z" glyph-name="Emacron" horiz-adv-x="1284" unicode="Ē"/><glyph d="M432 1446h529q31 0 24 -31l-14 -84q-4 -31 -35 -31h-526q-33 0 -27 31l12 84q6 31 37 31zM649 1130q274 0 347 -107.5t26 -432.5l-10 -60q-4 -33 -20.5 -45t-61.5 -12h-654q-25 -188 18.5 -249.5t207.5 -61.5h336q31 0 26 -31l-16 -90q-4 -29 -35 -33q-135 -18 -344 -18 q-197 0 -285 46t-111.5 173t19.5 350q55 346 163.5 458.5t393.5 112.5zM623 958q-164 0 -225.5 -64.5t-96.5 -260.5h528q29 197 -9.5 261t-196.5 64z" glyph-name="emacron" horiz-adv-x="1114" unicode="ē"/><glyph d="M1085 1946h66q20 0 24.5 -7.5t-1.5 -25.5q-45 -141 -118 -193.5t-228.5 -52.5t-212 52.5t-58.5 193.5q0 33 35 33h65q25 0 31 -25q16 -66 51 -90.5t111 -24.5t117 24.5t80 90.5q9 25 38 25zM340 1550h956q31 0 29 -30l-20 -121q-2 -31 -35 -31h-783l-81 -526h710 q31 0 27 -31l-21 -119q-4 -31 -37 -30h-710l-74 -480h780q33 0 27 -30l-21 -121q-2 -31 -34 -31h-959q-29 0 -26 31l237 1489q2 30 35 30z" glyph-name="Ebreve" horiz-adv-x="1284" unicode="Ĕ"/><glyph d="M934 1536h65q20 0 24.5 -7t0.5 -26q-47 -141 -120 -193.5t-228.5 -52.5t-211.5 52.5t-58 193.5q0 33 34 33h66q25 0 31 -25q16 -66 51 -90t110.5 -24t117.5 24.5t79 89.5q10 25 39 25zM649 1130q274 0 347 -107.5t26 -432.5l-10 -60q-4 -33 -20.5 -45t-61.5 -12h-654 q-25 -188 18.5 -249.5t207.5 -61.5h336q31 0 26 -31l-16 -90q-4 -29 -35 -33q-135 -18 -344 -18q-197 0 -285 46t-111.5 173t19.5 350q55 346 163.5 458.5t393.5 112.5zM623 958q-164 0 -225.5 -64.5t-96.5 -260.5h528q29 197 -9.5 261t-196.5 64z" glyph-name="ebreve" horiz-adv-x="1114" unicode="ĕ"/><glyph d="M868 1925q125 0 107 -123q-20 -125 -146 -125q-127 0 -108 125q18 123 147 123zM340 1550h956q31 0 29 -30l-20 -121q-2 -31 -35 -31h-783l-81 -526h710q31 0 27 -31l-21 -119q-4 -31 -37 -30h-710l-74 -480h780q33 0 27 -30l-21 -121q-2 -31 -34 -31h-959q-29 0 -26 31 l237 1489q2 30 35 30z" glyph-name="Edotaccent" horiz-adv-x="1284" unicode="Ė"/><glyph d="M707 1516q129 0 106 -123q-18 -125 -145 -125t-107 125q19 123 146 123zM649 1130q274 0 347 -107.5t26 -432.5l-10 -60q-4 -33 -20.5 -45t-61.5 -12h-654q-25 -188 18.5 -249.5t207.5 -61.5h336q31 0 26 -31l-16 -90q-4 -29 -35 -33q-135 -18 -344 -18q-197 0 -285 46 t-111.5 173t19.5 350q55 346 163.5 458.5t393.5 112.5zM623 958q-164 0 -225.5 -64.5t-96.5 -260.5h528q29 197 -9.5 261t-196.5 64z" glyph-name="edotaccent" horiz-adv-x="1114" unicode="ė"/><glyph d="M340 1550h956q31 0 29 -30l-20 -121q-2 -31 -35 -31h-783l-81 -526h710q31 0 27 -31l-21 -119q-4 -31 -37 -30h-710l-74 -480h780q33 0 27 -30l-21 -121q-2 -31 -34 -31h-267l-2 -4q-31 -78 -39 -119t10.5 -52t75.5 -11h74q29 0 27 -31l-12 -70q-2 -29 -31 -37 q-39 -16 -125 -16q-98 0 -138 34t-26 122q14 84 59 184h-565q-29 0 -26 31l237 1489q2 30 35 30z" glyph-name="Eogonek" horiz-adv-x="1284" unicode="Ę"/><glyph d="M649 1130q274 0 347 -107.5t26 -432.5l-10 -60q-4 -33 -20.5 -45t-61.5 -12h-654q-25 -188 18.5 -249.5t207.5 -61.5h336q31 0 26 -31l-16 -90q-4 -29 -35 -33q-49 -6 -137 -14q-29 -76 -37 -117t10.5 -52t75.5 -11h74q29 0 26 -31l-12 -70q-2 -29 -31 -37 q-39 -16 -125 -16q-98 0 -138 34t-25 122q16 90 55 174h-80q-197 0 -285 46t-111.5 173t19.5 350q55 346 163.5 458.5t393.5 112.5zM623 958q-164 0 -225.5 -64.5t-96.5 -260.5h528q29 197 -9.5 261t-196.5 64z" glyph-name="eogonek" horiz-adv-x="1114" unicode="ę"/><glyph d="M1090 1958l32 -25q14 -14 2 -28l-221 -248q-14 -14 -37 -15h-88q-25 0 -30 15l-142 248q-12 14 10 28l41 25q14 12 29 0l164 -150l211 150q15 12 29 0zM340 1550h956q31 0 29 -30l-20 -121q-2 -31 -35 -31h-783l-81 -526h710q31 0 27 -31l-21 -119q-4 -31 -37 -30h-710 l-74 -480h780q33 0 27 -30l-21 -121q-2 -31 -34 -31h-959q-29 0 -26 31l237 1489q2 30 35 30z" glyph-name="Ecaron" horiz-adv-x="1284" unicode="Ě"/><glyph d="M930 1548l33 -24q14 -14 2 -29l-222 -248q-14 -14 -36 -14h-89q-25 0 -30 14l-142 248q-14 14 11 29l41 24q14 12 28 0l162 -149l211 149q17 10 31 0zM649 1130q274 0 347 -107.5t26 -432.5l-10 -60q-4 -33 -20.5 -45t-61.5 -12h-654q-25 -188 18.5 -249.5t207.5 -61.5 h336q31 0 26 -31l-16 -90q-4 -29 -35 -33q-135 -18 -344 -18q-197 0 -285 46t-111.5 173t19.5 350q55 346 163.5 458.5t393.5 112.5zM623 958q-164 0 -225.5 -64.5t-96.5 -260.5h528q29 197 -9.5 261t-196.5 64z" glyph-name="ecaron" horiz-adv-x="1114" unicode="ě"/><glyph d="M879 1964h88q25 0 32 -14l142 -248q12 -14 -11 -29l-40 -24q-16 -12 -31 0l-162 149l-211 -149q-14 -10 -31 0l-30 24q-16 14 -2 29l221 248q15 14 35 14zM885 1561q248 0 391 -21q31 -4 24 -35l-14 -96q-6 -31 -35 -31h-395q-135 0 -219 -26.5t-141.5 -102t-89 -183.5 t-62.5 -294q-57 -360 2.5 -480t319.5 -120h311l90 561q4 33 35 33h133q31 0 27 -33l-97 -610q-4 -25 -14 -41q-25 -43 -126 -64.5t-180 -24.5t-210 -3q-193 0 -302.5 36.5t-170 127t-59.5 241t32 377.5q37 238 86 382t137 239.5t211 131.5t316 36z" glyph-name="Gcircumflex" horiz-adv-x="1353" unicode="Ĝ"/><glyph d="M694 1554h88q25 0 33 -14l141 -248q12 -14 -10 -28l-41 -25q-16 -12 -31 0l-161 150l-211 -150q-14 -10 -31 0l-31 25q-16 14 -2 28l221 248q15 14 35 14zM664 1130q260 0 415 -34q35 -4 29 -35l-152 -959q-35 -211 -88 -316t-160.5 -153.5t-306.5 -48.5q-160 0 -295 19 q-27 4 -20 32l14 89q2 31 33 30h291q170 0 233.5 49.5t85.5 190.5v12q-102 -16 -272 -16q-287 0 -359.5 112.5t-17.5 460.5q53 342 165 454.5t405 112.5zM895 958h-262q-182 0 -243.5 -74.5t-100.5 -322.5q-43 -240 -3 -319.5t224 -79.5q145 0 260 14z" glyph-name="gcircumflex" horiz-adv-x="1181" unicode="ĝ"/><glyph d="M1137 1946h65q20 0 24.5 -7.5t-1.5 -25.5q-45 -141 -118 -193.5t-228.5 -52.5t-212 52.5t-58.5 193.5q0 33 35 33h66q25 0 30 -25q16 -66 51 -90.5t111 -24.5t117 24.5t80 90.5q10 25 39 25zM885 1561q248 0 391 -21q31 -4 24 -35l-14 -96q-6 -31 -35 -31h-395 q-135 0 -219 -26.5t-141.5 -102t-89 -183.5t-62.5 -294q-57 -360 2.5 -480t319.5 -120h311l90 561q4 33 35 33h133q31 0 27 -33l-97 -610q-4 -25 -14 -41q-25 -43 -126 -64.5t-180 -24.5t-210 -3q-193 0 -302.5 36.5t-170 127t-59.5 241t32 377.5q37 238 86 382t137 239.5 t211 131.5t316 36z" glyph-name="Gbreve" horiz-adv-x="1353" unicode="Ğ"/><glyph d="M950 1536h66q20 0 24 -7t-2 -26q-45 -141 -117.5 -193.5t-228 -52.5t-212 52.5t-58.5 193.5q0 33 35 33h65q25 0 31 -25q16 -66 51 -90t111 -24t116.5 24.5t79.5 89.5q10 25 39 25zM664 1130q260 0 415 -34q35 -4 29 -35l-152 -959q-35 -211 -88 -316t-160.5 -153.5 t-306.5 -48.5q-160 0 -295 19q-27 4 -20 32l14 89q2 31 33 30h291q170 0 233.5 49.5t85.5 190.5v12q-102 -16 -272 -16q-287 0 -359.5 112.5t-17.5 460.5q53 342 165 454.5t405 112.5zM895 958h-262q-182 0 -243.5 -74.5t-100.5 -322.5q-43 -240 -3 -319.5t224 -79.5 q145 0 260 14z" glyph-name="gbreve" horiz-adv-x="1181" unicode="ğ"/><glyph d="M942 1925q125 0 107 -123q-20 -125 -146 -125q-129 0 -108 125q18 123 147 123zM885 1561q248 0 391 -21q31 -4 24 -35l-14 -96q-6 -31 -35 -31h-395q-135 0 -219 -26.5t-141.5 -102t-89 -183.5t-62.5 -294q-57 -360 2.5 -480t319.5 -120h311l90 561q4 33 35 33h133 q31 0 27 -33l-97 -610q-4 -25 -14 -41q-25 -43 -126 -64.5t-180 -24.5t-210 -3q-193 0 -302.5 36.5t-170 127t-59.5 241t32 377.5q37 238 86 382t137 239.5t211 131.5t316 36z" glyph-name="Gdotaccent" horiz-adv-x="1353" unicode="Ġ"/><glyph d="M733 1516q125 0 107 -123q-20 -125 -146 -125q-127 0 -108 125q20 123 147 123zM664 1130q260 0 415 -34q35 -4 29 -35l-152 -959q-35 -211 -88 -316t-160.5 -153.5t-306.5 -48.5q-160 0 -295 19q-27 4 -20 32l14 89q2 31 33 30h291q170 0 233.5 49.5t85.5 190.5v12 q-102 -16 -272 -16q-287 0 -359.5 112.5t-17.5 460.5q53 342 165 454.5t405 112.5zM895 958h-262q-182 0 -243.5 -74.5t-100.5 -322.5q-43 -240 -3 -319.5t224 -79.5q145 0 260 14z" glyph-name="gdotaccent" horiz-adv-x="1181" unicode="ġ"/><glyph d="M885 1561q248 0 391 -21q31 -4 24 -35l-14 -96q-6 -31 -35 -31h-395q-135 0 -219 -26.5t-141.5 -102t-89 -183.5t-62.5 -294q-57 -360 2.5 -480t319.5 -120h311l90 561q4 33 35 33h133q31 0 27 -33l-97 -610q-4 -25 -14 -41q-25 -43 -126 -64.5t-180 -24.5t-210 -3 q-193 0 -302.5 36.5t-170 127t-59.5 241t32 377.5q37 238 86 382t137 239.5t211 131.5t316 36zM496 -80h157q14 0 15 -20v-11q0 -16 -15 -28l-305 -252q-14 -10 -29 0l-32 26q-14 12 -2 29l184 244q11 12 27 12z" glyph-name="Gcommaaccent" horiz-adv-x="1353" unicode="Ģ"/><glyph d="M944 1550l35 -26q12 -12 2 -29l-182 -244q-8 -12 -27 -12h-176q-18 0 -18 21v10q0 16 16 28l321 252q15 12 29 0zM664 1130q260 0 415 -34q35 -4 29 -35l-152 -959q-35 -211 -88 -316t-160.5 -153.5t-306.5 -48.5q-160 0 -295 19q-27 4 -20 32l14 89q2 31 33 30h291 q170 0 233.5 49.5t85.5 190.5v12q-102 -16 -272 -16q-287 0 -359.5 112.5t-17.5 460.5q53 342 165 454.5t405 112.5zM895 958h-262q-182 0 -243.5 -74.5t-100.5 -322.5q-43 -240 -3 -319.5t224 -79.5q145 0 260 14z" glyph-name="gcommaaccent" horiz-adv-x="1181" unicode="ģ"/><glyph d="M975 1964h88q27 0 33 -14l141 -248q12 -14 -10 -29l-41 -24q-16 -10 -31 0l-162 149l-211 -149q-16 -12 -30 0l-31 24q-16 14 -2 29l221 248q15 14 35 14zM1378 1550h148q29 0 26 -32l-237 -1487q-4 -31 -35 -31h-145q-29 0 -27 31l104 665h-831l-105 -665 q-6 -31 -36 -31h-146q-29 0 -26 31l237 1487q2 33 35 32h145q29 0 27 -32l-102 -639h833l100 639q2 32 35 32z" glyph-name="Hcircumflex" horiz-adv-x="1581" unicode="Ĥ"/><glyph d="M391 1929h88q23 0 33 -16l141 -246q8 -14 -10 -31l-41 -22q-18 -12 -31 0l-161 149l-211 -149q-14 -12 -31 0l-31 22q-20 12 -2 31l221 246q10 16 35 16zM315 1548h136q29 0 26 -30l-63 -398q102 10 262 10q100 0 162.5 -5t119 -22.5t83 -49t43 -86t13.5 -130t-22 -186.5 l-98 -620q-2 -31 -35 -31h-135q-29 0 -27 31l97 604q14 94 14 153.5t-8.5 95.5t-42 52t-67.5 20.5t-103 4.5h-281l-147 -930q-4 -31 -35 -31h-135q-31 0 -27 31l236 1487q1 30 34 30z" glyph-name="hcircumflex" horiz-adv-x="1208" unicode="ĥ"/><glyph d="M1532 1350h86q29 0 27 -31l-13 -76q-6 -31 -37 -31h-86l-186 -1181q-2 -31 -35 -31h-147q-31 0 -27 31l107 665h-834l-104 -665q-2 -31 -35 -31h-148q-31 0 -24 31l186 1181h-88q-31 0 -24 31l12 76q2 31 35 31h88l26 168q2 33 35 32h148q29 0 26 -32l-26 -168h831 l27 168q2 33 34 32h146q29 0 27 -32zM1249 879l54 333h-832l-53 -333h831z" glyph-name="Hbar" horiz-adv-x="1591" unicode="Ħ"/><glyph d="M676 1130q100 0 162.5 -5t119 -22.5t83 -49t43 -86t13.5 -130t-22 -186.5l-98 -620q-2 -31 -35 -31h-135q-29 0 -27 31l97 604q14 94 14 153.5t-8.5 95.5t-42 52t-67.5 20.5t-103 4.5h-281l-147 -930q-4 -31 -35 -31h-135q-31 0 -27 31l197 1245h-127q-29 0 -27 31l10 57 q6 31 35 31h127l21 123q2 31 34 30h136q29 0 26 -30l-20 -123h297q29 0 26 -31l-10 -57q-6 -31 -37 -31h-295l-24 -156q102 10 262 10z" glyph-name="hbar" horiz-adv-x="1208" unicode="ħ"/><glyph d="M575 1679q-49 0 -140 41t-124 41q-39 0 -59.5 -14t-44.5 -55q-18 -29 -43 -21l-45 12q-29 12 -15 46q55 119 99.5 157.5t122.5 38.5q49 0 141 -41t125 -41q37 0 58.5 14.5t45.5 55.5q16 31 41 22l45 -12q29 -12 15 -47q-53 -117 -98.5 -157t-123.5 -40zM340 1550h147 q29 0 27 -32l-238 -1487q-2 -31 -34 -31h-146q-31 0 -26 31l235 1487q2 32 35 32z" glyph-name="Itilde" horiz-adv-x="542" unicode="Ĩ"/><glyph d="M481 1270q-49 0 -140 41t-124 41q-39 0 -59.5 -14.5t-44.5 -55.5q-18 -29 -43 -20l-45 12q-29 12 -15 45q53 117 98.5 157t122.5 40q49 0 141.5 -41t125.5 -41q37 0 57 14t45 55q18 31 43 23l45 -13q29 -12 14 -47q-53 -117 -98 -156.5t-123 -39.5zM248 1120h135 q31 0 27 -30l-168 -1059q-4 -31 -35 -31h-135q-31 0 -27 31l168 1059q4 30 35 30z" glyph-name="itilde" horiz-adv-x="481" unicode="ĩ"/><glyph d="M195 1855h528q31 0 25 -30l-15 -84q-4 -31 -35 -31h-526q-29 0 -27 31l13 84q6 30 37 30zM340 1550h147q29 0 27 -32l-238 -1487q-2 -31 -34 -31h-146q-31 0 -26 31l235 1487q2 32 35 32z" glyph-name="Imacron" horiz-adv-x="542" unicode="Ī"/><glyph d="M100 1446h529q31 0 24 -31l-14 -84q-4 -31 -35 -31h-526q-33 0 -27 31l12 84q6 31 37 31zM248 1120h135q31 0 27 -30l-168 -1059q-4 -31 -35 -31h-135q-31 0 -27 31l168 1059q4 30 35 30z" glyph-name="imacron" horiz-adv-x="481" unicode="ī"/><glyph d="M340 1550h147q29 0 27 -32l-238 -1487q-6 -31 -34 -31h-56q-31 -82 -39 -123q-6 -43 11.5 -53t74.5 -10h74q33 0 27 -31l-12 -70q-6 -29 -31 -37q-39 -16 -125 -16q-98 0 -137 34t-27 122q16 84 64 190l239 1512q6 32 35 32z" glyph-name="Iogonek" horiz-adv-x="542" unicode="Į"/><glyph d="M375 1516q127 0 104 -123q-18 -125 -145 -125t-107 125q19 123 148 123zM246 1120h135q29 0 27 -30l-168 -1059q-2 -31 -35 -31h-45q-33 -84 -37 -123q-8 -43 9.5 -53t74.5 -10h74q31 0 26 -31l-12 -70q-4 -29 -31 -37q-39 -16 -125 -16q-98 0 -137 34t-25 122 q12 76 62 188l172 1086q2 30 35 30z" glyph-name="iogonek" horiz-adv-x="481" unicode="į"/><glyph d="M471 1925q125 0 107 -123q-20 -125 -146 -125q-127 0 -108 125q18 123 147 123zM340 1550h147q29 0 27 -32l-238 -1487q-2 -31 -34 -31h-146q-31 0 -26 31l235 1487q2 32 35 32z" glyph-name="Idotaccent" horiz-adv-x="542" unicode="İ"/><glyph d="M248 1120h135q31 0 27 -30l-168 -1059q-4 -31 -35 -31h-135q-31 0 -27 31l168 1059q4 30 35 30z" glyph-name="dotlessi" horiz-adv-x="481" unicode="ı"/><glyph d="M340 1550h147q29 0 27 -32l-238 -1487q-2 -31 -34 -31h-146q-31 0 -26 31l235 1487q2 32 35 32zM983 1550h686q31 0 27 -30l-117 -748q-37 -233 -88 -377.5t-141 -239t-217 -130t-324 -35.5q-174 0 -305 18q-29 6 -25 37l15 96q6 31 36 31h310q270 0 372.5 121t157.5 479 l94 596h-510q-29 0 -26 31l18 121q4 30 37 30z" glyph-name="IJ" horiz-adv-x="1710" unicode="Ĳ"/><glyph d="M387 1567q121 0 102 -119q-18 -121 -139 -121t-102 121q16 119 139 119zM248 1120h135q31 0 27 -30l-168 -1059q-4 -31 -35 -31h-135q-31 0 -27 31l168 1059q4 30 35 30zM874 1567q121 0 103 -119q-18 -121 -139 -121q-125 0 -103 121q16 119 139 119zM735 1120h135 q31 0 27 -30l-211 -1332q-10 -57 -34.5 -95t-63.5 -53.5t-72 -19.5t-82 -4q-78 0 -110 8q-27 6 -25 33l16 103q2 29 39 28h45q63 0 79 14.5t26 73.5l196 1244q4 30 35 30z" glyph-name="ij" horiz-adv-x="968" unicode="ĳ"/><glyph d="M803 1964h88q27 0 33 -14l141 -248q12 -14 -10 -29l-41 -24q-16 -10 -31 0l-162 149l-211 -149q-16 -12 -30 0l-31 24q-16 14 -2 29l221 248q15 14 35 14zM426 1550h686q31 0 27 -30l-117 -748q-37 -233 -88 -377.5t-141.5 -239t-217 -130t-323.5 -35.5q-174 0 -305 18 q-29 6 -25 37l15 96q6 31 36 31h310q270 0 372.5 121t157.5 479l94 596h-510q-29 0 -26 31l18 121q4 30 37 30z" glyph-name="Jcircumflex" horiz-adv-x="1153" unicode="Ĵ"/><glyph d="M344 1554h88q23 0 31 -14l141 -248q12 -16 -10 -28l-41 -25q-14 -12 -29 0l-162 150l-212 -150q-14 -12 -29 0l-33 25q-14 14 -2 28l221 248q14 14 37 14zM254 1120h135q29 0 27 -30l-211 -1332q-10 -57 -35 -95t-63.5 -53.5t-71.5 -19.5t-82 -4q-78 0 -111 8 q-27 6 -24 33l16 103q2 29 39 28h45q63 0 78.5 14.5t26.5 73.5l196 1244q2 30 35 30z" glyph-name="jcircumflex" horiz-adv-x="487" unicode="ĵ"/><glyph d="M1161 1550h166q27 0 29 -11t-17 -28l-716 -680l530 -776q14 -18 5 -36.5t-48 -18.5h-160q-27 0 -41 23l-512 761l-121 -753q-2 -31 -34 -31h-148q-29 0 -26 31l237 1489q2 31 35 30h145q31 0 27 -30l-102 -643l706 653q20 20 45 20zM471 -80h158q14 0 14 -20v-11 q0 -16 -14 -28l-305 -252q-14 -10 -29 0l-33 26q-14 12 -2 29l184 244q11 12 27 12z" glyph-name="Kcommaaccent" horiz-adv-x="1263" unicode="Ķ"/><glyph d="M315 1548h136q31 0 26 -32l-127 -793l398 377q20 20 45 20h172q27 0 28.5 -11t-16.5 -28l-428 -401l383 -625q14 -18 5 -36.5t-48 -18.5h-144q-27 0 -40 23l-367 610l-94 -600q-6 -33 -37 -33h-135q-31 0 -25 33l234 1483q3 32 34 32zM369 -80h157q14 0 15 -20v-11 q0 -16 -15 -28l-307 -252q-14 -10 -29 0l-32 26q-14 12 -2 29l186 244q11 12 27 12z" glyph-name="kcommaaccent" horiz-adv-x="1030" unicode="ķ"/><glyph d="M899 1120h168q45 0 4 -41l-512 -504l397 -540q29 -41 -26 -41h-185q-27 0 -40 20l-375 500l-78 -483q-2 -31 -35 -31h-147q-29 0 -27 31l170 1059q4 31 35 30h145q29 0 27 -30l-76 -484l506 492q22 22 49 22z" glyph-name="kgreenlandic" horiz-adv-x="1079" unicode="ĸ"/><glyph d="M606 1964h180q18 0 19 -20v-11q0 -14 -17 -28l-331 -256q-14 -12 -29 0l-37 26q-12 12 -2 29l191 248q10 12 26 12zM340 1550h145q31 0 27 -30l-211 -1338h743q31 0 25 -30l-20 -121q-4 -31 -35 -31h-920q-29 0 -26 31l237 1489q2 30 35 30z" glyph-name="Lacute" horiz-adv-x="1169" unicode="Ĺ"/><glyph d="M543 1964h182q18 0 18 -20v-11q0 -14 -16 -28l-334 -256q-14 -12 -28 0l-35 26q-12 12 -2 29l188 248q9 12 27 12zM315 1550h136q29 0 26 -30l-235 -1489q-4 -31 -35 -31h-135q-31 0 -27 31l236 1489q1 30 34 30z" glyph-name="lacute" horiz-adv-x="481" unicode="ĺ"/><glyph d="M340 1550h145q31 0 27 -30l-211 -1338h743q31 0 25 -30l-20 -121q-4 -31 -35 -31h-920q-29 0 -26 31l237 1489q2 30 35 30zM457 -80h157q14 0 15 -20v-11q0 -16 -15 -28l-307 -252q-14 -10 -28 0l-33 26q-14 12 -2 29l186 244q9 12 27 12z" glyph-name="Lcommaaccent" horiz-adv-x="1169" unicode="Ļ"/><glyph d="M315 1550h136q29 0 26 -30l-235 -1489q-4 -31 -35 -31h-135q-31 0 -27 31l236 1489q1 30 34 30zM51 -80h158q14 0 14 -20v-11q0 -16 -14 -28l-305 -252q-14 -10 -29 0l-35 26q-14 12 -2 29l187 244q8 12 26 12z" glyph-name="lcommaaccent" horiz-adv-x="481" unicode="ļ"/><glyph d="M340 1550h145q31 0 27 -30l-211 -1338h743q31 0 25 -30l-20 -121q-4 -31 -35 -31h-920q-29 0 -26 31l237 1489q2 30 35 30zM887 1550h180q18 0 18 -20v-10q0 -14 -16 -29l-332 -258q-14 -12 -28 0l-37 29q-12 12 -2 28l190 248q9 12 27 12z" glyph-name="Lcaron" horiz-adv-x="1157" unicode="Ľ"/><glyph d="M315 1550h136q29 0 26 -30l-235 -1489q-6 -31 -37 -31h-133q-31 0 -27 31l236 1489q1 30 34 30zM666 1548h165q20 0 19 -20l-4 -15q0 -12 -12 -24l-244 -256q-10 -14 -29 0l-33 27q-10 10 -2 28l113 248q7 12 27 12z" glyph-name="lcaron" horiz-adv-x="540" unicode="ľ"/><glyph d="M340 1550h145q31 0 27 -30l-211 -1338h743q31 0 25 -30l-20 -121q-4 -31 -35 -31h-920q-29 0 -26 31l237 1489q2 30 35 30zM752 702q119 0 118.5 -118.5t-118.5 -118.5q-123 0 -123 118.5t123 118.5z" glyph-name="Ldot" horiz-adv-x="1169" unicode="Ŀ"/><glyph d="M315 1550h136q29 0 26 -30l-235 -1489q-6 -31 -37 -31h-133q-31 0 -27 31l236 1489q1 30 34 30zM594 811q127 0 104 -123q-18 -125 -145 -125q-129 0 -107 125q19 123 148 123z" glyph-name="ldot" horiz-adv-x="653" unicode="ŀ"/><glyph d="M334 182h743q31 0 25 -30l-21 -121q-4 -31 -34 -31h-920q-29 0 -27 31l88 549l-143 -76q-25 -16 -37 12l-24 59q-10 25 12 37l215 115l127 793q2 31 35 30h145q31 0 27 -30l-107 -674l240 127q33 14 43 -10l22 -60q12 -27 -18 -41l-309 -164z" glyph-name="Lslash" horiz-adv-x="1202" unicode="Ł"/><glyph d="M354 1550h135q31 0 27 -30l-102 -652l106 60q35 16 43 -10l25 -60q12 -25 -19 -41l-180 -96l-108 -690q-6 -31 -37 -31h-133q-29 0 -27 31l92 579l-100 -53q-33 -20 -37 12l-25 60q-10 25 17 41l168 88l120 762q4 30 35 30z" glyph-name="lslash" horiz-adv-x="575" unicode="ł"/><glyph d="M1022 1964h182q18 0 19 -20v-11q0 -14 -17 -28l-334 -256q-14 -12 -28 0l-35 26q-12 12 -2 29l188 248q9 12 27 12zM1376 1550h146q29 0 26 -32l-235 -1487q-6 -31 -37 -31h-125q-45 0 -66 37l-614 1218l-195 -1224q-6 -31 -36 -31h-146q-29 0 -26 31l237 1487 q2 33 35 32h139q53 -2 71.5 -12t37.5 -47l569 -1129l184 1156q2 32 35 32z" glyph-name="Nacute" horiz-adv-x="1576" unicode="Ń"/><glyph d="M776 1554h182q16 0 17 -20v-10q0 -14 -17 -29l-331 -256q-14 -12 -29 0l-37 27q-12 12 0 28l189 248q8 12 26 12zM674 1130q100 0 162.5 -5t119 -22.5t83 -49t43 -86t13.5 -130t-22 -186.5l-98 -620q-4 -31 -39 -31h-131q-31 0 -27 31l96 604q14 94 14.5 153.5t-8 95.5 t-42 51t-67.5 19t-103 4h-281l-147 -927q-2 -31 -35 -31h-135q-29 0 -27 31l164 1034q2 12 7 19.5t10 9.5t18 4q178 32 432 32z" glyph-name="nacute" unicode="ń"/><glyph d="M1376 1550h146q29 0 26 -32l-235 -1487q-6 -31 -37 -31h-125q-45 0 -66 37l-614 1218l-195 -1224q-6 -31 -36 -31h-146q-29 0 -26 31l237 1487q2 33 35 32h139q53 -2 71.5 -12t37.5 -47l569 -1129l184 1156q2 32 35 32zM633 -80h158q14 0 14 -20v-11q0 -16 -14 -28 l-306 -252q-14 -10 -28 0l-35 26q-14 12 -2 29l186 244q9 12 27 12z" glyph-name="Ncommaaccent" horiz-adv-x="1576" unicode="Ņ"/><glyph d="M674 1130q100 0 162.5 -5t119 -22.5t83 -49t43 -86t13.5 -130t-22 -186.5l-98 -620q-4 -31 -39 -31h-131q-31 0 -27 31l96 604q14 94 14.5 153.5t-8 95.5t-42 51t-67.5 19t-103 4h-281l-147 -927q-2 -31 -35 -31h-135q-29 0 -27 31l164 1034q2 12 7 19.5t10 9.5t18 4 q178 32 432 32zM414 -80h157q14 0 15 -20v-11q0 -16 -15 -28l-307 -252q-14 -10 -28 0l-33 26q-14 12 -2 29l186 244q11 12 27 12z" glyph-name="ncommaaccent" unicode="ņ"/><glyph d="M1212 1958l33 -25q14 -14 2 -28l-221 -248q-14 -14 -37 -15h-86q-27 0 -33 15l-141 248q-12 14 10 28l41 25q14 10 31 0l162 -150l211 150q14 12 28 0zM1376 1550h146q29 0 26 -32l-235 -1487q-6 -31 -37 -31h-125q-45 0 -66 37l-614 1218l-195 -1224q-6 -31 -36 -31 h-146q-29 0 -26 31l237 1487q2 33 35 32h139q53 -2 71.5 -12t37.5 -47l569 -1129l184 1156q2 32 35 32z" glyph-name="Ncaron" horiz-adv-x="1576" unicode="Ň"/><glyph d="M967 1548l32 -24q14 -14 2 -29l-221 -248q-14 -14 -37 -14h-88q-25 0 -30 14l-142 248q-12 16 11 29l41 24q14 12 28 0l162 -149l213 149q15 12 29 0zM674 1130q100 0 162.5 -5t119 -22.5t83 -49t43 -86t13.5 -130t-22 -186.5l-98 -620q-4 -31 -39 -31h-131q-31 0 -27 31 l96 604q14 94 14.5 153.5t-8 95.5t-42 51t-67.5 19t-103 4h-281l-147 -927q-2 -31 -35 -31h-135q-29 0 -27 31l164 1034q2 12 7 19.5t10 9.5t18 4q178 32 432 32z" glyph-name="ncaron" unicode="ň"/><glyph d="M289 1554h182q18 0 18 -20v-10q0 -14 -16 -29l-332 -256q-14 -12 -28 0l-37 27q-12 12 -2 28l188 248q11 12 27 12zM674 1130q100 0 162.5 -5t119 -22.5t83 -49t43 -86t13.5 -130t-22 -186.5l-98 -620q-4 -31 -39 -31h-131q-31 0 -27 31l96 604q14 94 14.5 153.5t-8 95.5 t-42 51t-67.5 19t-103 4h-281l-147 -927q-2 -31 -35 -31h-135q-29 0 -27 31l164 1034q2 12 7 19.5t10 9.5t18 4q178 32 432 32z" glyph-name="napostrophe" unicode="ŉ"/><glyph d="M1376 1550h146q29 0 26 -32l-182 -1149q-27 -166 -48.5 -269.5t-57 -201t-79.5 -149.5t-113 -93t-159 -55.5t-217 -14.5q-102 0 -200 17q-31 6 -25 37l14 98q6 31 37 31h195q197 0 283.5 60t107.5 218l-633 1208l-195 -1224q-6 -31 -36 -31h-146q-29 0 -26 31l237 1487 q2 33 35 32h139q53 -2 71.5 -12t37.5 -47l569 -1129l184 1156q2 32 35 32z" glyph-name="Eng" horiz-adv-x="1576" unicode="Ŋ"/><glyph d="M674 1130q100 0 162.5 -5t119 -22.5t83 -49t43 -86t13.5 -130t-22 -186.5l-141 -893q-10 -57 -35 -95t-63.5 -53.5t-71.5 -19.5t-82 -4q-80 0 -109 8q-29 6 -26 33l18 103q2 29 37 28h45q63 0 78.5 13.5t26.5 74.5l124 789q14 94 14.5 153.5t-8 95.5t-42 51t-67.5 19 t-103 4h-281l-147 -927q-2 -31 -35 -31h-135q-29 0 -27 31l164 1034q2 12 7 19.5t10 9.5t18 4q178 32 432 32z" glyph-name="eng" unicode="ŋ"/><glyph d="M668 1855h528q31 0 25 -30l-15 -84q-2 -31 -35 -31h-528q-29 0 -27 31l15 84q6 30 37 30zM885 1561q371 0 472 -165t27 -624q-37 -236 -87 -379t-137 -237.5t-210 -130t-315 -35.5q-254 0 -373 68.5t-150.5 242.5t23.5 471q37 236 87 380t137 239.5t211.5 132.5t314.5 37 zM856 1378q-135 0 -219 -26.5t-142.5 -102t-90 -183.5t-62.5 -294q-55 -360 4.5 -480t319.5 -120q135 0 219 26.5t141 100.5t89 180.5t61 292.5q63 352 1.5 479t-321.5 127z" glyph-name="Omacron" horiz-adv-x="1480" unicode="Ō"/><glyph d="M444 1446h529q31 0 24 -31l-14 -84q-4 -31 -35 -31h-526q-29 0 -27 31l15 84q3 31 34 31zM659 1130q123 0 200 -16t127 -52t68.5 -105.5t15.5 -162t-26 -235.5q-29 -180 -62.5 -283.5t-99 -171t-157.5 -91t-246 -23.5q-293 0 -367.5 111.5t-19.5 457.5q29 180 63.5 283.5 t99 172t157.5 92t247 23.5zM633 958q-182 0 -243.5 -75.5t-100.5 -323.5q-43 -238 -4 -317.5t221 -79.5q96 0 152.5 15.5t94.5 65.5t56 118.5t39 197.5q45 240 5 319.5t-220 79.5z" glyph-name="omacron" horiz-adv-x="1167" unicode="ō"/><glyph d="M1159 1946h68q20 0 24 -7.5t-2 -25.5q-45 -141 -117.5 -193.5t-228 -52.5t-213 52.5t-59.5 193.5q0 33 35 33h67q25 0 31 -25q16 -66 50 -90.5t109.5 -24.5t117.5 24.5t79 90.5q14 25 39 25zM885 1561q371 0 472 -165t27 -624q-37 -236 -87 -379t-137 -237.5t-210 -130 t-315 -35.5q-254 0 -373 68.5t-150.5 242.5t23.5 471q37 236 87 380t137 239.5t211.5 132.5t314.5 37zM856 1378q-135 0 -219 -26.5t-142.5 -102t-90 -183.5t-62.5 -294q-55 -360 4.5 -480t319.5 -120q135 0 219 26.5t141 100.5t89 180.5t61 292.5q63 352 1.5 479 t-321.5 127z" glyph-name="Obreve" horiz-adv-x="1480" unicode="Ŏ"/><glyph d="M938 1536h66q20 0 24 -7t-2 -26q-45 -141 -117.5 -193.5t-228.5 -52.5t-212 52.5t-58 193.5q0 33 34 33h66q25 0 31 -25q16 -66 51 -90t110.5 -24t116.5 24.5t80 89.5q10 25 39 25zM659 1130q123 0 200 -16t127 -52t68.5 -105.5t15.5 -162t-26 -235.5 q-29 -180 -62.5 -283.5t-99 -171t-157.5 -91t-246 -23.5q-293 0 -367.5 111.5t-19.5 457.5q29 180 63.5 283.5t99 172t157.5 92t247 23.5zM633 958q-182 0 -243.5 -75.5t-100.5 -323.5q-43 -238 -4 -317.5t221 -79.5q96 0 152.5 15.5t94.5 65.5t56 118.5t39 197.5 q45 240 5 319.5t-220 79.5z" glyph-name="obreve" horiz-adv-x="1167" unicode="ŏ"/><glyph d="M850 1964h164q18 0 18 -20v-11q0 -14 -16 -28l-322 -254q-14 -12 -28 0l-29 24q-12 12 -2 29l188 248q9 12 27 12zM1212 1964h166q16 0 17 -20v-11q0 -14 -17 -28l-321 -254q-14 -12 -29 0l-29 24q-12 12 -2 29l189 248q10 12 26 12zM885 1561q371 0 472 -165t27 -624 q-37 -236 -87 -379t-137 -237.5t-210 -130t-315 -35.5q-254 0 -373 68.5t-150.5 242.5t23.5 471q37 236 87 380t137 239.5t211.5 132.5t314.5 37zM856 1378q-135 0 -219 -26.5t-142.5 -102t-90 -183.5t-62.5 -294q-55 -360 4.5 -480t319.5 -120q135 0 219 26.5t141 100.5 t89 180.5t61 292.5q63 352 1.5 479t-321.5 127z" glyph-name="Ohungarumlaut" horiz-adv-x="1480" unicode="Ő"/><glyph d="M614 1554h166q18 0 19 -20v-10q0 -12 -17 -29l-323 -254q-14 -12 -29 0l-29 25q-12 12 -2 28l189 248q10 12 26 12zM977 1554h166q18 0 18 -20v-10q0 -12 -16 -29l-324 -254q-14 -12 -28 0l-29 25q-12 12 -2 28l188 248q9 12 27 12zM659 1130q123 0 200 -16t127 -52 t68.5 -105.5t15.5 -162t-26 -235.5q-29 -180 -62.5 -283.5t-99 -171t-157.5 -91t-246 -23.5q-293 0 -367.5 111.5t-19.5 457.5q29 180 63.5 283.5t99 172t157.5 92t247 23.5zM633 958q-182 0 -243.5 -75.5t-100.5 -323.5q-43 -238 -4 -317.5t221 -79.5q96 0 152.5 15.5 t94.5 65.5t56 118.5t39 197.5q45 240 5 319.5t-220 79.5z" glyph-name="ohungarumlaut" horiz-adv-x="1167" unicode="ő"/><glyph d="M885 1561l712 -11h557q29 0 27 -30l-20 -121q-2 -31 -35 -31h-778l-84 -526h708q31 0 27 -31l-19 -119q-6 -31 -36 -30h-709l-76 -480h780q31 0 25 -30l-20 -121q-2 -31 -35 -31h-557l-715 -10q-371 -4 -472.5 159.5t-29.5 622.5q37 236 87 381t137 241.5t211.5 132.5 t314.5 34zM1141 1378h-283q-135 0 -219 -26.5t-142.5 -102t-90 -183.5t-62.5 -294q-57 -358 3.5 -479t318.5 -121h284z" glyph-name="OE" horiz-adv-x="2140" unicode="Œ"/><glyph d="M1407 1130q274 0 347 -107.5t24 -432.5l-11 -60q-4 -33 -19 -45t-62 -12h-652q-25 -188 18.5 -249.5t207.5 -61.5h333q29 0 27 -31l-14 -90q-4 -29 -35 -33q-135 -18 -344 -18q-279 0 -353 110q-111 -111 -395 -110q-154 0 -237.5 24.5t-131 89t-43 174t26.5 281.5 q29 180 62.5 283.5t99.5 172t158 92t245 23.5q287 0 361 -110q113 110 387 110zM633 958q-182 0 -242.5 -75.5t-101.5 -323.5q-43 -238 -3 -317.5t220 -79.5q182 0 243.5 75.5t100.5 321.5q43 240 4 319.5t-221 79.5zM1380 958q-164 0 -225 -64.5t-96 -260.5h528 q29 197 -10 261t-197 64z" glyph-name="oe" horiz-adv-x="1871" unicode="œ"/><glyph d="M915 1964h183q18 0 18 -20v-11q0 -14 -16 -28l-334 -256q-14 -12 -29 0l-35 26q-12 12 -2 29l189 248q8 12 26 12zM780 1561q102 0 177 -6.5t140.5 -19.5t107.5 -37.5t72 -61.5t42 -91.5t11 -123t-15 -160.5q-39 -244 -129 -344.5t-281 -124.5l258 -551q10 -16 1 -28.5 t-31 -12.5h-132q-33 0 -47 10t-28 35l-254 535h-307l-86 -549q-4 -18 -11.5 -24.5t-25.5 -6.5h-146q-18 0 -23 6t-3 25l235 1485q4 29 35 30q207 15 440 15zM733 1378h-241l-99 -622h242q96 0 149.5 2t110.5 12t85 28.5t56.5 53.5t43 83t26.5 122q33 207 -39 264t-334 57z " glyph-name="Racute" horiz-adv-x="1351" unicode="Ŕ"/><glyph d="M602 1554h180q18 0 19 -20v-10q0 -14 -17 -29l-331 -256q-14 -12 -29 0l-37 27q-12 12 -2 28l190 248q11 12 27 12zM541 1130q164 0 225 -22q27 -8 25 -35l-15 -86q-4 -33 -37 -29h-178q-104 0 -144 -22.5t-50 -91.5l-129 -813q-6 -31 -37 -31h-133q-31 0 -27 31l135 860 q14 82 54 134t100.5 72.5t105 26.5t105.5 6z" glyph-name="racute" horiz-adv-x="751" unicode="ŕ"/><glyph d="M780 1561q102 0 177 -6.5t140.5 -19.5t107.5 -37.5t72 -61.5t42 -91.5t11 -123t-15 -160.5q-39 -244 -129 -344.5t-281 -124.5l258 -551q10 -16 1 -28.5t-31 -12.5h-132q-33 0 -47 10t-28 35l-254 535h-307l-86 -549q-4 -18 -11.5 -24.5t-25.5 -6.5h-146q-18 0 -23 6 t-3 25l235 1485q4 29 35 30q207 15 440 15zM733 1378h-241l-99 -622h242q96 0 149.5 2t110.5 12t85 28.5t56.5 53.5t43 83t26.5 122q33 207 -39 264t-334 57zM526 -80h158q14 0 14 -20v-11q0 -16 -14 -28l-305 -252q-14 -10 -29 0l-35 26q-14 12 -2 29l187 244q8 12 26 12z " glyph-name="Rcommaaccent" horiz-adv-x="1351" unicode="Ŗ"/><glyph d="M541 1130q164 0 225 -22q27 -8 25 -35l-15 -86q-4 -33 -37 -29h-178q-104 0 -144 -22.5t-50 -91.5l-129 -813q-6 -31 -37 -31h-133q-31 0 -27 31l135 860q14 82 54 134t100.5 72.5t105 26.5t105.5 6zM45 -80h158q14 0 14 -20v-11q0 -16 -14 -28l-305 -252q-14 -10 -29 0 l-35 26q-14 12 -2 29l186 244q11 12 27 12z" glyph-name="rcommaaccent" horiz-adv-x="751" unicode="ŗ"/><glyph d="M1108 1958l31 -25q14 -12 2 -28l-221 -248q-14 -14 -35 -15h-88q-27 0 -33 15l-141 248q-12 14 10 28l41 25q14 12 31 0l161 -150l211 150q15 10 31 0zM780 1561q102 0 177 -6.5t140.5 -19.5t107.5 -37.5t72 -61.5t42 -91.5t11 -123t-15 -160.5q-39 -244 -129 -344.5 t-281 -124.5l258 -551q10 -16 1 -28.5t-31 -12.5h-132q-33 0 -47 10t-28 35l-254 535h-307l-86 -549q-4 -18 -11.5 -24.5t-25.5 -6.5h-146q-18 0 -23 6t-3 25l235 1485q4 29 35 30q207 15 440 15zM733 1378h-241l-99 -622h242q96 0 149.5 2t110.5 12t85 28.5t56.5 53.5 t43 83t26.5 122q33 207 -39 264t-334 57z" glyph-name="Rcaron" horiz-adv-x="1351" unicode="Ř"/><glyph d="M772 1548l31 -24q16 -14 2 -29l-221 -248q-14 -14 -35 -14h-88q-27 0 -33 14l-141 248q-12 14 10 29l41 24q16 10 31 0l161 -149l211 149q17 12 31 0zM541 1130q164 0 225 -22q27 -8 25 -35l-15 -86q-4 -33 -37 -29h-178q-104 0 -144 -22.5t-50 -91.5l-129 -813 q-6 -31 -37 -31h-133q-31 0 -27 31l135 860q14 82 54 134t100.5 72.5t105 26.5t105.5 6z" glyph-name="rcaron" horiz-adv-x="751" unicode="ř"/><glyph d="M897 1964h182q16 0 17 -20v-11q0 -16 -15 -28l-333 -256q-14 -12 -29 0l-35 26q-12 12 -2 29l188 248q11 12 27 12zM795 1561q150 0 395 -31q25 -2 20 -25l-18 -102q-4 -25 -31 -25h-456q-268 0 -297 -182l-7 -35q-12 -82 11.5 -127t109.5 -82l416 -184q125 -55 163 -141 t15 -215l-10 -66q-16 -113 -69.5 -186.5t-139.5 -109.5t-175 -48t-212 -12q-258 0 -496 28q-23 6 -20 31l18 92q6 31 37 31h557q135 0 207 43t86 137l8 39q12 84 -12.5 134t-108.5 87l-454 197q-104 43 -131 129t-8 219l8 49q14 90 54 155.5t91 103.5t128 59.5t150 29 t171 7.5z" glyph-name="Sacute" horiz-adv-x="1232" unicode="Ś"/><glyph d="M670 1554h182q16 0 16 -20v-10q0 -16 -14 -29l-334 -256q-14 -12 -28 0l-35 27q-12 12 -2 28l188 248q9 12 27 12zM600 1130q162 0 309 -18q29 -4 23 -33l-14 -88q-4 -31 -35 -30h-379q-152 0 -170 -107l-4 -27q-14 -96 104 -143l258 -109q84 -33 124 -81t41 -98t-5 -109 l-4 -23q-27 -164 -131.5 -219t-327.5 -55t-371 18q-31 2 -26 31l14 90q2 31 37 31h377q127 0 175 20.5t58 85.5l4 25q6 47 -14 77.5t-84 59.5l-272 111q-182 76 -152 292l8 43q12 82 53.5 135.5t108 78t134 33.5t161.5 9z" glyph-name="sacute" horiz-adv-x="991" unicode="ś"/><glyph d="M780 1964h88q25 0 33 -14l141 -248q12 -14 -10 -29l-41 -24q-16 -12 -30 0l-162 149l-211 -149q-14 -10 -31 0l-31 24q-16 14 -2 29l221 248q15 14 35 14zM795 1561q150 0 395 -31q25 -2 20 -25l-18 -102q-4 -25 -31 -25h-456q-268 0 -297 -182l-7 -35q-12 -82 11.5 -127 t109.5 -82l416 -184q125 -55 163 -141t15 -215l-10 -66q-16 -113 -69.5 -186.5t-139.5 -109.5t-175 -48t-212 -12q-258 0 -496 28q-23 6 -20 31l18 92q6 31 37 31h557q135 0 207 43t86 137l8 39q12 84 -12.5 134t-108.5 87l-454 197q-104 43 -131 129t-8 219l8 49 q14 90 54 155.5t91 103.5t128 59.5t150 29t171 7.5z" glyph-name="Scircumflex" horiz-adv-x="1232" unicode="Ŝ"/><glyph d="M600 1554h88q25 0 33 -14l141 -248q12 -14 -10 -28l-41 -25q-16 -10 -31 0l-162 150l-210 -150q-14 -12 -31 0l-31 25q-16 14 -2 28l221 248q15 14 35 14zM600 1130q162 0 309 -18q29 -4 23 -33l-14 -88q-4 -31 -35 -30h-379q-152 0 -170 -107l-4 -27q-14 -96 104 -143 l258 -109q84 -33 124 -81t41 -98t-5 -109l-4 -23q-27 -164 -131.5 -219t-327.5 -55t-371 18q-31 2 -26 31l14 90q2 31 37 31h377q127 0 175 20.5t58 85.5l4 25q6 47 -14 77.5t-84 59.5l-272 111q-182 76 -152 292l8 43q12 82 53.5 135.5t108 78t134 33.5t161.5 9z" glyph-name="scircumflex" horiz-adv-x="991" unicode="ŝ"/><glyph d="M1190 1530q25 -2 20 -25l-18 -102q-4 -25 -31 -25h-456q-268 0 -297 -182l-7 -35q-12 -82 11.5 -127t109.5 -82l416 -184q125 -55 163 -141t15 -215l-10 -66q-16 -102 -61.5 -173t-119 -108.5t-152.5 -53t-185 -19.5q10 -102 0 -176q-14 -88 -64.5 -122t-148.5 -34 q-82 0 -121 16q-20 8 -18 37l10 70q6 31 35 31h73q57 0 78 11t29 52q6 29 2 113q-238 4 -449 28q-23 6 -20 31l18 92q6 31 37 31h557q135 0 207 43t86 137l8 39q12 84 -12.5 134t-108.5 87l-454 197q-104 43 -131 129t-8 219l8 49q14 90 54 155.5t91 103.5t128 59.5 t149.5 29t171.5 7.5q149 0 395 -31z" glyph-name="Scedilla" horiz-adv-x="1232" unicode="Ş"/><glyph d="M600 1130q162 0 309 -18q29 -4 23 -33l-14 -88q-4 -31 -35 -30h-379q-152 0 -170 -107l-4 -27q-14 -96 104 -143l258 -109q84 -33 124 -81t41 -98t-5 -109l-4 -23q-25 -152 -115 -209t-274 -63q10 -102 0 -176q-14 -88 -64.5 -122t-148.5 -34q-82 0 -121 16q-23 8 -19 37 l13 70q4 31 35 31h71q57 0 78 10t29 53q6 29 2 113q-92 2 -316 18q-31 2 -26 31l14 90q2 31 37 31h377q127 0 175 20.5t58 85.5l4 25q6 47 -14 77.5t-84 59.5l-272 111q-182 76 -152 292l8 43q12 82 53.5 135.5t108 78t134 33.5t161.5 9z" glyph-name="scedilla" horiz-adv-x="991" unicode="ş"/><glyph d="M1065 1958l33 -25q14 -14 2 -28l-221 -248q-14 -14 -37 -15h-88q-25 0 -31 15l-141 248q-12 14 10 28l41 25q14 12 29 0l163 -150l211 150q15 12 29 0zM795 1561q150 0 395 -31q25 -2 20 -25l-18 -102q-4 -25 -31 -25h-456q-268 0 -297 -182l-7 -35q-12 -82 11.5 -127 t109.5 -82l416 -184q125 -55 163 -141t15 -215l-10 -66q-16 -113 -69.5 -186.5t-139.5 -109.5t-175 -48t-212 -12q-258 0 -496 28q-23 6 -20 31l18 92q6 31 37 31h557q135 0 207 43t86 137l8 39q12 84 -12.5 134t-108.5 87l-454 197q-104 43 -131 129t-8 219l8 49 q14 90 54 155.5t91 103.5t128 59.5t150 29t171 7.5z" glyph-name="Scaron" horiz-adv-x="1232" unicode="Š"/><glyph d="M860 1548l33 -24q14 -14 2 -29l-221 -248q-14 -14 -37 -14h-86q-27 0 -33 14l-141 248q-12 14 10 29l41 24q14 10 31 0l162 -149l210 149q15 12 29 0zM600 1130q162 0 309 -18q29 -4 23 -33l-14 -88q-4 -31 -35 -30h-379q-152 0 -170 -107l-4 -27q-14 -96 104 -143 l258 -109q84 -33 124 -81t41 -98t-5 -109l-4 -23q-27 -164 -131.5 -219t-327.5 -55t-371 18q-31 2 -26 31l14 90q2 31 37 31h377q127 0 175 20.5t58 85.5l4 25q6 47 -14 77.5t-84 59.5l-272 111q-182 76 -152 292l8 43q12 82 53.5 135.5t108 78t134 33.5t161.5 9z" glyph-name="scaron" horiz-adv-x="991" unicode="š"/><glyph d="M197 1550h1134q29 0 27 -30l-19 -121q-4 -31 -34 -31h-465l-217 -1364q14 -104 0 -188q-14 -88 -64.5 -122t-148.5 -34q-82 0 -121 16q-23 8 -19 37l13 70q4 31 34 31h74q57 0 76.5 10t28.5 53q4 23 4 123h-54q-29 0 -26 31l213 1337h-465q-29 0 -27 31l21 121 q2 30 35 30z" glyph-name="Tcommaaccent" horiz-adv-x="1245" unicode="Ţ"/><glyph d="M465 1118h217q31 0 27 -31l-17 -96q-4 -31 -35 -30h-217l-108 -689q-10 -68 11.5 -89t102.5 -21h99q31 0 28 -29l-14 -98q-6 -27 -37 -33q-51 -12 -116 -12h-7q8 -117 -2 -174q-12 -88 -62 -122t-151 -34q-82 0 -118 16q-25 8 -19 37l10 70q4 31 35 31h74q57 0 77.5 11 t28.5 52q4 41 2 119q-178 29 -145 227l115 738h-115q-31 0 -27 30l17 96q4 31 35 31h116l37 246q6 27 35 33l139 33q37 10 31 -27z" glyph-name="tcommaaccent" horiz-adv-x="694" unicode="ţ"/><glyph d="M1047 1958l32 -25q14 -14 2 -28l-221 -248q-14 -14 -37 -15h-88q-23 0 -30 15l-142 248q-12 16 10 28l41 25q14 12 29 0l162 -150l211 150q17 10 31 0zM197 1550h1134q29 0 27 -30l-19 -121q-4 -31 -34 -31h-465l-213 -1337q-4 -31 -35 -31h-146q-29 0 -26 31l213 1337 h-465q-29 0 -27 31l21 121q2 30 35 30z" glyph-name="Tcaron" horiz-adv-x="1245" unicode="Ť"/><glyph d="M784 1548h166q20 0 19 -20l-4 -15q0 -12 -13 -24l-241 -252q-14 -14 -31 -2l-33 25q-10 10 -2 28l111 244q5 16 28 16zM342 1397l139 33q37 10 31 -27l-47 -285h217q31 0 27 -31l-17 -96q-4 -31 -35 -30h-217l-108 -689q-10 -68 11.5 -89t102.5 -21h99q31 0 28 -29 l-14 -98q-6 -27 -37 -33q-51 -12 -116 -12q-74 0 -114 5t-91 24.5t-68.5 70.5t-3.5 133l115 738h-115q-31 0 -27 30l17 96q4 31 35 31h116l37 246q6 27 35 33z" glyph-name="tcaron" horiz-adv-x="735" unicode="ť"/><glyph d="M217 1550h1135q29 0 26 -30l-18 -121q-4 -31 -35 -31h-465l-78 -487h330q31 0 27 -31l-13 -82q-6 -31 -34 -31h-332l-113 -706q-4 -31 -35 -31h-145q-29 0 -27 31l113 706h-330q-33 0 -26 31l14 82q2 31 35 31h329l78 487h-465q-29 0 -26 31l20 121q2 30 35 30z" glyph-name="Tbar" horiz-adv-x="1288" unicode="Ŧ"/><glyph d="M467 1118h217q29 0 27 -31l-17 -96q-2 -31 -35 -30h-217l-43 -275h168q31 0 25 -31l-12 -82q-6 -31 -37 -30h-166l-43 -271q-10 -68 11.5 -89t103.5 -21h98q31 0 28 -29l-14 -98q-6 -27 -37 -33q-51 -12 -116 -12q-74 0 -114 5t-91 24.5t-68.5 70.5t-3.5 133l49 320h-69 q-31 0 -25 30l10 82q6 31 37 31h70l43 275h-115q-29 0 -27 30l17 96q2 31 35 31h116l37 246q6 27 35 33l139 33q37 10 31 -27z" glyph-name="tbar" horiz-adv-x="698" unicode="ŧ"/><glyph d="M1071 1679q-49 0 -140 41t-124 41q-39 0 -59.5 -14t-45.5 -55q-18 -29 -43 -21l-45 12q-29 12 -14 46q53 117 98 156.5t123 39.5q49 0 141.5 -41t124.5 -41q37 0 57.5 14.5t45.5 55.5q18 31 43 22l45 -12q29 -12 14 -47q-53 -117 -98 -157t-123 -40zM1337 1550h148 q33 0 26 -30l-118 -748q-39 -244 -88.5 -388t-135.5 -236.5t-204.5 -125t-307.5 -32.5q-152 0 -248 22.5t-160.5 71.5t-89 143.5t-21.5 222.5t34 322l119 748q6 31 35 30h147q33 0 27 -30l-121 -748q-25 -180 -29 -297t35 -184.5t108.5 -93t194.5 -25.5q242 0 340 120 t156 480l119 748q5 30 34 30z" glyph-name="Utilde" horiz-adv-x="1525" unicode="Ũ"/><glyph d="M840 1270q-49 0 -140.5 41t-124.5 41q-39 0 -59 -14.5t-45 -55.5q-18 -29 -43 -20l-45 12q-29 12 -14 45q53 117 98 157t123 40q49 0 141 -41t125 -41q37 0 57.5 14t44.5 55q18 31 43 23l46 -13q29 -12 14 -47q-53 -117 -98 -156.5t-123 -39.5zM975 1120h135q31 0 25 -30 l-164 -1037q-4 -25 -35 -30q-178 -33 -432 -33q-100 0 -162.5 5t-119 23.5t-83 49t-43 86t-13.5 131t21 186.5l99 619q6 31 39 30h131q29 0 26 -30l-96 -605q-12 -78 -16 -132t5 -90t21.5 -56.5t45 -30.5t63.5 -12t88 -2h281l147 928q6 30 37 30z" glyph-name="utilde" unicode="ũ"/><glyph d="M690 1855h529q31 0 24 -30l-14 -84q-4 -31 -35 -31h-526q-33 0 -27 31l12 84q6 30 37 30zM1337 1550h148q33 0 26 -30l-118 -748q-39 -244 -88.5 -388t-135.5 -236.5t-204.5 -125t-307.5 -32.5q-152 0 -248 22.5t-160.5 71.5t-89 143.5t-21.5 222.5t34 322l119 748 q6 31 35 30h147q33 0 27 -30l-121 -748q-25 -180 -29 -297t35 -184.5t108.5 -93t194.5 -25.5q242 0 340 120t156 480l119 748q5 30 34 30z" glyph-name="Umacron" horiz-adv-x="1525" unicode="Ū"/><glyph d="M459 1446h528q31 0 25 -31l-15 -84q-2 -31 -34 -31h-527q-31 0 -26 31l12 84q6 31 37 31zM975 1120h135q31 0 25 -30l-164 -1037q-4 -25 -35 -30q-178 -33 -432 -33q-100 0 -162.5 5t-119 23.5t-83 49t-43 86t-13.5 131t21 186.5l99 619q6 31 39 30h131q29 0 26 -30 l-96 -605q-12 -78 -16 -132t5 -90t21.5 -56.5t45 -30.5t63.5 -12t88 -2h281l147 928q6 30 37 30z" glyph-name="umacron" unicode="ū"/><glyph d="M1184 1946h65q20 0 24.5 -7.5t-1.5 -25.5q-45 -141 -118 -193.5t-228.5 -52.5t-212 52.5t-58.5 193.5q0 33 35 33h66q25 0 30 -25q16 -66 51 -90.5t111 -24.5t117 24.5t80 90.5q10 25 39 25zM1337 1550h148q33 0 26 -30l-118 -748q-39 -244 -88.5 -388t-135.5 -236.5 t-204.5 -125t-307.5 -32.5q-152 0 -248 22.5t-160.5 71.5t-89 143.5t-21.5 222.5t34 322l119 748q6 31 35 30h147q33 0 27 -30l-121 -748q-25 -180 -29 -297t35 -184.5t108.5 -93t194.5 -25.5q242 0 340 120t156 480l119 748q5 30 34 30z" glyph-name="Ubreve" horiz-adv-x="1525" unicode="Ŭ"/><glyph d="M952 1536h66q20 0 24.5 -7t-2.5 -26q-45 -141 -117.5 -193.5t-228 -52.5t-212 52.5t-58.5 193.5q0 33 35 33h65q25 0 31 -25q16 -66 51 -90t111 -24t116.5 24.5t79.5 89.5q10 25 39 25zM975 1120h135q31 0 25 -30l-164 -1037q-4 -25 -35 -30q-178 -33 -432 -33 q-100 0 -162.5 5t-119 23.5t-83 49t-43 86t-13.5 131t21 186.5l99 619q6 31 39 30h131q29 0 26 -30l-96 -605q-12 -78 -16 -132t5 -90t21.5 -56.5t45 -30.5t63.5 -12t88 -2h281l147 928q6 30 37 30z" glyph-name="ubreve" unicode="ŭ"/><glyph d="M989 2064q217 0 182 -209q-31 -209 -247.5 -208.5t-186.5 208.5q16 102 81 155.5t171 53.5zM977 1982q-131 0 -149.5 -126.5t108.5 -126.5t145.5 126.5t-104.5 126.5zM1337 1550h148q33 0 26 -30l-118 -748q-39 -244 -88.5 -388t-135.5 -236.5t-204.5 -125t-307.5 -32.5 q-152 0 -248 22.5t-160.5 71.5t-89 143.5t-21.5 222.5t34 322l119 748q6 31 35 30h147q33 0 27 -30l-121 -748q-25 -180 -29 -297t35 -184.5t108.5 -93t194.5 -25.5q242 0 340 120t156 480l119 748q5 30 34 30z" glyph-name="Uring" horiz-adv-x="1525" unicode="Ů"/><glyph d="M756 1657q217 0 182 -209q-31 -209 -248 -209t-186 209q16 102 81 155.5t171 53.5zM743 1575q-131 0 -149.5 -127t108.5 -127t145.5 127t-104.5 127zM975 1120h135q31 0 25 -30l-164 -1037q-4 -25 -35 -30q-178 -33 -432 -33q-100 0 -162.5 5t-119 23.5t-83 49t-43 86 t-13.5 131t21 186.5l99 619q6 31 39 30h131q29 0 26 -30l-96 -605q-12 -78 -16 -132t5 -90t21.5 -56.5t45 -30.5t63.5 -12t88 -2h281l147 928q6 30 37 30z" glyph-name="uring" unicode="ů"/><glyph d="M655 1964h164q18 0 19 -20v-11q0 -14 -17 -28l-321 -254q-16 -12 -29 0l-31 24q-12 12 -2 29l191 248q10 12 26 12zM1018 1964h164q18 0 18 -20v-11q0 -14 -16 -28l-322 -254q-16 -12 -28 0l-31 24q-12 12 -2 29l190 248q11 12 27 12zM1337 1550h148q33 0 26 -30 l-118 -748q-39 -244 -88.5 -388t-135.5 -236.5t-204.5 -125t-307.5 -32.5q-152 0 -248 22.5t-160.5 71.5t-89 143.5t-21.5 222.5t34 322l119 748q6 31 35 30h147q33 0 27 -30l-121 -748q-25 -180 -29 -297t35 -184.5t108.5 -93t194.5 -25.5q242 0 340 120t156 480l119 748 q5 30 34 30z" glyph-name="Uhungarumlaut" horiz-adv-x="1525" unicode="Ű"/><glyph d="M575 1554h164q18 0 19 -20v-10q0 -14 -17 -29l-321 -254q-16 -12 -29 0l-31 25q-12 12 -2 28l191 248q8 12 26 12zM938 1554h164q18 0 18 -20v-10q0 -14 -16 -29l-322 -254q-14 -12 -28 0l-31 25q-12 12 -2 28l190 248q11 12 27 12zM975 1120h135q31 0 25 -30l-164 -1037 q-4 -25 -35 -30q-178 -33 -432 -33q-100 0 -162.5 5t-119 23.5t-83 49t-43 86t-13.5 131t21 186.5l99 619q6 31 39 30h131q29 0 26 -30l-96 -605q-12 -78 -16 -132t5 -90t21.5 -56.5t45 -30.5t63.5 -12t88 -2h281l147 928q6 30 37 30z" glyph-name="uhungarumlaut" unicode="ű"/><glyph d="M1337 1550h148q33 0 26 -30l-118 -748q-37 -236 -84 -378t-128 -235t-191.5 -129t-282.5 -40q-29 -74 -37 -113q-8 -41 10 -52t76 -11h73q31 0 27 -31l-12 -70q-4 -29 -31 -37q-39 -16 -125 -16q-98 0 -138 34t-26 122q14 80 56 176q-213 8 -312.5 77.5t-124 240.5 t28.5 462l119 748q6 31 35 30h147q33 0 27 -30l-121 -748q-25 -180 -29 -297t35 -184.5t108.5 -93t194.5 -25.5q242 0 340 120t156 480l119 748q5 30 34 30z" glyph-name="Uogonek" horiz-adv-x="1525" unicode="Ų"/><glyph d="M975 1120h135q31 0 25 -30l-164 -1037q-4 -25 -35 -30q-55 -10 -166 -23q-31 -82 -39 -123t10.5 -52t75.5 -11h74q31 0 27 -31l-13 -70q-4 -29 -31 -37q-39 -16 -124 -16q-98 0 -137.5 34t-26.5 122q14 76 55 176q-55 -2 -137 -2q-100 0 -162.5 5t-119 23.5t-83 49 t-43 86t-13.5 131t21 186.5l99 619q6 31 39 30h131q29 0 26 -30l-96 -605q-12 -78 -16 -132t5 -90t21.5 -56.5t45 -30.5t63.5 -12t88 -2h281l147 928q6 30 37 30z" glyph-name="uogonek" unicode="ų"/><glyph d="M1278 1964h88q27 0 33 -14l141 -248q12 -14 -10 -29l-41 -24q-14 -12 -31 0l-162 149l-211 -149q-14 -10 -30 0l-31 24q-16 14 -2 29l221 248q15 14 35 14zM2118 1550h161q18 0 22.5 -7t-1.5 -25l-481 -1289q-59 -158 -111.5 -198.5t-194.5 -40.5q-156 0 -193.5 39 t-49.5 200l-76 928l-367 -928q-49 -117 -79.5 -159.5t-82 -61t-161.5 -18.5q-141 0 -180 41t-48 198l-73 1289q0 33 28 32h164q20 0 23 -32l65 -1229q2 -70 13.5 -89.5t44.5 -19.5q41 0 59 18.5t47 90.5l477 1165q12 33 39 33h164q31 0 33 -33l106 -1165q8 -72 20.5 -90.5 t51.5 -18.5q33 0 50.5 19.5t43.5 89.5l455 1229q8 20 13.5 26t17.5 6z" glyph-name="Wcircumflex" horiz-adv-x="2226" unicode="Ŵ"/><glyph d="M954 1554h88q23 0 31 -14l141 -248q12 -14 -10 -28l-41 -25q-14 -12 -28 0l-162 150l-213 -150q-14 -12 -29 0l-33 25q-14 14 -2 28l222 248q13 14 36 14zM1546 1120h148q18 0 22 -6t-2 -27l-315 -866q-57 -152 -105.5 -191.5t-173.5 -39.5q-131 0 -160.5 35.5 t-39.5 195.5l-41 574l-224 -574q-63 -160 -104 -195.5t-172 -35.5q-123 0 -159 40t-44 191l-41 866q0 20 5 26.5t24 6.5h147q20 0 23 -33l33 -841q2 -51 12 -64.5t33 -13.5q25 0 34 11t31 67l328 809q14 33 33 32h174q18 0 20 -32l72 -809q2 -53 9 -65.5t34 -12.5 q23 0 35 13.5t30 64.5l304 841q8 20 13 26.5t17 6.5z" glyph-name="wcircumflex" horiz-adv-x="1710" unicode="ŵ"/><glyph d="M840 1964h88q23 0 30 -14l142 -248q12 -16 -10 -29l-41 -24q-14 -12 -29 0l-162 149l-213 -149q-14 -12 -29 0l-32 24q-14 14 -2 29l221 248q14 14 37 14zM1294 1550h158q47 0 16 -45l-718 -1034l-70 -440q-4 -31 -35 -31h-147q-31 0 -27 31l72 440l-391 1034 q-20 45 28 45h158q37 0 51 -32l293 -820l553 820q20 32 59 32z" glyph-name="Ycircumflex" horiz-adv-x="1347" unicode="Ŷ"/><glyph d="M719 1554h88q25 0 31 -14l141 -248q12 -14 -10 -28l-41 -25q-14 -12 -29 0l-162 150l-213 -150q-14 -12 -28 0l-33 25q-14 14 -2 28l221 248q14 14 37 14zM977 1120h135q31 0 27 -30l-156 -988q-35 -211 -88 -316t-160.5 -153.5t-306.5 -48.5q-176 0 -307 19 q-29 4 -23 32l15 89q2 31 34 30h304q170 0 233.5 49.5t85.5 190.5v12q-102 -16 -272 -16q-287 0 -361 111.5t-20 447.5l86 541q2 31 35 30h135q29 0 26 -30l-84 -529q-43 -240 -3 -319.5t225 -79.5q145 0 260 14l145 914q4 30 35 30z" glyph-name="ycircumflex" horiz-adv-x="1210" unicode="ŷ"/><glyph d="M688 1923q123 0 105 -121q-23 -125 -144 -125q-127 0 -108 125q18 121 147 121zM1069 1923q125 0 107 -121q-18 -125 -146 -125q-125 0 -106 125q18 121 145 121zM1294 1550h158q47 0 16 -45l-718 -1034l-70 -440q-4 -31 -35 -31h-147q-31 0 -27 31l72 440l-391 1034 q-20 45 28 45h158q37 0 51 -32l293 -820l553 820q20 32 59 32z" glyph-name="Ydieresis" horiz-adv-x="1347" unicode="Ÿ"/><glyph d="M954 1964h183q18 0 18 -20v-11q0 -14 -16 -28l-334 -256q-14 -12 -29 0l-35 26q-12 12 -2 29l189 248q10 12 26 12zM258 1550h1106q33 0 27 -30l-17 -103q-6 -20 -20 -39l-1096 -1196h907q33 0 27 -30l-21 -121q-4 -31 -36 -31h-1145q-31 0 -27 31l17 100q4 20 20 39 l1096 1198h-865q-33 0 -28 29l18 123q6 30 37 30z" glyph-name="Zacute" horiz-adv-x="1331" unicode="Ź"/><glyph d="M692 1554h180q18 0 19 -20v-10q0 -14 -17 -29l-331 -256q-14 -12 -29 0l-37 27q-12 12 -2 28l191 248q10 12 26 12zM197 1120h811q33 0 28 -30l-8 -50q-6 -23 -18 -36l-738 -832h605q35 0 28 -31l-18 -110q-2 -31 -37 -31h-856q-31 0 -29 31l10 57q4 23 19 37l729 823 h-553q-33 0 -27 31l17 111q4 30 37 30z" glyph-name="zacute" horiz-adv-x="1050" unicode="ź"/><glyph d="M868 1925q125 0 107 -123q-20 -125 -146 -125q-127 0 -108 125q20 123 147 123zM258 1550h1106q33 0 27 -30l-17 -103q-6 -20 -20 -39l-1096 -1196h907q33 0 27 -30l-21 -121q-4 -31 -36 -31h-1145q-31 0 -27 31l17 100q4 20 20 39l1096 1198h-865q-33 0 -28 29l18 123 q6 30 37 30z" glyph-name="Zdotaccent" horiz-adv-x="1331" unicode="Ż"/><glyph d="M659 1516q127 0 107 -123q-18 -125 -145 -125t-107 125q18 123 145 123zM197 1120h811q33 0 28 -30l-8 -50q-6 -23 -18 -36l-738 -832h605q35 0 28 -31l-18 -110q-2 -31 -37 -31h-856q-31 0 -29 31l10 57q4 23 19 37l729 823h-553q-33 0 -27 31l17 111q4 30 37 30z" glyph-name="zdotaccent" horiz-adv-x="1050" unicode="ż"/><glyph d="M1090 1958l32 -25q14 -14 2 -28l-221 -248q-14 -14 -37 -15h-86q-27 0 -32 15l-142 248q-12 14 10 28l41 25q14 10 31 0l162 -150l211 150q15 12 29 0zM258 1550h1106q33 0 27 -30l-17 -103q-6 -20 -20 -39l-1096 -1196h907q33 0 27 -30l-21 -121q-4 -31 -36 -31h-1145 q-31 0 -27 31l17 100q4 20 20 39l1096 1198h-865q-33 0 -28 29l18 123q6 30 37 30z" glyph-name="Zcaron" horiz-adv-x="1331" unicode="Ž"/><glyph d="M883 1548l32 -24q14 -14 3 -29l-222 -248q-14 -14 -37 -14h-88q-23 0 -30 14l-142 248q-14 14 11 29l41 24q14 12 28 0l162 -149l211 149q17 10 31 0zM197 1120h811q33 0 28 -30l-8 -50q-6 -23 -18 -36l-738 -832h605q35 0 28 -31l-18 -110q-2 -31 -37 -31h-856 q-31 0 -29 31l10 57q4 23 19 37l729 823h-553q-33 0 -27 31l17 111q4 30 37 30z" glyph-name="zcaron" horiz-adv-x="1050" unicode="ž"/><glyph d="M1057 1561q88 0 174 -21q33 -6 26 -37l-26 -88q-6 -27 -37 -26h-111q-96 0 -143 -21.5t-68 -93.5l-88 -297h242q31 0 25 -31l-17 -96q-2 -31 -35 -31h-262l-178 -594q-25 -82 -69 -134t-102 -71.5t-98 -24.5t-97 -5q-80 0 -173 18q-35 6 -28 37l28 90q8 27 33 27h113 q98 0 144 21.5t67 92.5l164 543h-142q-31 0 -24 35l14 96q6 27 35 27h164l104 348q25 80 68 132t101.5 72.5t98.5 26t97 5.5z" glyph-name="florin" horiz-adv-x="1148" unicode="ƒ"/><glyph d="M1112 1958l31 -25q16 -14 2 -28l-219 -248q-18 -14 -37 -15h-88q-23 0 -33 15l-141 248q-12 14 10 28l41 25q16 10 31 0l161 -150l211 150q17 12 31 0zM831 1561q156 0 199 -40t62 -200l145 -1288q2 -20 -3 -26.5t-26 -6.5h-159q-14 0 -17.5 6t-5.5 27l-55 452h-617 l-200 -452q-8 -20 -13.5 -26.5t-19.5 -6.5h-160q-18 0 -22.5 6t4.5 27l567 1288q70 158 124 199t197 41zM803 1380q-43 0 -58.5 -17t-48.5 -91l-262 -606h518l-65 606q-10 76 -21.5 92t-62.5 16z" glyph-name="uni01CD" horiz-adv-x="1382" unicode="Ǎ"/><glyph d="M874 1548l33 -24q14 -14 2 -29l-221 -248q-14 -14 -37 -14h-86q-25 0 -33 14l-141 248q-12 14 10 29l41 24q14 10 31 0l162 -149l211 149q14 12 28 0zM573 1130q242 0 341.5 -76.5t72.5 -244.5l-115 -717q-4 -43 -47 -57q-129 -45 -463 -45q-215 0 -294.5 66.5 t-49.5 262.5q29 176 129.5 246t284.5 70l330 2l22 137q14 96 -40 140t-197 44h-307q-18 0 -23.5 6.5t-3.5 24.5l16 84q4 27 33 33q147 24 311 24zM737 477h-325q-88 0 -135.5 -34.5t-61.5 -118.5q-16 -98 31 -132t178 -34q168 0 266 24z" glyph-name="uni01CE" horiz-adv-x="1093" unicode="ǎ"/><glyph d="M692 1958l33 -25q14 -14 2 -28l-221 -248q-14 -14 -37 -15h-86q-27 0 -33 15l-141 248q-12 14 10 28l41 25q14 12 29 0l164 -150l211 150q14 12 28 0zM340 1550h147q29 0 27 -32l-238 -1487q-2 -31 -34 -31h-146q-31 0 -26 31l235 1487q2 32 35 32z" glyph-name="uni01CF" horiz-adv-x="542" unicode="Ǐ"/><glyph d="M598 1548l33 -24q14 -14 2 -29l-221 -248q-14 -14 -37 -14h-88q-25 0 -31 14l-141 248q-12 16 10 29l41 24q14 12 29 0l161 -149l211 149q17 10 31 0zM248 1120h135q31 0 27 -30l-168 -1059q-4 -31 -35 -31h-135q-31 0 -27 31l168 1059q4 30 35 30z" glyph-name="uni01D0" horiz-adv-x="481" unicode="ǐ"/><glyph d="M1165 1958l33 -25q14 -14 2 -28l-221 -248q-14 -14 -37 -15h-88q-23 0 -31 15l-143 248q-12 14 12 28l41 25q14 12 29 0l162 -150l211 150q16 10 30 0zM885 1561q371 0 472 -165t27 -624q-37 -236 -87 -379t-137 -237.5t-210 -130t-315 -35.5q-254 0 -373 68.5 t-150.5 242.5t23.5 471q37 236 87 380t137 239.5t211.5 132.5t314.5 37zM856 1378q-135 0 -219 -26.5t-142.5 -102t-90 -183.5t-62.5 -294q-55 -360 4.5 -480t319.5 -120q135 0 219 26.5t141 100.5t89 180.5t61 292.5q63 352 1.5 479t-321.5 127z" glyph-name="uni01D1" horiz-adv-x="1480" unicode="Ǒ"/><glyph d="M942 1548l33 -24q14 -14 2 -29l-221 -248q-14 -14 -37 -14h-86q-27 0 -33 14l-141 248q-12 14 10 29l41 24q14 10 31 0l161 -149l211 149q15 12 29 0zM659 1130q123 0 200 -16t127 -52t68.5 -105.5t15.5 -162t-26 -235.5q-29 -180 -62.5 -283.5t-99 -171t-157.5 -91 t-246 -23.5q-293 0 -367.5 111.5t-19.5 457.5q29 180 63.5 283.5t99 172t157.5 92t247 23.5zM633 958q-182 0 -243.5 -75.5t-100.5 -323.5q-43 -238 -4 -317.5t221 -79.5q96 0 152.5 15.5t94.5 65.5t56 118.5t39 197.5q45 240 5 319.5t-220 79.5z" glyph-name="uni01D2" horiz-adv-x="1167" unicode="ǒ"/><glyph d="M1188 1958l33 -25q14 -14 2 -28l-222 -248q-14 -14 -36 -15h-88q-25 0 -31 15l-141 248q-12 16 10 28l41 25q14 12 28 0l162 -150l211 150q17 10 31 0zM1337 1550h148q33 0 26 -30l-118 -748q-39 -244 -88.5 -388t-135.5 -236.5t-204.5 -125t-307.5 -32.5 q-152 0 -248 22.5t-160.5 71.5t-89 143.5t-21.5 222.5t34 322l119 748q6 31 35 30h147q33 0 27 -30l-121 -748q-25 -180 -29 -297t35 -184.5t108.5 -93t194.5 -25.5q242 0 340 120t156 480l119 748q5 30 34 30z" glyph-name="uni01D3" horiz-adv-x="1525" unicode="Ǔ"/><glyph d="M956 1548l33 -24q14 -14 2 -29l-221 -248q-14 -14 -37 -14h-88q-23 0 -31 14l-141 248q-12 16 10 29l41 24q14 12 29 0l162 -149l213 149q14 12 28 0zM975 1120h135q31 0 25 -30l-164 -1037q-4 -25 -35 -30q-178 -33 -432 -33q-100 0 -162.5 5t-119 23.5t-83 49t-43 86 t-13.5 131t21 186.5l99 619q6 31 39 30h131q29 0 26 -30l-96 -605q-12 -78 -16 -132t5 -90t21.5 -56.5t45 -30.5t63.5 -12t88 -2h281l147 928q6 30 37 30z" glyph-name="uni01D4" unicode="ǔ"/><glyph d="M731 2191h529q31 0 24 -30l-14 -84q-4 -31 -35 -31h-528q-31 0 -27 31l14 84q6 30 37 30zM776 1923q123 0 105 -121q-18 -125 -144 -125q-127 0 -108 125q20 121 147 121zM1157 1923q125 0 107 -121q-18 -125 -146 -125q-125 0 -106 125q20 121 145 121zM1337 1550h148 q33 0 26 -30l-118 -748q-39 -244 -88.5 -388t-135.5 -236.5t-204.5 -125t-307.5 -32.5q-152 0 -248 22.5t-160.5 71.5t-89 143.5t-21.5 222.5t34 322l119 748q6 31 35 30h147q33 0 27 -30l-121 -748q-25 -180 -29 -297t35 -184.5t108.5 -93t194.5 -25.5q242 0 340 120 t156 480l119 748q5 30 34 30z" glyph-name="uni01D5" horiz-adv-x="1525" unicode="Ǖ"/><glyph d="M512 1798h528q31 0 25 -31l-14 -84q-2 -31 -35 -30h-529q-29 0 -26 30l14 84q6 31 37 31zM545 1513q123 0 104 -120q-18 -125 -143 -125q-127 0 -109 125q21 120 148 120zM926 1513q125 0 106 -120q-18 -125 -145 -125q-125 0 -107 125q21 120 146 120zM975 1120h135 q31 0 25 -30l-164 -1037q-4 -25 -35 -30q-178 -33 -432 -33q-100 0 -162.5 5t-119 23.5t-83 49t-43 86t-13.5 131t21 186.5l99 619q6 31 39 30h131q29 0 26 -30l-96 -605q-12 -78 -16 -132t5 -90t21.5 -56.5t45 -30.5t63.5 -12t88 -2h281l147 928q6 30 37 30z" glyph-name="uni01D6" unicode="ǖ"/><glyph d="M1120 2277h183q18 0 18 -20v-10q0 -14 -16 -29l-332 -256q-16 -10 -29 0l-37 27q-12 12 -2 28l189 248q8 12 26 12zM776 1923q123 0 105 -121q-18 -125 -144 -125q-127 0 -108 125q20 121 147 121zM1157 1923q125 0 107 -121q-18 -125 -146 -125q-125 0 -106 125 q20 121 145 121zM1337 1550h148q33 0 26 -30l-118 -748q-39 -244 -88.5 -388t-135.5 -236.5t-204.5 -125t-307.5 -32.5q-152 0 -248 22.5t-160.5 71.5t-89 143.5t-21.5 222.5t34 322l119 748q6 31 35 30h147q33 0 27 -30l-121 -748q-25 -180 -29 -297t35 -184.5t108.5 -93 t194.5 -25.5q242 0 340 120t156 480l119 748q5 30 34 30z" glyph-name="uni01D7" horiz-adv-x="1525" unicode="Ǘ"/><glyph d="M893 1874h182q18 0 19 -21v-10q0 -14 -17 -28l-334 -256q-14 -12 -28 0l-35 28q-12 10 -2 29l188 246q11 12 27 12zM545 1513q123 0 104 -120q-18 -125 -143 -125q-127 0 -109 125q21 120 148 120zM926 1513q125 0 106 -120q-18 -125 -145 -125q-125 0 -107 125 q21 120 146 120zM975 1120h135q31 0 25 -30l-164 -1037q-4 -25 -35 -30q-178 -33 -432 -33q-100 0 -162.5 5t-119 23.5t-83 49t-43 86t-13.5 131t21 186.5l99 619q6 31 39 30h131q29 0 26 -30l-96 -605q-12 -78 -16 -132t5 -90t21.5 -56.5t45 -30.5t63.5 -12t88 -2h281 l147 928q6 30 37 30z" glyph-name="uni01D8" unicode="ǘ"/><glyph d="M1237 2277l33 -24q14 -12 2 -29l-221 -248q-14 -14 -37 -14h-86q-27 0 -33 14l-141 248q-12 14 10 29l41 24q14 12 31 0l161 -149l211 149q15 12 29 0zM776 1923q123 0 105 -121q-18 -125 -144 -125q-127 0 -108 125q20 121 147 121zM1157 1923q125 0 107 -121 q-18 -125 -146 -125q-125 0 -106 125q20 121 145 121zM1337 1550h148q33 0 26 -30l-118 -748q-39 -244 -88.5 -388t-135.5 -236.5t-204.5 -125t-307.5 -32.5q-152 0 -248 22.5t-160.5 71.5t-89 143.5t-21.5 222.5t34 322l119 748q6 31 35 30h147q33 0 27 -30l-121 -748 q-25 -180 -29 -297t35 -184.5t108.5 -93t194.5 -25.5q242 0 340 120t156 480l119 748q5 30 34 30z" glyph-name="uni01D9" horiz-adv-x="1525" unicode="Ǚ"/><glyph d="M1004 1866l32 -23q14 -14 2 -31l-221 -245q-12 -16 -37 -17h-88q-25 0 -30 17l-142 245q-16 16 10 31l41 23q16 12 29 0l162 -150l211 150q15 12 31 0zM545 1513q123 0 104 -120q-18 -125 -143 -125q-127 0 -109 125q21 120 148 120zM926 1513q125 0 106 -120 q-18 -125 -145 -125q-125 0 -107 125q21 120 146 120zM975 1120h135q31 0 25 -30l-164 -1037q-4 -25 -35 -30q-178 -33 -432 -33q-100 0 -162.5 5t-119 23.5t-83 49t-43 86t-13.5 131t21 186.5l99 619q6 31 39 30h131q29 0 26 -30l-96 -605q-12 -78 -16 -132t5 -90 t21.5 -56.5t45 -30.5t63.5 -12t88 -2h281l147 928q6 30 37 30z" glyph-name="uni01DA" unicode="ǚ"/><glyph d="M723 2277h180q18 0 23 -12l110 -248q10 -16 -10 -28l-45 -27q-18 -14 -29 0l-243 252q-8 6 -9 29v14q0 20 23 20zM776 1923q123 0 105 -121q-18 -125 -144 -125q-127 0 -108 125q20 121 147 121zM1157 1923q125 0 107 -121q-18 -125 -146 -125q-125 0 -106 125 q20 121 145 121zM1337 1550h148q33 0 26 -30l-118 -748q-39 -244 -88.5 -388t-135.5 -236.5t-204.5 -125t-307.5 -32.5q-152 0 -248 22.5t-160.5 71.5t-89 143.5t-21.5 222.5t34 322l119 748q6 31 35 30h147q33 0 27 -30l-121 -748q-25 -180 -29 -297t35 -184.5t108.5 -93 t194.5 -25.5q242 0 340 120t156 480l119 748q5 30 34 30z" glyph-name="uni01DB" horiz-adv-x="1525" unicode="Ǜ"/><glyph d="M481 1874h181q18 0 22 -12l111 -246q10 -18 -11 -29l-45 -28q-18 -14 -28 0l-246 251q-8 8 -8 29v14q-1 21 24 21zM545 1513q123 0 104 -120q-18 -125 -143 -125q-127 0 -109 125q21 120 148 120zM926 1513q125 0 106 -120q-18 -125 -145 -125q-125 0 -107 125 q21 120 146 120zM975 1120h135q31 0 25 -30l-164 -1037q-4 -25 -35 -30q-178 -33 -432 -33q-100 0 -162.5 5t-119 23.5t-83 49t-43 86t-13.5 131t21 186.5l99 619q6 31 39 30h131q29 0 26 -30l-96 -605q-12 -78 -16 -132t5 -90t21.5 -56.5t45 -30.5t63.5 -12t88 -2h281 l147 928q6 30 37 30z" glyph-name="uni01DC" unicode="ǜ"/><glyph d="M985 2224h180q18 0 19 -20v-11q0 -14 -17 -28l-151 -117q102 -43 80 -190q-31 -209 -250 -209t-184 209q25 170 178 200l118 154q9 12 27 12zM901 1985q-131 0 -149.5 -127t108.5 -127t145.5 127t-104.5 127zM831 1561q156 0 199 -40t62 -200l145 -1288q2 -20 -3 -26.5 t-26 -6.5h-159q-14 0 -17.5 6t-5.5 27l-55 452h-617l-200 -452q-8 -20 -13.5 -26.5t-19.5 -6.5h-160q-18 0 -22.5 6t4.5 27l567 1288q70 158 124 199t197 41zM803 1380q-43 0 -58.5 -17t-48.5 -91l-262 -606h518l-65 606q-10 76 -21.5 92t-62.5 16z" glyph-name="Aringacute" horiz-adv-x="1382" unicode="Ǻ"/><glyph d="M770 1841h182q18 0 19 -20v-11q0 -14 -17 -28l-186 -144q104 -43 80 -190q-31 -209 -250 -209q-217 0 -184 209q29 178 194 203l135 178q11 12 27 12zM653 1575q-131 0 -149.5 -127t108.5 -127t145.5 127t-104.5 127zM573 1130q242 0 341.5 -76.5t72.5 -244.5l-115 -717 q-4 -43 -47 -57q-129 -45 -463 -45q-215 0 -294.5 66.5t-49.5 262.5q29 176 129.5 246t284.5 70l330 2l22 137q14 96 -40 140t-197 44h-307q-18 0 -23.5 6.5t-3.5 24.5l16 84q4 27 33 33q147 24 311 24zM737 477h-325q-88 0 -135.5 -34.5t-61.5 -118.5q-16 -98 31 -132 t178 -34q168 0 266 24z" glyph-name="aringacute" horiz-adv-x="1093" unicode="ǻ"/><glyph d="M1399 1962h180q18 0 18 -20v-11q0 -14 -16 -28l-332 -258q-12 -10 -28 0l-37 28q-12 12 -2 29l190 248q9 12 27 12zM831 1561l455 -11h705q29 0 26 -30l-20 -121q-2 -31 -35 -31h-672l-84 -526h602q31 0 27 -31l-18 -119q-6 -31 -37 -30h-602l-76 -480h674q31 0 24 -30 l-20 -121q-2 -31 -35 -31h-850q-31 0 -25 31l72 454h-588l-198 -452q-14 -33 -33 -33h-160q-18 0 -22 6t2 27l567 1288q72 158 125 199t196 41zM1085 1380h-276q-45 0 -63.5 -19.5t-51.5 -94.5l-260 -600h537z" glyph-name="AEacute" horiz-adv-x="1976" unicode="Ǽ"/><glyph d="M1128 1554h183q18 0 16 -20l-2 -14q-2 -12 -14 -25l-332 -256q-14 -12 -29 0l-37 27q-12 12 0 28l189 248q8 12 26 12zM1307 1130q274 0 346.5 -107.5t23.5 -432.5l-10 -60q-4 -33 -19.5 -45t-62.5 -12h-651q-25 -188 17 -249.5t206 -61.5h336q31 0 27 -31l-15 -90 q-4 -29 -35 -33q-135 -18 -346 -18q-96 0 -192 23.5t-139 60.5q-170 -84 -431 -84q-215 0 -294.5 64.5t-51.5 252.5l2 27q29 166 128.5 233.5t283.5 67.5l330 2l22 137q16 96 -39 140t-198 44h-305q-18 0 -23.5 6.5t-3.5 24.5l14 84q4 27 33 33q150 25 313 24 q266 0 359 -100q111 100 375 100zM1280 958q-166 0 -226.5 -63.5t-97.5 -261.5h531q29 197 -10 261t-197 64zM737 477h-319q-119 0 -154 -29.5t-51 -125.5l-2 -13q-14 -98 30 -123.5t162 -25.5q221 0 334 49q-27 92 0 268z" glyph-name="aeacute" horiz-adv-x="1771" unicode="ǽ"/><glyph d="M1071 1964h182q18 0 19 -20v-11q0 -14 -17 -28l-333 -256q-14 -12 -29 0l-35 26q-12 12 -2 29l188 248q9 12 27 12zM1384 772q-37 -236 -87 -379t-137 -237.5t-210 -130t-315 -35.5q-270 0 -389 78l-74 -84q-20 -23 -43 -7l-61 48q-20 14 -2 41l88 100q-88 168 -19 606 q37 236 87 380t137 239.5t211 132.5t315 37q274 0 395 -84l63 73q23 27 46 9l61 -48q20 -16 0 -43l-82 -94q86 -162 16 -602zM856 1378q-135 0 -219 -26.5t-142.5 -102t-90 -183.5t-62.5 -294q-45 -287 -20 -410l813 945q-78 71 -279 71zM1198 1176l-807 -938 q78 -66 275 -66q135 0 219 26.5t141 100.5t89 180.5t61 292.5q45 289 22 404z" glyph-name="Oslashacute" horiz-adv-x="1480" unicode="Ǿ"/><glyph d="M821 1554h183q20 0 18 -20l-4 -14q0 -12 -12 -25l-334 -256q-14 -12 -29 0l-35 27q-12 12 -2 28l189 248q10 12 26 12zM1044 559q-29 -180 -62.5 -283.5t-99 -171t-157.5 -91t-246 -23.5q-199 0 -286 43l-48 -53q-25 -29 -43 -7l-61 47q-23 16 -2 41l59 68 q-55 115 -6 430q29 180 63.5 283.5t99 172t158 92t246.5 23.5q176 0 269 -34l37 45q27 27 45 8l61 -47q25 -16 0 -43l-39 -47q67 -115 12 -453zM633 958q-182 0 -243.5 -75.5t-100.5 -323.5q-25 -170 -21 -231l523 608q-52 22 -158 22zM868 821l-540 -626q53 -33 178 -33 q96 0 152.5 15.5t94.5 65.5t56 118.5t39 197.5q32 188 20 262z" glyph-name="oslashacute" horiz-adv-x="1167" unicode="ǿ"/><glyph d="M795 1561q150 0 395 -31q25 -2 20 -25l-18 -102q-4 -25 -31 -25h-456q-268 0 -297 -182l-7 -35q-12 -82 11.5 -127t109.5 -82l416 -184q125 -55 163 -141t15 -215l-10 -66q-16 -113 -69.5 -186.5t-139.5 -109.5t-175 -48t-212 -12q-258 0 -496 28q-23 6 -20 31l18 92 q6 31 37 31h557q135 0 207 43t86 137l8 39q12 84 -12.5 134t-108.5 87l-454 197q-104 43 -131 129t-8 219l8 49q14 90 54 155.5t91 103.5t128 59.5t150 29t171 7.5zM446 -80h158q14 0 14 -20v-11q0 -16 -14 -28l-305 -252q-14 -10 -29 0l-34 26q-12 12 -3 29l187 244 q10 12 26 12z" glyph-name="Scommaaccent" horiz-adv-x="1232" unicode="Ș"/><glyph d="M600 1130q162 0 309 -18q29 -4 23 -33l-14 -88q-4 -31 -35 -30h-379q-152 0 -170 -107l-4 -27q-14 -96 104 -143l258 -109q84 -33 124 -81t41 -98t-5 -109l-4 -23q-27 -164 -131.5 -219t-327.5 -55t-371 18q-31 2 -26 31l14 90q2 31 37 31h377q127 0 175 20.5t58 85.5 l4 25q6 47 -14 77.5t-84 59.5l-272 111q-182 76 -152 292l8 43q12 82 53.5 135.5t108 78t134 33.5t161.5 9zM319 -80h158q14 0 15 -20v-11q0 -16 -15 -28l-305 -252q-14 -10 -29 0l-32 26q-14 12 -2 29l184 244q10 12 26 12z" glyph-name="scommaaccent" horiz-adv-x="991" unicode="ș"/><glyph d="M197 1550h1134q29 0 27 -30l-19 -121q-4 -31 -34 -31h-465l-213 -1337q-4 -31 -35 -31h-146q-29 0 -26 31l213 1337h-465q-29 0 -27 31l21 121q2 30 35 30zM434 -80h158q14 0 14 -20v-11q0 -16 -14 -28l-305 -252q-14 -10 -29 0l-35 26q-12 12 -2 29l187 244q10 12 26 12 z" glyph-name="uni021A" horiz-adv-x="1245" unicode="Ț"/><glyph d="M342 1397l139 33q37 10 31 -27l-47 -285h217q31 0 27 -31l-17 -96q-4 -31 -35 -30h-217l-108 -689q-10 -68 11.5 -89t102.5 -21h99q31 0 28 -29l-14 -98q-6 -27 -37 -33q-51 -12 -116 -12q-74 0 -114 5t-91 24.5t-68.5 70.5t-3.5 133l115 738h-115q-31 0 -27 30l17 96 q4 31 35 31h116l37 246q6 27 35 33zM240 -80h157q18 0 17 -20l-2 -15q-2 -12 -15 -24l-307 -252q-14 -10 -29 0l-32 26q-14 12 -2 29l186 244q9 12 27 12z" glyph-name="uni021B" horiz-adv-x="694" unicode="ț"/><glyph d="M713 1554h86q25 0 32 -14l142 -248q12 -14 -10 -28l-41 -25q-16 -12 -31 0l-162 150l-211 -150q-14 -12 -29 0l-32 25q-14 12 -2 28l221 248q14 14 37 14z" glyph-name="circumflex" horiz-adv-x="1019" unicode="ˆ"/><glyph d="M971 1548l30 -24q14 -12 3 -29l-222 -248q-14 -14 -34 -14h-89q-25 0 -32 14l-142 248q-12 14 11 29l41 24q16 12 30 0l162 -149l211 149q15 10 31 0z" glyph-name="caron" horiz-adv-x="1019" unicode="ˇ"/><glyph d="M1014 1536h65q20 0 24.5 -7t-1.5 -26q-45 -141 -118 -193.5t-228.5 -52.5t-212 52.5t-58.5 193.5q0 33 35 33h66q25 0 30 -25q16 -66 51 -90t111 -24t117 24.5t80 89.5q10 25 39 25z" glyph-name="breve" horiz-adv-x="1112" unicode="˘"/><glyph d="M612 1516q129 0 107 -123q-18 -125 -145.5 -125t-106.5 125q18 123 145 123z" glyph-name="dotaccent" horiz-adv-x="745" unicode="˙"/><glyph d="M727 1657q213 0 182.5 -209t-250.5 -209q-217 0 -184 209q16 102 81 155.5t171 53.5zM715 1575q-131 0 -149.5 -127t108.5 -127t145.5 127t-104.5 127z" glyph-name="ring" horiz-adv-x="925" unicode="˚"/><glyph d="M313 31h62q35 0 22 -35q-31 -82 -37 -119q-8 -43 10.5 -53t75.5 -10h72q31 0 27 -31l-10 -70q-6 -29 -31 -37q-43 -16 -127 -16q-98 0 -137 34t-25 122q14 84 59 188q14 27 39 27z" glyph-name="ogonek" horiz-adv-x="823" unicode="˛"/><glyph d="M457 1319q55 119 100 158t123 39q49 0 140 -41t124 -41q37 0 58.5 14t46.5 55q18 31 43 23l45 -13q27 -10 14 -47q-55 -117 -100 -156.5t-121 -39.5q-49 0 -141.5 41t-124.5 41q-37 0 -58.5 -14.5t-46.5 -55.5q-16 -29 -43 -20l-45 12q-26 12 -14 45z" glyph-name="tilde" horiz-adv-x="1167" unicode="˜"/><glyph d="M670 1554h166q16 0 16 -20v-10q0 -14 -16 -29l-322 -254q-14 -12 -29 0l-28 25q-12 12 -2 28l188 248q9 12 27 12zM1032 1554h166q18 0 19 -20v-10q0 -12 -17 -29l-323 -254q-14 -12 -29 0l-29 25q-12 12 -2 28l189 248q10 12 26 12z" glyph-name="hungarumlaut" horiz-adv-x="1216" unicode="˝"/><glyph d="M412 -80h157q14 0 15 -20v-11q0 -16 -15 -28l-305 -252q-14 -10 -28 0l-35 26q-14 12 -2 29l186 244q11 12 27 12z" glyph-name="uni0326" horiz-adv-x="0" unicode="̦"/><glyph d="M154 1120h1159q31 0 26 -30l-16 -113q-6 -31 -37 -31h-170l-145 -915q-4 -31 -35 -31h-121q-29 0 -27 31l144 915h-451q-74 -461 -227 -915q-6 -31 -35 -31h-121q-37 0 -26 31q152 461 225 915h-172q-31 0 -25 31l19 113q4 30 35 30z" glyph-name="pi" horiz-adv-x="1312" unicode="π"/><glyph d="M678 1923q123 0 104 -121q-18 -125 -145 -125q-125 0 -107 125q23 121 148 121zM1059 1923q125 0 106 -121q-18 -125 -147 -125q-123 0 -105 125q23 121 146 121zM340 1550h956q31 0 29 -30l-20 -121q-2 -31 -35 -31h-783l-81 -526h710q31 0 27 -31l-21 -119 q-4 -31 -37 -30h-710l-74 -480h780q33 0 27 -30l-21 -121q-2 -31 -34 -31h-959q-29 0 -26 31l237 1489q2 30 35 30z" glyph-name="afii10023" horiz-adv-x="1275" unicode="Ё"/><glyph d="M821 1561q156 0 199 -40t61 -200l146 -1288q-2 -20 -7.5 -26.5t-23.5 -6.5h-160q-20 0 -20 33l-55 452h-617l-201 -452q-8 -20 -13 -26.5t-19 -6.5h-160q-18 0 -22.5 6t3.5 27l568 1288q70 158 124 199t197 41zM793 1380q-43 0 -58.5 -17t-48.5 -91l-262 -606h518 l-65 606q-10 76 -21.5 92t-62.5 16z" glyph-name="afii10017" horiz-adv-x="1361" unicode="А"/><glyph d="M338 1550h993q29 0 27 -30l-21 -121q-2 -31 -34 -31h-818l-71 -448h413q260 0 371 -91.5t74 -334.5l-15 -84q-37 -244 -176 -332t-401 -88q-385 0 -588 14q-18 2 -22 7t-2 24l235 1485q4 30 35 30zM807 739h-420l-90 -567h418q160 0 236.5 50t99.5 196l10 63 q25 152 -41 205t-213 53z" glyph-name="afii10018" horiz-adv-x="1386" unicode="Б"/><glyph d="M864 1561q276 0 391 -94.5t76 -336.5q-47 -303 -233 -346l-2 -6q215 -39 161 -368q-37 -244 -176 -332t-401 -88q-385 0 -588 14q-18 2 -22 7t-2 24l233 1481q4 29 35 30q206 15 528 15zM819 1378h-332l-84 -522h252q109 0 166.5 3t118.5 16.5t91 40t53.5 73.5t35.5 121 q25 162 -45 215t-256 53zM801 690h-422l-82 -518h418q160 0 236.5 50t99.5 196q25 162 -37.5 217t-212.5 55z" glyph-name="afii10019" horiz-adv-x="1398" unicode="В"/><glyph d="M340 1550h862q31 0 27 -30l-21 -121q-4 -31 -34 -31h-687l-211 -1337q-6 -31 -36 -31h-146q-29 0 -26 31l237 1489q2 30 35 30z" glyph-name="afii10020" horiz-adv-x="1112" unicode="Г"/><glyph d="M616 1550h721q31 0 27 -30l-211 -1338h80q29 0 27 -30l-72 -443q-4 -31 -35 -31h-135q-31 0 -27 31l47 291h-882l-47 -291q-2 -31 -35 -31h-135q-29 0 -27 31l70 443q6 31 36 30h88q70 20 108 80t71 182l297 1074q5 32 34 32zM1133 1368h-383l-277 -989 q-35 -121 -80 -197h553z" glyph-name="afii10021" horiz-adv-x="1429" unicode="Д"/><glyph d="M340 1550h956q31 0 29 -30l-20 -121q-2 -31 -35 -31h-783l-81 -526h710q31 0 27 -31l-21 -119q-4 -31 -37 -30h-710l-74 -480h780q33 0 27 -30l-21 -121q-2 -31 -34 -31h-959q-29 0 -26 31l237 1489q2 30 35 30z" glyph-name="afii10022" horiz-adv-x="1275" unicode="Е"/><glyph d="M1812 1550h166q27 0 29 -11t-16 -28l-682 -680l495 -776q16 -18 6 -36.5t-49 -18.5h-157q-31 0 -41 23l-478 761l-120 -753q-2 -31 -35 -31h-146q-31 0 -26 31l121 753l-719 -761q-16 -23 -49 -23h-158q-39 0 -43 18.5t16 36.5l742 776l-467 680q-27 39 24 39h166 q27 0 41 -20l459 -653l102 643q2 31 35 30h148q29 0 26 -30l-102 -643l667 653q20 20 45 20z" glyph-name="afii10024" horiz-adv-x="1914" unicode="Ж"/><glyph d="M598 1561q381 0 497.5 -79t78.5 -329l-9 -41q-41 -279 -225 -336q162 -61 121 -334l-6 -34q-39 -252 -181.5 -335t-523.5 -83q-170 0 -334 16q-29 8 -28 17l20 131q2 18 35 18h348q260 0 347 49t110 199l4 10q20 145 -20.5 201.5t-200.5 56.5h-430q-25 0 -23 23l21 127 q2 25 28 24h428q162 0 221.5 55.5t84.5 204.5l4 27q23 145 -55.5 187t-344.5 42h-332q-16 0 -22 4t-4 15l18 125q2 16 35 20q156 19 338 19z" glyph-name="afii10025" horiz-adv-x="1224" unicode="З"/><glyph d="M1382 1550h140q29 0 26 -32l-235 -1487q-6 -31 -37 -31h-146q-29 0 -26 31l194 1224l-999 -1218q-35 -37 -80 -37h-125q-29 0 -26 31l237 1487q2 33 35 32h145q29 0 27 -32l-184 -1156l927 1129q31 37 52.5 47t74.5 12z" glyph-name="afii10026" horiz-adv-x="1576" unicode="И"/><glyph d="M1198 1946h66q20 0 24 -7.5t-2 -25.5q-45 -141 -118.5 -193.5t-229.5 -52.5q-154 0 -210 52.5t-58 193.5q0 33 35 33h65q25 0 31 -25q16 -66 51 -90.5t110.5 -24.5t117.5 24.5t79 90.5q10 25 39 25zM1382 1550h140q29 0 26 -32l-235 -1487q-6 -31 -37 -31h-146 q-29 0 -26 31l194 1224l-999 -1218q-35 -37 -80 -37h-125q-29 0 -26 31l237 1487q2 33 35 32h145q29 0 27 -32l-184 -1156l927 1129q31 37 52.5 47t74.5 12z" glyph-name="afii10027" horiz-adv-x="1576" unicode="Й"/><glyph d="M1161 1550h166q27 0 29 -11t-17 -28l-716 -680l530 -776q14 -18 5 -36.5t-48 -18.5h-160q-31 0 -41 23l-512 761l-121 -753q-2 -31 -34 -31h-148q-29 0 -26 31l237 1489q2 31 35 30h145q31 0 27 -30l-102 -643l706 653q20 20 45 20z" glyph-name="afii10028" horiz-adv-x="1263" unicode="К"/><glyph d="M653 1550h719q29 0 27 -30l-236 -1489q-4 -31 -35 -31h-147q-31 0 -27 31l213 1337h-381l-280 -999q-35 -123 -83 -204t-106.5 -117t-104.5 -47t-106 -11q-68 0 -116 12q-33 6 -25 37l15 102q6 31 36 31h35q123 0 174 56.5t92 207.5l301 1082q6 32 35 32z" glyph-name="afii10029" horiz-adv-x="1427" unicode="Л"/><glyph d="M1640 1550h160q27 0 27 -30l-105 -1489q0 -31 -34 -31h-148q-27 0 -27 31l93 1163l-621 -1118q-12 -25 -41 -25h-145q-29 0 -35 25l-264 1118l-281 -1163q-6 -31 -35 -31h-145q-33 0 -27 31l369 1487q6 33 33 32h159q37 0 49.5 -16t22.5 -64l266 -1163l633 1163 q27 49 43 64.5t53 15.5z" glyph-name="afii10030" horiz-adv-x="1931" unicode="М"/><glyph d="M1378 1550h148q29 0 26 -32l-237 -1487q-4 -31 -35 -31h-145q-29 0 -27 31l104 665h-831l-105 -665q-6 -31 -36 -31h-146q-29 0 -26 31l237 1487q2 33 35 32h145q29 0 27 -32l-102 -639h833l100 639q2 32 35 32z" glyph-name="afii10031" horiz-adv-x="1579" unicode="Н"/><glyph d="M885 1561q371 0 472 -165t27 -624q-37 -236 -87 -379t-137 -237.5t-210 -130t-315 -35.5q-254 0 -373 68.5t-150.5 242.5t23.5 471q37 236 87 380t137 239.5t211.5 132.5t314.5 37zM856 1378q-135 0 -219 -26.5t-142.5 -102t-90 -183.5t-62.5 -294q-55 -360 4.5 -480 t319.5 -120q135 0 219 26.5t141 100.5t89 180.5t61 292.5q63 352 1.5 479t-321.5 127z" glyph-name="afii10032" horiz-adv-x="1478" unicode="О"/><glyph d="M340 1550h1012q29 0 26 -30l-237 -1489q-2 -31 -35 -31h-148q-31 0 -24 31l211 1337h-656l-213 -1337q-2 -31 -34 -31h-146q-31 0 -26 31l235 1489q2 30 35 30z" glyph-name="afii10033" horiz-adv-x="1404" unicode="П"/><glyph d="M780 1561q102 0 177 -6.5t140.5 -19.5t107.5 -37.5t72 -61.5t42 -91.5t11 -123t-15 -160.5q-27 -162 -70 -256t-131 -145.5t-194.5 -65.5t-294.5 -14h-260l-86 -549q-4 -18 -11.5 -24.5t-25.5 -6.5h-146q-18 0 -23 6t-3 25l235 1485q4 29 35 30q207 15 440 15zM733 1378 h-241l-99 -622h242q96 0 149.5 2t110.5 12t85 28.5t56.5 53.5t43 83t26.5 122q33 207 -39 264t-334 57z" glyph-name="afii10034" horiz-adv-x="1323" unicode="Р"/><glyph d="M885 1561q236 0 379 -21q31 -4 24 -35l-14 -96q-6 -31 -35 -31h-383q-135 0 -219 -26.5t-141.5 -101t-89 -182t-60.5 -294.5q-63 -350 -1.5 -476t321.5 -126h381q31 0 24 -31l-14 -96q-2 -31 -39 -37q-131 -18 -383 -18q-254 0 -373 68.5t-149.5 242.5t24.5 473 q72 461 223.5 624t524.5 163z" glyph-name="afii10035" horiz-adv-x="1222" unicode="С"/><glyph d="M203 1550h1134q31 0 27 -30l-18 -121q-2 -31 -35 -31h-465l-213 -1337q-2 -31 -35 -31h-145q-31 0 -27 31l213 1337h-465q-31 0 -27 31l21 121q4 30 35 30z" glyph-name="afii10036" horiz-adv-x="1257" unicode="Т"/><glyph d="M1171 1550h158q39 0 21 -34l-605 -1121q-133 -244 -231 -324.5t-235 -80.5q-92 0 -146 14q-31 8 -24 39l14 98q6 31 37 31h108q68 0 119 42t117 155l-363 1144q-10 37 31 37h162q27 0 33 -22l280 -903l483 901q18 24 41 24z" glyph-name="afii10037" horiz-adv-x="1220" unicode="У"/><glyph d="M938 1567h143q31 0 25 -31l-25 -152q135 -4 230.5 -17t171.5 -41t116.5 -72t67.5 -109.5t21.5 -154.5t-19.5 -206q-29 -180 -78 -291.5t-142 -180t-222 -96.5t-334 -32l-25 -153q-4 -31 -34 -31h-146q-29 0 -26 31l24 153q-135 4 -229.5 16.5t-170 40t-116.5 71.5 t-67.5 109.5t-22.5 155t18 207.5q55 348 217 469t562 131l24 152q6 31 37 31zM717 367l131 833q-289 -8 -396.5 -90t-146.5 -325.5t43 -325.5t369 -92zM1055 1200l-133 -833q150 4 239.5 23.5t154 67.5t95.5 123.5t51 202.5q39 244 -41.5 326t-365.5 90z" glyph-name="afii10038" horiz-adv-x="1728" unicode="Ф"/><glyph d="M1208 1550h158q51 0 16 -45l-579 -698l393 -772q23 -45 -31 -45h-157q-35 0 -50 33l-305 606l-487 -596q-31 -33 -62 -33h-159q-53 0 -17 45l631 762l-358 698q-23 45 28 45h158q35 0 51 -32l273 -535l438 535q22 32 59 32z" glyph-name="afii10039" horiz-adv-x="1314" unicode="Х"/><glyph d="M1225 1550h145q31 0 27 -30l-211 -1338h135q31 0 25 -30l-70 -443q-2 -31 -35 -31h-133q-31 0 -27 31l45 291h-1030q-31 0 -26 31l235 1489q2 31 35 30h147q29 0 27 -30l-211 -1338h676l211 1338q2 30 35 30z" glyph-name="afii10040" horiz-adv-x="1472" unicode="Ц"/><glyph d="M1110 1550h145q29 0 27 -32l-235 -1487q-2 -31 -35 -31h-148q-29 0 -26 31l88 544h-224q-106 0 -177.5 4.5t-140.5 15.5t-108.5 33.5t-71.5 57.5t-43 87t-10 122t15 162l74 463q2 31 34 30h148q29 0 27 -30l-74 -461q-8 -55 -11.5 -95t3 -73t16.5 -53.5t35.5 -36 t50.5 -23.5t73 -13t92 -6t116 -1h204l121 760q2 32 35 32z" glyph-name="afii10041" horiz-adv-x="1312" unicode="Ч"/><glyph d="M1776 1550h147q31 0 27 -30l-238 -1489q-4 -31 -35 -31h-1583q-31 0 -24 31l235 1489q2 31 35 30h147q29 0 27 -30l-213 -1338h512l211 1338q4 31 35 30h145q29 0 27 -30l-211 -1338h510l211 1338q4 30 35 30z" glyph-name="afii10042" horiz-adv-x="1976" unicode="Ш"/><glyph d="M1776 1550h147q31 0 27 -30l-211 -1338h133q33 0 26 -30l-71 -443q-4 -31 -35 -31h-133q-29 0 -27 31l47 291h-1585q-31 0 -24 31l235 1489q2 31 35 30h147q29 0 27 -30l-213 -1338h512l211 1338q4 31 35 30h145q29 0 27 -30l-211 -1338h510l211 1338q4 30 35 30z" glyph-name="afii10043" horiz-adv-x="2025" unicode="Щ"/><glyph d="M205 1550h350q31 0 27 -30l-97 -600h412q262 0 372.5 -91.5t73.5 -334.5l-16 -84q-37 -244 -175 -332t-400 -88q-387 0 -588 14q-18 2 -22.5 7t-2.5 24l209 1333h-172q-29 0 -26 31l20 121q2 30 35 30zM879 739h-422l-88 -567h415q162 0 239 50t99 196l11 63 q25 152 -41 205t-213 53z" glyph-name="afii10044" horiz-adv-x="1437" unicode="Ъ"/><glyph d="M338 1550h145q29 0 27 -30l-96 -600h413q260 0 371 -91.5t74 -334.5l-15 -84q-37 -244 -176 -332t-401 -88q-385 0 -588 14q-18 2 -22 7t-2 24l235 1485q4 30 35 30zM1655 1550h147q29 0 27 -32l-238 -1487q-2 -31 -35 -31h-145q-31 0 -27 31l236 1487q2 32 35 32z M809 739h-422l-90 -567h418q160 0 236.5 50t99.5 196l10 63q25 152 -41 205t-211 53z" glyph-name="afii10045" horiz-adv-x="1857" unicode="Ы"/><glyph d="M338 1550h145q29 0 27 -30l-96 -600h413q260 0 371 -91.5t74 -334.5l-15 -84q-37 -244 -176 -332t-401 -88q-385 0 -588 14q-18 2 -22 7t-2 24l235 1485q4 30 35 30zM807 739h-420l-90 -567h418q160 0 236.5 50t99.5 196l10 63q25 152 -41 205t-213 53z" glyph-name="afii10046" horiz-adv-x="1368" unicode="Ь"/><glyph d="M678 1561q190 0 302 -38t171 -128t58 -242t-31 -379q-37 -236 -87.5 -380t-137.5 -238.5t-209.5 -130t-315.5 -35.5q-299 0 -430 18q-27 6 -25 37l15 96q6 31 37 31h434q244 0 341 105.5t152 408.5h-600q-31 0 -24 31l18 117q2 31 35 30h600q43 303 -22.5 408.5 t-309.5 105.5h-434q-33 0 -27 31l17 96q6 33 37 35q149 21 436 21z" glyph-name="afii10047" horiz-adv-x="1269" unicode="Э"/><glyph d="M1462 1561q373 0 473.5 -164t26.5 -625q-37 -236 -86 -379t-136 -237.5t-210 -130t-316 -35.5q-356 0 -462.5 148.5t-49.5 557.5h-321l-105 -665q-6 -31 -36 -31h-146q-29 0 -26 31l237 1487q2 33 35 32h145q29 0 27 -32l-102 -639h323q74 393 226.5 537.5t502.5 144.5z M1436 1378q-135 0 -219 -26.5t-142.5 -102t-90.5 -183.5t-62 -294q-57 -360 2 -480t319 -120q135 0 219 26.5t141.5 100.5t89 180.5t60.5 292.5q43 231 29.5 365.5t-91 187.5t-255.5 53z" glyph-name="afii10048" horiz-adv-x="2056" unicode="Ю"/><glyph d="M862 1561q236 0 434 -15q18 -2 23.5 -7t3.5 -23l-236 -1485q-4 -18 -10 -24.5t-24 -6.5h-148q-18 0 -23 6t-1 25l86 549h-310l-421 -535q-37 -45 -89 -45h-131q-23 0 -28.5 12.5t10.5 28.5l432 551q-182 25 -240.5 126t-19.5 343q25 160 70 256t131 151.5t197.5 74 t293.5 18.5zM1094 1378h-242q-260 0 -350 -57t-123 -264q-8 -55 -11 -95t3 -73t16 -53.5t36 -36t50.5 -23.5t72.5 -13t92 -6t116 -1h239z" glyph-name="afii10049" horiz-adv-x="1351" unicode="Я"/><glyph d="M578 1130q242 0 341 -76.5t72 -244.5l-114 -717q-4 -43 -48 -57q-129 -45 -462 -45q-215 0 -295 66.5t-49 262.5q29 176 129 246t284 70l330 2l22 137q14 96 -40 140t-197 44h-307q-18 0 -23.5 6.5t-3.5 24.5l16 84q4 27 33 33q148 24 312 24zM741 477h-325 q-88 0 -135.5 -34.5t-61.5 -118.5q-16 -98 31 -132t178 -34q168 0 266 24z" glyph-name="afii10065" horiz-adv-x="1097" unicode="а"/><glyph d="M1085 1561h70q27 0 19 -56q-14 -90 -74 -127t-187 -61q-41 -8 -110.5 -18.5t-102 -16.5t-83 -19.5t-78 -31t-60.5 -47t-53 -72.5t-37 -102q57 66 123 88t172 22q197 0 285 -46t112.5 -171t-18.5 -344q-29 -180 -62.5 -283.5t-99 -171t-158 -91t-245.5 -23.5 q-295 0 -369 111.5t-18 457.5l28 168q18 117 39 205t50.5 159.5t59 122t79 91.5t94.5 65.5t120.5 47t142.5 36.5t173 33q102 18 133 43q6 6 14.5 15t15.5 12.5t25 3.5zM649 950q-182 0 -242.5 -73.5t-99.5 -317.5q-43 -238 -4 -317.5t221 -79.5q96 0 152.5 15.5t94.5 65.5 t56.5 118.5t38.5 197.5q43 233 4 312t-221 79z" glyph-name="afii10066" horiz-adv-x="1187" unicode="б"/><glyph d="M668 1130q223 0 314 -70.5t65 -244.5q-18 -115 -64.5 -175t-134.5 -77v-4q102 -12 134 -77.5t13 -184.5q-29 -172 -139.5 -239.5t-325.5 -67.5q-340 0 -464 14q-27 2 -23 27l168 1059q2 23 31 26q180 14 426 14zM621 952h-226l-51 -319h178q170 0 235.5 27.5t82.5 127.5 q14 94 -37 129t-182 35zM608 483h-286l-50 -315h285q115 0 169 31.5t69 119.5q16 96 -31 130t-156 34z" glyph-name="afii10067" horiz-adv-x="1146" unicode="в"/><glyph d="M244 1120h692q27 0 20 -24l-22 -135q-4 -23 -27 -23h-510l-143 -915q-4 -23 -31 -23h-157q-25 0 -21 23l168 1073q6 24 31 24z" glyph-name="afii10068" horiz-adv-x="925" unicode="г"/><glyph d="M444 1120h600q27 0 21 -24l-143 -918h69q27 0 23 -22l-58 -353q-4 -23 -28 -22h-140q-27 0 -20 22l31 197h-656l-30 -197q-4 -23 -29 -22h-139q-27 0 -23 22l58 355q2 20 30 20h66q53 16 82.5 64.5t54.5 136.5l203 717q10 24 28 24zM838 942h-256l-183 -625 q-18 -70 -55 -139h373z" glyph-name="afii10069" horiz-adv-x="1177" unicode="д"/><glyph d="M649 1130q274 0 347 -107.5t26 -432.5l-10 -60q-4 -33 -20.5 -45t-63.5 -12h-652q-25 -188 18.5 -249.5t207.5 -61.5h334q29 0 26 -31l-14 -90q-4 -29 -35 -33q-135 -18 -344 -18q-197 0 -285 46t-111.5 173t19.5 350q53 346 161.5 458.5t395.5 112.5zM623 958 q-164 0 -225.5 -64.5t-96.5 -260.5h528q29 197 -9.5 261t-196.5 64z" glyph-name="afii10070" horiz-adv-x="1114" unicode="е"/><glyph d="M1475 1120h165q20 0 26.5 -9t-5.5 -21l-522 -488l395 -565q10 -14 3 -25.5t-28 -11.5h-182q-25 0 -35 16l-377 541l-84 -526q-4 -31 -34 -31h-144q-31 0 -26 31l84 526l-549 -541q-16 -16 -39 -16h-182q-20 0 -23.5 11.5t10.5 25.5l574 565l-367 488q-8 12 0 21t29 9h166 q25 0 32 -14l361 -471l72 455q4 31 34 30h146q29 0 26 -30l-71 -455l508 471q14 14 37 14z" glyph-name="afii10072" horiz-adv-x="1656" unicode="ж"/><glyph d="M494 1130q274 0 372.5 -57t71.5 -227l-8 -62q-33 -190 -185 -225q143 -35 111 -223l-6 -55q-29 -174 -144.5 -232.5t-394.5 -58.5q-166 0 -293 20q-33 6 -26 31l16 106q2 23 31 23h297q180 0 238.5 28.5t72.5 116.5l2 13q14 84 -17.5 116.5t-148.5 32.5h-327 q-25 0 -21 27l19 110q2 25 28 25h326q117 0 159 33t56 119l4 22q14 86 -41 111.5t-237 25.5h-289q-23 0 -21 21l17 108q6 25 37 31q137 20 301 20z" glyph-name="afii10073" horiz-adv-x="1024" unicode="з"/><glyph d="M1067 1120h125q27 0 20 -22l-170 -1075q-4 -23 -28 -23h-156q-23 0 -20 23l123 768l-709 -758q-31 -33 -72 -33h-114q-25 0 -21 23l168 1075q6 23 29 22h155q27 0 21 -22l-117 -738l664 713q25 29 43 38t59 9z" glyph-name="afii10074" horiz-adv-x="1284" unicode="и"/><glyph d="M1006 1536h67q20 0 24.5 -7t-1.5 -26q-45 -141 -118 -193.5t-228.5 -52.5t-213 52.5t-57.5 193.5q-2 33 33 33h68q25 0 30 -25q16 -66 50 -90t110 -24t118 24.5t79 89.5q14 25 39 25zM1067 1120h125q27 0 20 -22l-170 -1075q-4 -23 -28 -23h-156q-23 0 -20 23l123 768 l-709 -758q-31 -33 -72 -33h-114q-25 0 -21 23l168 1075q6 23 29 22h155q27 0 21 -22l-117 -738l664 713q25 29 43 38t59 9z" glyph-name="afii10075" horiz-adv-x="1284" unicode="й"/><glyph d="M895 1120h168q18 0 24.5 -9t-6.5 -21l-522 -488l395 -565q10 -14 3 -25.5t-27 -11.5h-182q-25 0 -35 16l-377 541l-82 -526q-4 -31 -35 -31h-147q-31 0 -27 31l168 1059q4 31 35 30h147q31 0 27 -30l-72 -455l508 471q14 14 37 14z" glyph-name="afii10076" horiz-adv-x="1064" unicode="к"/><glyph d="M469 1120h604q27 0 21 -22l-168 -1075q-4 -23 -29 -23h-158q-23 0 -18 23l145 917h-262l-184 -649q-86 -299 -334 -299q-47 0 -102 10q-31 8 -25 37l16 113q2 20 29 20h31q92 0 130 39t66 139l211 748q11 22 27 22z" glyph-name="afii10077" horiz-adv-x="1165" unicode="л"/><glyph d="M1272 1120h151q20 0 21 -20l-62 -1077q-2 -23 -26 -23h-160q-20 0 -20 23l47 747l-430 -715q-10 -18 -35 -18h-131q-25 0 -31 18l-199 715l-190 -747q-8 -23 -29 -23h-160q-25 0 -18 23l276 1075q10 23 29 22h152q31 0 44 -12t23 -47l209 -756l453 758q18 35 35.5 46 t50.5 11z" glyph-name="afii10078" horiz-adv-x="1579" unicode="м"/><glyph d="M1042 1120h148q31 0 27 -30l-170 -1059q-2 -31 -35 -31h-146q-31 0 -26 31l69 438h-585l-70 -438q-4 -31 -35 -31h-147q-31 0 -27 31l168 1059q4 31 35 30h147q31 0 27 -30l-70 -439h588l68 439q3 30 34 30z" glyph-name="afii10079" horiz-adv-x="1286" unicode="н"/><glyph d="M659 1130q293 0 368 -112.5t19.5 -458.5t-165 -457.5t-402.5 -111.5t-367.5 111.5t-19.5 457.5q29 180 63.5 283.5t99 172t157.5 92t247 23.5zM633 958q-182 0 -243.5 -75.5t-100.5 -323.5q-43 -238 -4 -317.5t221 -79.5t243.5 75.5t100.5 321.5q43 240 3 319.5 t-220 79.5z" glyph-name="afii10080" horiz-adv-x="1169" unicode="о"/><glyph d="M248 1120h809q29 0 26 -30l-170 -1059q-4 -31 -34 -31h-146q-29 0 -26 31l145 907h-455l-143 -907q-4 -31 -35 -31h-147q-31 0 -27 31l168 1059q4 30 35 30z" glyph-name="afii10081" horiz-adv-x="1153" unicode="п"/><glyph d="M674 1130q295 0 369.5 -112.5t19.5 -456.5q-53 -344 -162.5 -457.5t-396.5 -113.5q-166 0 -268 12l-60 -377q-4 -31 -35 -31h-135q-31 0 -26 31l227 1436q6 29 37 35q225 34 430 34zM649 958h-262l-125 -780q131 -16 258 -16q184 0 245.5 74.5t100.5 322.5 q45 238 5 318.5t-222 80.5z" glyph-name="afii10082" horiz-adv-x="1183" unicode="р"/><glyph d="M659 1130q178 0 308 -18q31 -4 24 -35l-16 -88q-4 -31 -35 -31h-307q-182 0 -243.5 -75.5t-100.5 -323.5q-43 -238 -4 -317.5t221 -79.5h309q29 0 27 -31l-15 -88q-6 -33 -36 -35q-135 -18 -312 -18q-295 0 -368.5 111.5t-18.5 457.5q29 180 62.5 283.5t99 172t158.5 92 t247 23.5z" glyph-name="afii10083" horiz-adv-x="997" unicode="с"/><glyph d="M145 1120h891q29 0 27 -30l-21 -121q-6 -31 -34 -31h-340l-146 -907q-2 -31 -35 -31h-147q-29 0 -27 31l146 907h-340q-33 0 -27 31l19 121q3 30 34 30z" glyph-name="afii10084" horiz-adv-x="1032" unicode="т"/><glyph d="M977 1120h135q31 0 27 -30l-158 -988q-35 -211 -88 -316t-160.5 -153.5t-306.5 -48.5q-174 0 -305 19q-29 4 -23 32l15 89q2 31 32 30h304q170 0 233 49.5t86 190.5v12q-102 -16 -272 -16q-287 0 -361 111.5t-18 447.5l84 541q4 31 35 30h135q31 0 26 -30l-84 -529 q-43 -240 -3 -319.5t225 -79.5q145 0 262 14l145 914q4 30 35 30z" glyph-name="afii10085" horiz-adv-x="1210" unicode="у"/><glyph d="M854 1550h135q31 0 27 -30l-70 -445q76 55 223 55q188 0 254 -131t17 -440q-49 -311 -155.5 -440t-297.5 -129q-152 0 -205 55l-67 -420q-2 -31 -35 -31h-135q-29 0 -27 31l68 420q-74 -55 -224 -55q-190 0 -255.5 130t-16.5 439t156.5 440t296.5 131q150 0 207 -55 l69 445q4 30 35 30zM553 956q-125 0 -177 -84t-89 -313q-41 -219 -13.5 -308t152.5 -89t184 43l113 710q-43 41 -170 41zM1104 956q-127 0 -182 -41l-113 -710q43 -43 168 -43t178 84t88 313q41 219 13.5 308t-152.5 89z" glyph-name="afii10086" horiz-adv-x="1560" unicode="ф"/><glyph d="M901 1120h166q16 0 19.5 -11t-11.5 -26l-428 -489l307 -557q14 -37 -22 -37h-166q-20 0 -27 18l-231 420l-367 -420q-12 -18 -30 -18h-166q-16 0 -19.5 10t8.5 27l486 557l-275 489q-8 14 -1.5 25.5t22.5 11.5h166q20 0 30 -18l197 -352l305 352q17 18 37 18z" glyph-name="afii10087" horiz-adv-x="1079" unicode="х"/><glyph d="M922 1120h145q31 0 27 -30l-142 -908h97q29 0 26 -30l-55 -340q-4 -31 -35 -31h-135q-31 0 -27 31l31 188h-782q-31 0 -27 31l168 1059q4 31 35 30h147q31 0 27 -30l-143 -908h464l144 908q2 30 35 30z" glyph-name="afii10088" horiz-adv-x="1208" unicode="ц"/><glyph d="M827 1120h146q31 0 26 -30l-168 -1059q-4 -31 -34 -31h-148q-31 0 -26 31l59 362h-64q-125 0 -202.5 5t-144 24.5t-99.5 50.5t-52.5 86t-17.5 130t19 185l35 216q4 31 34 30h148q31 0 27 -30l-35 -211q-12 -78 -15.5 -124t9 -83t31 -53.5t66.5 -27.5t98 -13.5t147 -2.5 h45l82 515q1 30 34 30z" glyph-name="afii10089" horiz-adv-x="1071" unicode="ч"/><glyph d="M1360 1120h145q31 0 27 -30l-168 -1059q-4 -31 -35 -31h-1257q-31 0 -27 31l168 1059q4 31 35 30h147q31 0 27 -30l-143 -910h350l143 910q2 31 35 30h141q31 0 27 -30l-144 -910h351l143 910q2 30 35 30z" glyph-name="afii10090" horiz-adv-x="1603" unicode="ш"/><glyph d="M1358 1120h147q31 0 25 -30l-141 -908h98q31 0 24 -30l-55 -340q-4 -31 -35 -31h-135q-31 0 -26 31l30 188h-1218q-31 0 -27 31l170 1059q4 31 35 30h145q31 0 27 -30l-143 -908h348l141 908q4 31 35 30h147q31 0 27 -30l-143 -908h346l143 908q4 30 35 30z" glyph-name="afii10091" horiz-adv-x="1646" unicode="щ"/><glyph d="M137 1120h395q27 0 21 -22l-64 -418h289q217 0 306.5 -67.5t60.5 -239.5l-12 -76q-27 -172 -137.5 -239.5t-325.5 -67.5q-346 0 -471 14q-20 2 -19 21l146 913h-217q-27 0 -23 23l20 137q6 22 31 22zM754 508h-291l-55 -340h286q115 0 168 31.5t68 117.5l6 37 q14 90 -32 122t-150 32z" glyph-name="afii10092" horiz-adv-x="1253" unicode="ъ"/><glyph d="M242 1120h157q27 0 21 -22l-66 -418h291q215 0 304 -67.5t61 -239.5l-11 -76q-29 -172 -139 -239.5t-325 -67.5q-346 0 -472 14q-20 2 -18 21l168 1073q6 22 29 22zM1270 1120h135q29 0 27 -30l-168 -1059q-2 -31 -35 -31h-135q-29 0 -27 31l168 1059q2 30 35 30z M618 508h-290l-54 -340h285q115 0 168 31.5t68 117.5l6 37q14 90 -32.5 122t-150.5 32z" glyph-name="afii10093" horiz-adv-x="1503" unicode="ы"/><glyph d="M244 1120h155q27 0 21 -24l-66 -416h291q215 0 304 -67.5t61 -239.5l-11 -76q-29 -172 -139 -239.5t-325 -67.5q-346 0 -472 14q-20 2 -18 27l168 1067q6 22 31 22zM618 508h-290l-54 -340h285q115 0 168 31.5t68 117.5l6 37q14 90 -32.5 122t-150.5 32z" glyph-name="afii10094" horiz-adv-x="1120" unicode="ь"/><glyph d="M530 1130q295 0 378 -119.5t30 -449.5q-53 -332 -173 -451.5t-417 -119.5q-211 0 -340 20q-29 4 -26 33l16 102q4 23 29 23h350q170 0 238.5 64.5t103.5 244.5h-457q-23 0 -20 21l18 125q2 20 29 20h456q20 178 -27.5 243.5t-217.5 65.5h-350q-23 0 -21 23l16 100 q6 29 37 35q133 20 348 20z" glyph-name="afii10095" horiz-adv-x="1058" unicode="э"/><glyph d="M1122 1130q293 0 368 -112.5t19 -458.5q-53 -346 -162.5 -457.5t-404.5 -111.5q-276 0 -355 96t-44 383h-219l-70 -438q-4 -31 -35 -31h-147q-31 0 -27 31l168 1059q4 31 35 30h147q31 0 27 -30l-70 -439h221q53 287 164 383t385 96zM1095.5 958q-182.5 0 -243.5 -75.5 t-100 -323.5q-43 -238 -3.5 -317.5t220.5 -79.5q182 0 243.5 75.5t100.5 321.5q43 240 4 319.5t-221.5 79.5z" glyph-name="afii10096" horiz-adv-x="1632" unicode="ю"/><glyph d="M651 1130q248 0 371 -14q25 -2 20 -22l-168 -1071q-4 -23 -28 -23h-158q-16 0 -19 4t-1 19l61 385h-199l-321 -375q-27 -33 -70 -33h-147q-39 0 -15 29l332 393q-137 23 -182 96.5t-18 237.5q35 219 150.5 296.5t391.5 77.5zM815 950h-182q-170 0 -232.5 -39t-83.5 -159 q-18 -121 31 -153t225 -32h181z" glyph-name="afii10097" horiz-adv-x="1116" unicode="я"/><glyph d="M518 1513q123 0 105 -120q-23 -125 -144 -125q-127 0 -108 125q18 120 147 120zM899 1513q125 0 107 -120q-23 -125 -146 -125q-125 0 -106 125q18 120 145 120zM649 1130q274 0 347 -107.5t26 -432.5l-10 -60q-4 -33 -20.5 -45t-63.5 -12h-652q-25 -188 18.5 -249.5 t207.5 -61.5h334q29 0 26 -31l-14 -90q-4 -29 -35 -33q-135 -18 -344 -18q-197 0 -285 46t-111.5 173t19.5 350q53 346 161.5 458.5t395.5 112.5zM623 958q-164 0 -225.5 -64.5t-96.5 -260.5h528q29 197 -9.5 261t-196.5 64z" glyph-name="afii10071" horiz-adv-x="1114" unicode="ё"/><glyph d="M1094 1964h180q18 0 22 -12l111 -248q10 -16 -10 -29l-45 -26q-18 -14 -29 0l-246 252q-8 8 -8 28v15q0 20 25 20zM2118 1550h161q18 0 22.5 -7t-1.5 -25l-481 -1289q-59 -158 -111.5 -198.5t-194.5 -40.5q-156 0 -193.5 39t-49.5 200l-76 928l-367 -928 q-49 -117 -79.5 -159.5t-82 -61t-161.5 -18.5q-141 0 -180 41t-48 198l-73 1289q0 33 28 32h164q20 0 23 -32l65 -1229q2 -70 13.5 -89.5t44.5 -19.5q41 0 59 18.5t47 90.5l477 1165q12 33 39 33h164q31 0 33 -33l106 -1165q8 -72 20.5 -90.5t51.5 -18.5q33 0 50.5 19.5 t43.5 89.5l455 1229q8 20 13.5 26t17.5 6z" glyph-name="Wgrave" horiz-adv-x="2226" unicode="Ẁ"/><glyph d="M678 1554h180q18 0 23 -12l110 -248q10 -16 -10 -28l-45 -27q-18 -14 -29 0l-243 252q-8 6 -9 29v14q0 20 23 20zM1546 1120h148q18 0 22 -6t-2 -27l-315 -866q-57 -152 -105.5 -191.5t-173.5 -39.5q-131 0 -160.5 35.5t-39.5 195.5l-41 574l-224 -574 q-63 -160 -104 -195.5t-172 -35.5q-123 0 -159 40t-44 191l-41 866q0 20 5 26.5t24 6.5h147q20 0 23 -33l33 -841q2 -51 12 -64.5t33 -13.5q25 0 34 11t31 67l328 809q14 33 33 32h174q18 0 20 -32l72 -809q2 -53 9 -65.5t34 -12.5q23 0 35 13.5t30 64.5l304 841 q8 20 13 26.5t17 6.5z" glyph-name="wgrave" horiz-adv-x="1710" unicode="ẁ"/><glyph d="M1415 1964h182q18 0 19 -20v-11q0 -14 -17 -28l-333 -256q-14 -12 -29 0l-35 26q-12 12 -2 29l189 248q8 12 26 12zM2118 1550h161q18 0 22.5 -7t-1.5 -25l-481 -1289q-59 -158 -111.5 -198.5t-194.5 -40.5q-156 0 -193.5 39t-49.5 200l-76 928l-367 -928 q-49 -117 -79.5 -159.5t-82 -61t-161.5 -18.5q-141 0 -180 41t-48 198l-73 1289q0 33 28 32h164q20 0 23 -32l65 -1229q2 -70 13.5 -89.5t44.5 -19.5q41 0 59 18.5t47 90.5l477 1165q12 33 39 33h164q31 0 33 -33l106 -1165q8 -72 20.5 -90.5t51.5 -18.5q33 0 50.5 19.5 t43.5 89.5l455 1229q8 20 13.5 26t17.5 6z" glyph-name="Wacute" horiz-adv-x="2226" unicode="Ẃ"/><glyph d="M1092 1554h182q18 0 18 -20v-10q0 -14 -16 -29l-334 -256q-14 -12 -29 0l-34 27q-12 12 -2 28l188 248q9 12 27 12zM1546 1120h148q18 0 22 -6t-2 -27l-315 -866q-57 -152 -105.5 -191.5t-173.5 -39.5q-131 0 -160.5 35.5t-39.5 195.5l-41 574l-224 -574 q-63 -160 -104 -195.5t-172 -35.5q-123 0 -159 40t-44 191l-41 866q0 20 5 26.5t24 6.5h147q20 0 23 -33l33 -841q2 -51 12 -64.5t33 -13.5q25 0 34 11t31 67l328 809q14 33 33 32h174q18 0 20 -32l72 -809q2 -53 9 -65.5t34 -12.5q23 0 35 13.5t30 64.5l304 841 q8 20 13 26.5t17 6.5z" glyph-name="wacute" horiz-adv-x="1710" unicode="ẃ"/><glyph d="M1126 1923q123 0 105 -121q-18 -125 -144 -125q-129 0 -106 125q18 121 145 121zM1507 1923q125 0 107 -121q-18 -125 -145.5 -125t-104.5 125q18 121 143 121zM2118 1550h161q18 0 22.5 -7t-1.5 -25l-481 -1289q-59 -158 -111.5 -198.5t-194.5 -40.5q-156 0 -193.5 39 t-49.5 200l-76 928l-367 -928q-49 -117 -79.5 -159.5t-82 -61t-161.5 -18.5q-141 0 -180 41t-48 198l-73 1289q0 33 28 32h164q20 0 23 -32l65 -1229q2 -70 13.5 -89.5t44.5 -19.5q41 0 59 18.5t47 90.5l477 1165q12 33 39 33h164q31 0 33 -33l106 -1165q8 -72 20.5 -90.5 t51.5 -18.5q33 0 50.5 19.5t43.5 89.5l455 1229q8 20 13.5 26t17.5 6z" glyph-name="Wdieresis" horiz-adv-x="2226" unicode="Ẅ"/><glyph d="M803 1513q123 0 104 -120q-23 -125 -143 -125q-127 0 -109 125q19 120 148 120zM1184 1513q125 0 106 -120q-23 -125 -145 -125q-125 0 -107 125q19 120 146 120zM1546 1120h148q18 0 22 -6t-2 -27l-315 -866q-57 -152 -105.5 -191.5t-173.5 -39.5q-131 0 -160.5 35.5 t-39.5 195.5l-41 574l-224 -574q-63 -160 -104 -195.5t-172 -35.5q-123 0 -159 40t-44 191l-41 866q0 20 5 26.5t24 6.5h147q20 0 23 -33l33 -841q2 -51 12 -64.5t33 -13.5q25 0 34 11t31 67l328 809q14 33 33 32h174q18 0 20 -32l72 -809q2 -53 9 -65.5t34 -12.5 q23 0 35 13.5t30 64.5l304 841q8 20 13 26.5t17 6.5z" glyph-name="wdieresis" horiz-adv-x="1710" unicode="ẅ"/><glyph d="M653 1964h183q18 0 22 -12l109 -248q10 -16 -11 -29l-45 -26q-18 -14 -28 0l-244 252q-8 8 -8 28v15q-1 20 22 20zM1294 1550h158q47 0 16 -45l-718 -1034l-70 -440q-4 -31 -35 -31h-147q-31 0 -27 31l72 440l-391 1034q-20 45 28 45h158q37 0 51 -32l293 -820l553 820 q20 32 59 32z" glyph-name="Ygrave" horiz-adv-x="1347" unicode="Ỳ"/><glyph d="M532 1554h183q18 0 22 -12l109 -248q10 -16 -10 -28l-45 -27q-18 -14 -29 0l-244 252q-8 8 -8 29v14q-1 20 22 20zM977 1120h135q31 0 27 -30l-156 -988q-35 -211 -88 -316t-160.5 -153.5t-306.5 -48.5q-176 0 -307 19q-29 4 -23 32l15 89q2 31 34 30h304 q170 0 233.5 49.5t85.5 190.5v12q-102 -16 -272 -16q-287 0 -361 111.5t-20 447.5l86 541q2 31 35 30h135q29 0 26 -30l-84 -529q-43 -240 -3 -319.5t225 -79.5q145 0 260 14l145 914q4 30 35 30z" glyph-name="ygrave" horiz-adv-x="1210" unicode="ỳ"/><glyph d="M983 1679q-49 0 -141 41t-125 41q-37 0 -57.5 -14t-45.5 -55q-18 -29 -43 -21l-45 12q-29 12 -14 46q53 119 98 157.5t123 38.5q49 0 140.5 -41t123.5 -41q37 0 58.5 14.5t46.5 55.5q18 31 43 22l45 -12q29 -12 14 -47q-53 -117 -98 -157t-123 -40zM1294 1550h158 q47 0 16 -45l-718 -1034l-70 -440q-4 -31 -35 -31h-147q-31 0 -27 31l72 440l-391 1034q-20 45 28 45h158q37 0 51 -32l293 -820l553 820q20 32 59 32z" glyph-name="uni1EF8" horiz-adv-x="1347" unicode="Ỹ"/><glyph d="M862 1270q-49 0 -141 41t-125 41q-37 0 -58.5 -14.5t-43.5 -55.5q-18 -29 -43 -20l-45 12q-29 12 -15 45q53 119 98.5 158t122.5 39q49 0 140.5 -41t124.5 -41q37 0 58 14t46 55q18 31 43 23l45 -13q29 -12 14 -47q-53 -117 -98 -156.5t-123 -39.5zM977 1120h135 q31 0 27 -30l-156 -988q-35 -211 -88 -316t-160.5 -153.5t-306.5 -48.5q-176 0 -307 19q-29 4 -23 32l15 89q2 31 34 30h304q170 0 233.5 49.5t85.5 190.5v12q-102 -16 -272 -16q-287 0 -361 111.5t-20 447.5l86 541q2 31 35 30h135q29 0 26 -30l-84 -529 q-43 -240 -3 -319.5t225 -79.5q145 0 260 14l145 914q4 30 35 30z" glyph-name="uni1EF9" horiz-adv-x="1210" unicode="ỹ"/><glyph d="M166 653h942q31 0 27 -30l-21 -121q-6 -31 -37 -31h-940q-33 0 -26 31l20 121q4 30 35 30z" glyph-name="endash" horiz-adv-x="1271" unicode="–"/><glyph d="M166 653h1517q29 0 27 -30l-18 -121q-6 -31 -37 -31h-1518q-33 0 -26 31l20 121q4 30 35 30z" glyph-name="emdash" horiz-adv-x="1847" unicode="—"/><glyph d="M539 1548l43 -26q14 -8 2 -29l-217 -483q-8 -16 -31 -17h-184q-18 0 -17 21l4 28q4 14 15 27l352 469q19 18 33 10z" glyph-name="quoteleft" horiz-adv-x="524" unicode="‘"/><glyph d="M395 1550h187q20 0 18 -20l-4 -29q-2 -8 -14 -26l-357 -469q-14 -18 -30 -11l-43 25q-12 10 -2 29l219 485q8 16 26 16z" glyph-name="quoteright" horiz-adv-x="512" unicode="’"/><glyph d="M131 244h184q18 0 17 -21l-4 -28q-2 -6 -15 -27l-354 -469q-16 -18 -31 -10l-45 24q-12 8 0 29l217 483q11 19 31 19z" glyph-name="quotesinglbase" horiz-adv-x="497" unicode="‚"/><glyph d="M539 1548l45 -26q12 -8 0 -29l-217 -483q-8 -16 -31 -17h-184q-18 0 -17 21l4 28q4 14 15 27l354 469q17 18 31 10zM920 1548l45 -26q12 -8 0 -29l-217 -483q-8 -16 -31 -17h-185q-18 0 -16 21l4 28q4 14 15 27l354 469q17 18 31 10z" glyph-name="quotedblleft" horiz-adv-x="905" unicode="“"/><glyph d="M395 1550h187q20 0 18 -20l-4 -29q-2 -8 -14 -26l-357 -469q-14 -18 -30 -11l-43 25q-12 10 -2 29l219 485q8 16 26 16zM803 1550h186q20 0 19 -20l-7 -29q-2 -8 -14 -26l-354 -469q-14 -18 -31 -11l-43 25q-12 10 -2 29l217 485q9 16 29 16z" glyph-name="quotedblright" horiz-adv-x="917" unicode="”"/><glyph d="M131 244h184q20 0 19 -21l-6 -28q-2 -6 -15 -27l-352 -469q-16 -18 -31 -10l-45 24q-12 10 -2 29l217 483q11 19 31 19zM530 244h187q18 0 16 -21l-6 -28q-2 -6 -14 -27l-353 -469q-16 -18 -30 -10l-45 24q-12 8 0 29l215 483q7 19 30 19z" glyph-name="quotedblbase" horiz-adv-x="897" unicode="„"/><glyph d="M559 1550h135q31 0 27 -30l-55 -361h264q31 0 24 -31l-16 -110q-4 -31 -35 -31h-266l-152 -956q-2 -31 -34 -31h-136q-29 0 -26 31l151 958h-262q-31 0 -26 31l16 108q6 31 37 31h264l55 361q4 30 35 30z" glyph-name="dagger" horiz-adv-x="972" unicode="†"/><glyph d="M559 1550h135q31 0 27 -30l-55 -361h264q31 0 24 -31l-16 -110q-4 -31 -35 -31h-266l-64 -391h267q33 0 26 -31l-16 -110q-6 -31 -37 -31h-264l-64 -393q-2 -31 -34 -31h-136q-29 0 -26 31l63 395h-264q-31 0 -27 31l19 108q6 31 35 31h262l63 393h-262q-31 0 -26 31 l16 108q6 31 37 31h264l55 361q4 30 35 30z" glyph-name="daggerdbl" horiz-adv-x="972" unicode="‡"/><glyph d="M610 874q147 0 218 -74.5t51 -205.5q-20 -133 -114.5 -208t-242.5 -75q-150 0 -221.5 75t-50.5 208q23 133 116.5 206.5t243.5 73.5z" glyph-name="bullet" horiz-adv-x="1146" unicode="•"/><glyph d="M170 227q119 0 102 -116q-23 -121 -141 -121q-121 0 -102 121q18 116 141 116zM555 227q119 0 102 -116q-23 -121 -141 -121q-121 0 -102 121q18 116 141 116zM942 227q119 0 102 -116q-23 -121 -141 -121q-121 0 -102 121q18 116 141 116z" glyph-name="ellipsis" horiz-adv-x="1220" unicode="…"/><glyph d="M578 1559q211 0 274 -88.5t24.5 -328t-129 -327.5t-303.5 -88t-275.5 88t-23.5 328q37 240 128.5 328t304.5 88zM1442 1550h92q31 0 8 -30l-1018 -1489q-18 -31 -51 -31h-90q-29 0 -10 31l1016 1489q20 30 53 30zM551 1395q-104 0 -151.5 -53.5t-69.5 -198.5 q-23 -143 8 -198.5t133 -55.5q104 0 151.5 54t69.5 200q23 143 -8 197.5t-133 54.5zM1466 821q213 0 275.5 -88t23.5 -327q-37 -240 -128 -328t-304 -88q-211 0 -274.5 88t-24.5 327.5t129 327.5t303 88zM2347 821q211 0 275.5 -88t25.5 -327q-37 -240 -128 -328t-304 -88 q-211 0 -274.5 88t-26.5 328q39 240 130 327.5t302 87.5zM1439.5 659q-104.5 0 -150.5 -54t-70 -199q-23 -143 7.5 -198.5t133.5 -55.5q104 0 151.5 54t69.5 200q25 143 -6 198t-135.5 55zM2322 659q-104 0 -151 -54t-69.5 -199.5t7 -199.5t134.5 -54q102 0 150 54t71 200 q23 143 -8.5 198t-133.5 55z" glyph-name="perthousand" horiz-adv-x="2750" unicode="‰"/><glyph d="M403 954h134q29 0 26 -30l-2 -15q-2 -18 -20 -37l-301 -313l200 -311q12 -20 9 -37l-3 -14q-4 -31 -34 -31h-133q-23 0 -35 18l-181 297q-12 16 -8 39l15 78q2 18 18 41l277 297q18 18 38 18z" glyph-name="guilsinglleft" horiz-adv-x="628" unicode="‹"/><glyph d="M190 954h134q23 0 34 -18l181 -297q10 -18 8 -41l-15 -78q-2 -20 -18 -39l-276 -297q-18 -18 -39 -18h-133q-29 0 -27 31l2 14q6 23 20 37l301 311l-200 313q-10 16 -8 37l2 15q5 30 34 30z" glyph-name="guilsinglright" horiz-adv-x="630" unicode="›"/><glyph d="M637 1620h63q29 0 11 -35l-963 -1620q-23 -35 -53 -35h-66q-31 0 -8 35l965 1620q22 35 51 35z" glyph-name="fraction" horiz-adv-x="286" unicode="⁄"/><glyph d="M590 1872q190 0 241.5 -89t10.5 -337q-39 -248 -117 -335t-268.5 -87t-241.5 88t-10 334q41 250 119 338t266 88zM567 1735q-96 0 -138 -60.5t-71 -228.5q-27 -166 -2 -225.5t121 -59.5q98 0 140 58.5t69 226.5q29 166 4 227.5t-123 61.5z" glyph-name="uni2070" horiz-adv-x="792" unicode="⁰"/><glyph d="M408 1866h131q14 0 6 -15l-211 -473h211l28 187q4 10 15 14l137 43q8 2 11 -1t1 -11l-37 -232h121q14 0 13 -12l-17 -111q-2 -12 -16 -12h-121l-33 -199q0 -14 -16 -14h-129q-10 0 -10 14l32 199h-366q-12 0 -11 12l13 82q4 16 14 35l217 483q3 11 17 11z" glyph-name="uni2074" horiz-adv-x="761" unicode="⁴"/><glyph d="M322 1866h471q12 0 12 -13l-19 -112q0 -12 -16 -12h-356l-45 -201q45 10 129 10q57 0 101 -8t85 -27.5t58.5 -62.5t7.5 -105l-17 -108q-20 -119 -108 -161t-232 -42q-139 0 -227 16q-18 6 -16 25l14 82q2 14 12 14h217q90 0 134 20.5t55 80.5l6 36q10 61 -28 83t-128 22 h-203q-14 0 -19 5t-3 15l16 95l76 331q7 17 23 17z" glyph-name="uni2075" horiz-adv-x="712" unicode="⁵"/><glyph d="M506 1866h137q16 0 8 -17l-219 -329q41 14 111 14q123 0 188.5 -44t48.5 -144l-18 -125q-20 -115 -104.5 -156t-227.5 -41q-70 0 -119 7t-91 27.5t-58.5 61.5t-5.5 103l16 114q8 59 37 99l280 419q7 11 17 11zM489 1407q-86 0 -121.5 -20.5t-45.5 -81.5l-5 -43 q-10 -61 19 -81t115 -20q82 0 116.5 19.5t44.5 81.5l6 43q10 61 -18.5 81.5t-110.5 20.5z" glyph-name="uni2076" horiz-adv-x="724" unicode="⁶"/><glyph d="M252 1866h575q12 0 13 -13l-15 -86q0 -10 -8 -18l-485 -711q-6 -8 -17 -8h-151q-14 0 -8 14l473 685h-400q-12 0 -12 12l19 112q2 13 16 13z" glyph-name="uni2077" horiz-adv-x="692" unicode="⁷"/><glyph d="M575 1872h19q143 0 203.5 -56.5t42.5 -173.5q-20 -139 -144 -202q129 -53 105 -191q-37 -225 -344 -225h-21q-154 0 -222.5 55.5t-47.5 167.5q12 80 54 130t120 85q-59 31 -76.5 73t-7.5 110q32 227 319 227zM567 1735h-10q-131 0 -149 -109q-12 -78 79 -98l109 -25 q72 31 86 119q10 55 -18.5 84t-96.5 29zM571 1370l-133 33q-98 -35 -110 -123q-10 -59 24.5 -89t110.5 -30h12q158 0 172 103q14 83 -76 106z" glyph-name="uni2078" horiz-adv-x="776" unicode="⁸"/><glyph d="M545 1870q147 0 221 -42t55 -159l-18 -115q-8 -59 -37 -96l-281 -420q-6 -8 -16 -8h-135q-14 0 -6 14l221 330q-41 -12 -113 -12q-125 0 -190.5 43t-48.5 145l18 123q18 115 102.5 156t227.5 41zM524 1733q-82 0 -115.5 -19.5t-43.5 -81.5l-9 -43q-8 -61 18.5 -81.5 t108.5 -20.5q88 0 125 20.5t45 81.5l9 43q8 61 -22 81t-116 20z" glyph-name="uni2079" horiz-adv-x="722" unicode="⁹"/><glyph d="M465 1917h110q6 0 7 -8l-2 -8q0 -10 -5 -13q-100 -113 -147 -191.5t-59.5 -125.5t-32.5 -174q-12 -78 -16.5 -121t13 -111.5t28 -97.5t61.5 -160q4 -6 0 -12v-8q-2 -8 -10 -8h-109q-10 0 -16 6q-53 72 -80 125t-33 116.5t-3 99.5t19 130q4 27 7 41q2 16 10 67.5t10 64.5 t10.5 53t15.5 54.5t20 48t29.5 53t39 50.5t52.5 59.5t67 61.5q6 8 14 8z" glyph-name="uni207D" horiz-adv-x="419" unicode="⁽"/><glyph d="M246 1917h108q8 0 15 -8q96 -133 112.5 -235.5t-14.5 -231.5q-4 -29 -6 -45q-2 -18 -10.5 -67.5t-10.5 -64t-10 -53t-15 -53t-20.5 -48.5t-30 -53.5t-39 -50t-52 -60t-66.5 -62.5q-8 -6 -17 -6h-108q-8 0 -6 8v8q2 2 2 6t2 6q102 113 150.5 193t59.5 124t32 173 q12 78 15 123t-12.5 110.5t-28.5 100t-60 157.5v13l2 8q0 8 8 8z" glyph-name="uni207E" horiz-adv-x="419" unicode="⁾"/><glyph d="M1044 1550q94 0 222 -10q33 -6 26 -27l-20 -124q-2 -20 -33 -21h-246q-244 0 -335 -56.5t-117 -219.5l-39 -242h506q33 0 26 -31l-10 -61q-4 -31 -35 -31h-506l-22 -143h506q31 0 24 -31l-8 -64q-6 -31 -35 -30h-506l-45 -277h705q33 0 26 -30l-20 -121q-2 -31 -35 -31 h-1083q-31 0 -23 31l41 121q10 31 41 30h141l43 277h-110q-33 0 -27 30l8 64q6 31 39 31h109l22 143h-110q-29 0 -27 31l13 61q6 31 34 31h111l39 252q43 268 188 358t522 90z" glyph-name="lira" horiz-adv-x="1273" unicode="₤"/><glyph d="M1335 1540q39 -4 23 -43l-41 -88q-18 -31 -37 -31h-252q-221 0 -320.5 -85t-152.5 -316h537q31 0 18 -31l-31 -69q-10 -31 -43 -31h-506l-12 -72q-2 -10 -5 -26.5t-3 -24.5h477q29 0 17 -31l-29 -69q-16 -31 -47 -31h-434q-25 -242 45.5 -331t296.5 -89h276q31 0 25 -31 l-15 -96q-2 -31 -39 -37q-131 -18 -276 -18q-336 0 -446.5 128t-75.5 474h-217q-31 0 -17 31l29 69q12 31 45 31h176l8 51q8 49 13 72h-146q-29 0 -20 31l30 69q12 31 43 31h117q76 334 227.5 459t481.5 125q137 -1 280 -21z" glyph-name="Euro" horiz-adv-x="1308" unicode="€"/><glyph d="M276 1548h1143q31 0 27 -30l-10 -66q-6 -31 -37 -31h-363q59 -88 45 -264h279q33 0 26 -31l-12 -65q-2 -31 -35 -31h-276q-39 -225 -128 -319.5t-276 -118.5l259 -551q10 -16 0.5 -28.5t-31.5 -12.5h-131q-33 0 -47.5 10t-28.5 35l-254 535h-303q-29 0 -27 30l19 115 q6 31 35 31h237q113 0 172 4t118.5 17.5t88.5 44t51.5 79.5t36.5 129h-659q-31 0 -27 31l10 65q6 31 37 31h653q8 139 -70.5 180t-310.5 41h-237q-33 0 -27 31l19 109q3 30 34 30z" glyph-name="uni20B9" horiz-adv-x="1374" unicode="₹"/><glyph d="M885 1561q106 0 179 -4.5t140.5 -15.5t107.5 -33.5t72.5 -56.5t43 -85t10.5 -118.5t-15 -160.5q-16 -109 -40.5 -184.5t-66.5 -128.5t-88 -82.5t-126 -46t-159 -22t-208 -5.5h-258l-22 -135h356q33 0 27 -30l-15 -99q-6 -31 -37 -30h-356l-47 -293q-4 -18 -10 -24.5 t-25 -6.5h-147q-18 0 -23.5 6t-1.5 25l47 293h-160q-33 0 -26 30l14 99q6 31 37 30h158l26 154h-159q-31 0 -27 31l14 96q6 31 39 31h158l115 721q4 29 34 30q208 15 439 15zM840 1378h-242l-92 -583h242q78 0 115.5 1t92 4t77 10t56 21.5t48 35t32 51t27.5 70.5t18 95 q10 61 10.5 105.5t-5 77t-29 52t-47 33t-75.5 18.5t-98 7t-130 2z" glyph-name="uni20BD" horiz-adv-x="1423" unicode="₽"/><glyph d="M580 1561q72 0 122 -8.5t94 -31t61 -71.5t5 -123l-106 -670q-14 -98 -69.5 -151t-119 -66.5t-164.5 -13.5h-116l-27 -160q-8 -63 16.5 -86.5t88.5 -27.5h202q31 0 27 -31l-12 -82q-4 -29 -35 -33q-131 -16 -209 -16q-143 0 -215 48t-51 185l174 1104q23 137 109 185.5 t225 48.5zM567 1399q-70 0 -102.5 -23.5t-42.5 -89.5l-109 -700h125q68 4 100.5 26.5t43.5 87.5l92 586q10 66 -15.5 89.5t-91.5 23.5z" glyph-name="afii61289" horiz-adv-x="854" unicode="ℓ"/><glyph d="M1999 1561q274 0 233 -265q-41 -262 -315.5 -262t-230.5 262q41 265 313 265zM1391 1550h145q29 0 27 -32l-236 -1487q-6 -31 -37 -31h-125q-45 0 -65 37l-615 1218l-194 -1224q-6 -31 -37 -31h-145q-31 0 -27 31l237 1487q2 33 35 32h140q53 -2 71.5 -12t36.5 -47 l569 -1129l185 1156q2 32 35 32zM1980 1434q-141 0 -161 -138q-23 -137 116 -137q137 0 160 137q20 138 -115 138zM1655 905h485q31 0 25 -31l-8 -55q-6 -31 -35 -31h-488q-29 0 -26 31l10 55q6 31 37 31z" glyph-name="afii61352" horiz-adv-x="2207" unicode="№"/><glyph d="M1026 1552q401 0 559 -190.5t94.5 -593.5t-281.5 -593.5t-619.5 -190.5t-560.5 190.5t-95 593.5q66 403 284 593.5t619 190.5zM1008 1436q-342 0 -528.5 -162t-240 -506t82 -506t475.5 -162q342 0 528 162t238 506q55 344 -79 506t-476 162zM999 1163q170 0 226.5 -56 t31.5 -208q-25 -150 -95 -200t-242 -50h-127l-45 -272q0 -14 -15 -15h-141q-12 0 -10 15l120 764q0 10 13 10q114 12 284 12zM958 1018h-108l-39 -246h109q86 0 119.5 23.5t45.5 97.5q10 74 -16.5 99.5t-110.5 25.5z" glyph-name="uni2117" horiz-adv-x="1763" unicode="℗"/><glyph d="M616 1554q129 0 250 -22q14 -2 15 -16l-15 -95q-2 -14 -18 -14h-289q-135 0 -147 -92l-4 -17q-8 -74 67 -104l223 -98q82 -35 111 -87.5t14 -148.5l-6 -35q-20 -127 -116.5 -177t-262.5 -50q-170 0 -305 20q-12 6 -10 21l16 90q0 16 19 16h350q125 0 141 86l2 19 q12 80 -76 115l-235 96q-72 29 -95.5 84t-6.5 153l4 29q23 127 114.5 177t259.5 50zM1882 1548h131q12 0 12 -20l-57 -905q0 -18 -20 -19h-136q-14 0 -14 19l41 624l-328 -598q-8 -16 -28 -16h-103q-18 0 -24 16l-139 600l-156 -626q-4 -18 -21 -19h-135q-18 0 -12 17 l227 907q2 18 21 18h129q27 0 38 -9t17 -38l143 -629l342 629q16 29 30.5 39t41.5 10z" glyph-name="uni2120" horiz-adv-x="2088" unicode="℠"/><glyph d="M217 1548h698q18 0 17 -20l-19 -111q-2 -16 -22 -16h-264l-121 -780q-4 -16 -23 -17h-133q-18 0 -14 17l123 780h-266q-16 0 -15 16l19 111q2 20 20 20zM1819 1548h129q18 0 12 -22l-55 -903q-4 -18 -21 -19h-135q-12 0 -12 19l41 624l-330 -598q-8 -16 -31 -16h-104 q-18 0 -21 16l-139 600l-156 -626q-2 -18 -22 -19h-131q-20 0 -17 19l230 907q6 18 18 18h131q27 0 39 -9t19 -38l141 -633l340 633q27 47 74 47z" glyph-name="trademark" horiz-adv-x="2029" unicode="™"/><glyph d="M1022 1556q393 0 552 -183t95 -576q-37 -227 -174 -401.5t-356 -235.5h368q31 0 25 -31l-16 -98q-4 -31 -35 -31h-539q-29 0 -27 31l31 194q6 29 35 33q162 20 308.5 165.5t183.5 367.5q47 305 -69 448t-411 143q-293 0 -454.5 -143t-208.5 -448q-37 -221 63.5 -366.5 t257.5 -166.5q27 -4 21 -33l-31 -194q-2 -31 -35 -31h-538q-31 0 -27 31l16 98q6 31 37 31h367q-203 61 -284 235t-44 402q63 393 279.5 576t609.5 183z" glyph-name="uni2126" horiz-adv-x="1753" unicode="Ω"/><glyph d="M657 1178q254 0 407 -173.5t153 -422.5h-879v-396q135 -129 311 -129q156 0 252 68t178 192l64 -38q-90 -139 -203 -214t-291 -75q-244 0 -399.5 173t-155.5 421q0 252 153.5 423t409.5 171zM657 1110q-197 0 -319 -127v-334h633v334q-140 127 -314 127z" glyph-name="estimated" horiz-adv-x="1296" unicode="℮"/><glyph d="M1313 1620h61q29 0 10 -35l-960 -1620q-23 -35 -53 -35h-68q-31 0 -8 35l967 1620q22 35 51 35zM336 1556q86 0 130 -29.5t30 -117.5l-88 -557h131q16 0 12 -14l-16 -111q-6 -12 -17 -12h-414q-14 0 -12 14l17 109q4 14 16 14h135l82 518q6 37 -11.5 48.5t-49.5 11.5h-74 q-12 0 -12 12l14 86q2 16 16 18q72 10 111 10zM1391 842h18q145 0 205.5 -56.5t42.5 -173.5q-20 -139 -146 -202q127 -53 107 -191q-37 -225 -344 -225h-21q-154 0 -222 55t-50 168q23 147 174 215q-57 31 -75.5 73t-8.5 109q33 228 320 228zM1384 705h-12q-133 0 -147 -109 q-12 -76 75 -98l113 -25q72 33 86 119q8 55 -20.5 84t-94.5 29zM1386 340l-133 33q-96 -37 -112 -123q-8 -59 26.5 -89t110.5 -30h12q160 0 174 102q14 87 -78 107z" glyph-name="oneeighth" horiz-adv-x="1744" unicode="⅛"/><glyph d="M1389 1620h63q29 0 10 -35l-962 -1620q-23 -35 -54 -35h-65q-31 0 -8 35l964 1620q23 35 52 35zM481 1556q135 0 211 -43t58 -159l-13 -62q-20 -135 -162 -159q133 -20 113 -162l-10 -62q-33 -201 -332 -200q-123 0 -233 16q-25 4 -19 27l12 79q0 12 15 13h219 q90 0 134 19.5t52 80.5l4 25q12 59 -26.5 80.5t-128.5 21.5h-164q-12 0 -12 14l16 95q0 12 14 12h164q90 0 135 21.5t56 80.5l4 27q8 59 -30 78.5t-128 19.5h-219q-10 0 -10 13l14 81q2 20 25 25q89 18 241 18zM1509 842h19q145 0 205.5 -56.5t42.5 -173.5 q-23 -139 -146 -202q127 -53 107 -191q-37 -225 -344 -225h-21q-154 0 -222.5 55t-49.5 168q18 147 174 215q-59 31 -76.5 73t-7.5 109q32 228 319 228zM1503 705h-12q-131 0 -150 -109q-12 -76 78 -98l113 -25q70 33 84 119q16 113 -113 113zM1505 340l-133 33 q-96 -37 -112 -123q-8 -59 26.5 -89t110.5 -30h12q158 0 172 102q14 87 -76 107z" glyph-name="threeeighths" horiz-adv-x="1863" unicode="⅜"/><glyph d="M1384 1620h62q29 0 10 -35l-960 -1620q-23 -35 -54 -35h-67q-31 0 -8 35l966 1620q22 35 51 35zM272 1550h471q16 0 13 -12l-17 -113q-2 -12 -16 -12h-358l-43 -201q47 10 129 11q57 0 101 -8.5t85 -28t58.5 -62.5t6.5 -104l-18 -109q-20 -119 -108.5 -160.5 t-231.5 -41.5q-137 0 -225 16q-20 6 -19 25l17 81q0 14 12 15h217q90 0 134 20.5t55 79.5l6 37q8 61 -30 82.5t-128 21.5h-203q-14 0 -19 5.5t-3 15.5l16 94l78 332q6 16 20 16zM1456 842h19q145 0 205.5 -56.5t41.5 -173.5q-20 -139 -145 -202q129 -51 106 -191 q-37 -225 -344 -225h-20q-154 0 -222.5 55t-49.5 168q23 147 174 215q-57 31 -76 73t-8 109q36 228 319 228zM1450 705h-10q-131 0 -150 -109q-12 -76 78 -98l111 -25q72 33 86 119q8 55 -20.5 84t-94.5 29zM1454 340l-135 33q-98 -37 -111 -123q-8 -59 27 -89t108 -30h15 q158 0 172 102q14 84 -76 107z" glyph-name="fiveeighths" horiz-adv-x="1810" unicode="⅝"/><glyph d="M1239 1620h61q29 0 11 -35l-961 -1620q-23 -35 -53 -35h-68q-31 0 -8 35l967 1620q22 35 51 35zM213 1550h575q14 0 11 -12l-13 -86q-4 -14 -8 -18l-487 -711q-2 -8 -15 -8h-151q-18 0 -6 14l471 684h-400q-14 0 -10 12l17 113q4 12 16 12zM1362 842h18q145 0 206 -56.5 t42 -173.5q-20 -139 -145 -202q127 -53 106 -191q-37 -225 -344 -225h-20q-154 0 -222.5 55t-50.5 168q12 80 54.5 130t119.5 85q-57 31 -75.5 73t-8.5 109q33 228 320 228zM1356 705h-13q-131 0 -149 -109q-10 -78 78 -98l112 -25q70 33 84 119q17 113 -112 113zM1358 340 l-133 33q-96 -37 -113 -123q-8 -59 27 -89t110 -30h13q160 0 174 102q12 87 -78 107z" glyph-name="seveneighths" horiz-adv-x="1720" unicode="⅞"/><glyph d="M793 1001h53q18 0 18 -18v-307h762q31 0 31 -31v-113q0 -31 -31 -30h-762v-307q0 -18 -18 -19h-53q-14 0 -35 10l-602 342q-18 8 -19 37v47q0 27 19 37l604 342q27 10 33 10z" glyph-name="arrowleft" horiz-adv-x="1828" unicode="←"/><glyph d="M535 1350h47q29 0 36 -19l343 -602q10 -20 10 -37v-51q0 -18 -19 -18h-307v-764q0 -31 -31 -31h-112q-31 0 -31 31v764h-307q-18 0 -19 18v51q0 8 11 35l342 604q10 19 37 19z" glyph-name="arrowup" horiz-adv-x="1103" unicode="↑"/><glyph d="M965 1001h53q6 0 33 -10l604 -342q18 -10 18 -37v-47q0 -29 -18 -37l-602 -342q-20 -10 -35 -10h-53q-18 0 -19 19v307h-762q-31 0 -30 30v113q0 31 30 31h762v307q1 18 19 18z" glyph-name="arrowright" horiz-adv-x="1828" unicode="→"/><glyph d="M473 1350h113q31 0 30 -31v-762h308q18 0 18 -20v-52q0 -10 -10 -34l-342 -603q-8 -20 -37 -20h-47q-29 0 -37 20l-342 601q-10 20 -10 36v52q0 20 18 20h307v762q0 31 31 31z" glyph-name="arrowdown" horiz-adv-x="1103" unicode="↓"/><glyph d="M1430 1001h51q10 0 35 -10l604 -342q18 -10 18 -37v-47q0 -29 -18 -37l-602 -342q-20 -10 -37 -10h-51q-18 0 -19 19v307h-547v-307q0 -18 -18 -19h-53q-14 0 -35 10l-602 342q-18 8 -19 37v47q0 27 19 37l604 342q27 10 33 10h53q18 0 18 -18v-307h547v307q1 18 19 18z " glyph-name="arrowboth" horiz-adv-x="2293" unicode="↔"/><glyph d="M569 1591h47q29 -4 37 -20l342 -602q10 -20 11 -35v-51q0 -20 -19 -21h-307v-545h307q18 0 19 -20v-51q0 -12 -11 -37l-342 -600q-8 -20 -37 -21h-47q-27 0 -37 21l-342 602q-10 31 -10 35v51q0 20 19 20h307v545h-307q-18 0 -19 21v51q0 8 10 33l342 604q10 20 37 20z " glyph-name="arrowupdn" unicode="↕"/><glyph d="M287 1165l667 -184q23 -8 31 -18l37 -35q14 -14 0 -29l-217 -217l538 -539q25 -20 0 -43l-77 -80q-23 -23 -45 0l-539 539l-217 -217q-12 -12 -27 0l-37 37q-6 8 -16 33l-184 667q-6 20 12 39l33 35q16 18 41 12z" glyph-name="uni2196" horiz-adv-x="1562" unicode="↖"/><glyph d="M449 979l667 188q23 6 41 -16l31 -31q20 -20 14 -39l-184 -667q-6 -23 -17 -33l-38 -39q-14 -12 -27 0l-215 217l-539 -539q-25 -20 -45 0l-80 80q-20 20 0 45l539 539l-217 215q-10 14 0 29l37 37q6 6 33 14z" glyph-name="uni2197" horiz-adv-x="1302" unicode="↗"/><glyph d="M866 618l215 218q12 12 27 0l39 -37q2 -2 14 -33l187 -670q6 -18 -15 -39l-30 -32q-20 -20 -41 -15l-668 187q-23 6 -33 16l-37 37q-12 16 0 29l217 215l-538 538q-20 25 0 45l78 80q25 20 45 0z" glyph-name="uni2198" horiz-adv-x="1570" unicode="↘"/><glyph d="M1149 1157l78 -82q23 -23 0 -43l-539 -538l219 -218q14 -14 -2 -26l-37 -37q-6 -6 -30 -16l-668 -187q-20 -6 -41 15l-33 32q-20 20 -12 39l182 668q8 25 19 35l37 35q14 14 26 0l219 -216l539 539q20 23 43 0z" glyph-name="uni2199" horiz-adv-x="1304" unicode="↙"/><glyph d="M944 1550h164q27 0 29 -20l73 -793q8 -100 -57 -252l-12 -41q-102 -244 -275.5 -349t-458 -105t-367.5 104.5t15 347.5l15 43q100 238 271 344.5t450 106.5q109 0 167 -23l-51 600q0 37 37 37zM723 756q-178 0 -282.5 -66.5t-170.5 -222.5l-2 -8q-63 -152 -14 -219.5 t229.5 -67.5t285.5 66.5t169 222.5l4 6q63 156 12 222.5t-231 66.5z" glyph-name="partialdiff" horiz-adv-x="1296" unicode="∂"/><glyph d="M743 1438h164q23 0 33 -25l313 -1352q2 -14 0 -24l-2 -25q-2 -12 -18 -12h-1272q-8 0 -12 3t-2 9l4 25q4 12 10 24l741 1352q14 25 41 25zM793 1235l-555 -1047h800z" glyph-name="uni2206" horiz-adv-x="1398" unicode="∆"/><glyph d="M197 1649h1271q31 0 25 -31l-16 -111q-2 -31 -35 -30h-170l-246 -1559q-2 -31 -35 -31h-125q-31 0 -26 31l247 1559h-563l-245 -1559q-4 -31 -35 -31h-125q-29 0 -27 31l248 1559h-172q-29 0 -27 30l19 111q6 31 37 31z" glyph-name="product" horiz-adv-x="1347" unicode="∏"/><glyph d="M217 1649h977q31 0 25 -31l-19 -119q-6 -31 -37 -31h-751l329 -663q8 -14 4 -37l-2 -14q-8 -29 -16 -39l-539 -662h830q31 0 24 -30l-16 -121q-6 -31 -37 -31h-1057q-31 0 -24 31l12 84q2 18 19 37l557 692q12 14 18 37v8q4 25 -4 39l-336 698q-8 18 -6 37l12 84 q6 31 37 31z" glyph-name="summation" horiz-adv-x="1175" unicode="∑"/><glyph d="M180 717h740q33 0 26 -31l-20 -123q-4 -31 -35 -31h-737q-31 0 -29 31l20 123q6 31 35 31z" glyph-name="minus" horiz-adv-x="1079" unicode="−"/><glyph d="M1120 1669h142q35 0 22 -35l-696 -1763q-12 -27 -39 -27h-146q-27 0 -32 25l-158 833l-123 -53q-33 -12 -39 17l-22 106q-10 29 22 41l303 121q31 12 35 -19l127 -708l565 1435q12 27 39 27z" glyph-name="radical" horiz-adv-x="1169" unicode="√"/><glyph d="M1354 967q186 0 259 -85t42 -268q-27 -184 -127.5 -270t-284.5 -86q-176 2 -305 150l-78 88l-104 -86q-186 -152 -357 -152q-186 0 -257.5 86t-43.5 270q29 182 128.5 267.5t283.5 85.5q168 0 305 -146l82 -90l111 90q172 146 346 146zM500 797q-193 0 -224 -185 q-14 -94 25 -138t139 -44q92 0 230 111l88 71l-70 76q-100 109 -188 109zM1313 797q-98 0 -213 -97l-105 -88l76 -86q84 -96 182 -96q195 0 222 182q31 185 -162 185z" glyph-name="infinity" horiz-adv-x="1765" unicode="∞"/><glyph d="M733 1653q90 0 178 -19q29 -6 23 -32l-14 -91q-6 -31 -37 -30h-113q-96 0 -136 -19.5t-52 -89.5q-33 -207 -60.5 -617.5t-60.5 -617.5q-10 -66 -40 -113t-62.5 -70.5t-81 -36.5t-81 -16t-77.5 -3q-90 0 -178 18q-29 6 -21 33l12 90q6 33 37 33h113q98 0 138 18.5t52 89.5 q31 203 58.5 613.5t60.5 619.5q10 66 40 114t62.5 71.5t81 37t81 15.5t77.5 2z" glyph-name="integral" horiz-adv-x="811" unicode="∫"/><glyph d="M467 1130q78 0 151.5 -47t140 -94t128.5 -47q113 0 176 98q18 27 41 11l76 -52q16 -14 2 -36q-45 -92 -129 -151.5t-191 -59.5q-63 0 -123.5 29.5t-100.5 64.5t-94.5 64.5t-103.5 29.5q-115 0 -176 -100q-16 -27 -39 -11l-75 54q-16 12 -5 37q45 92 130.5 151t191.5 59z M436 727q78 0 153 -47t141.5 -94t127.5 -47q111 0 174 98q18 27 41 10l76 -51q16 -14 2 -37q-43 -90 -128 -150.5t-192 -60.5q-63 0 -123.5 30t-100.5 64.5t-94 64.5t-103 30q-113 0 -177 -101q-16 -27 -38 -10l-76 53q-16 12 -4 37q45 92 130 151.5t191 59.5z" glyph-name="approxequal" horiz-adv-x="1269" unicode="≈"/><glyph d="M1034 1282h76q29 0 10 -35l-155 -262h256q29 0 26 -31l-18 -120q-6 -31 -35 -31h-338l-182 -309h471q31 0 24 -31l-18 -121q-6 -31 -37 -31h-551l-141 -239q-20 -35 -51 -35h-82q-29 0 -8 35l143 239h-309q-31 0 -25 31l19 121q6 31 36 31h387l185 309h-522q-33 0 -27 31 l18 120q2 31 35 31h604l158 262q18 35 51 35z" glyph-name="notequal" horiz-adv-x="1339" unicode="≠"/><glyph d="M1085 1262h19q14 0 10 -13l-22 -139q-2 -25 -29 -35l-660 -213l590 -211q23 -8 21 -35l-23 -139q-4 -12 -14 -12h-19q-10 0 -14 2l-774 293q-25 8 -18 35l18 137q6 27 33 35l868 290q4 5 14 5zM111 352h827q29 0 27 -30l-17 -109q-6 -31 -37 -31h-827q-31 0 -25 31 l17 109q2 30 35 30z" glyph-name="lessequal" horiz-adv-x="1167" unicode="≤"/></font>
</defs>
</svg>
